<svg width="334" height="316" viewBox="0 0 334 316" fill="none" xmlns="http://www.w3.org/2000/svg">
<rect x="0.5" y="0.5" width="333" height="315" rx="8.5" fill="white" stroke="#0048EA"/>
<path d="M152.143 40V36.76H145.855L141.655 37.168C141.655 35.896 142.399 35.44 143.959 34.96L147.463 34C150.319 33.208 152.191 31.792 152.191 28.936C152.191 25.888 150.223 23.68 145.375 23.68C140.023 23.68 137.887 26.512 137.887 29.632V29.944H141.415V29.632C141.415 27.856 142.303 26.968 145.255 26.968C147.895 26.968 148.567 27.664 148.567 28.888C148.567 29.944 148.039 30.424 146.599 30.928L142.471 32.272C139.087 33.4 137.863 34.864 137.863 37.696V40H152.143ZM162.116 40.24C167.276 40.24 170.156 36.976 170.156 31.96C170.156 26.968 167.276 23.68 162.116 23.68C156.932 23.68 154.076 26.968 154.076 31.96C154.076 36.976 156.932 40.24 162.116 40.24ZM162.116 36.736C159.044 36.736 157.94 35.416 157.94 31.96C157.94 28.504 159.044 27.184 162.116 27.184C165.164 27.184 166.292 28.504 166.292 31.96C166.292 35.416 165.164 36.736 162.116 36.736ZM179.414 40V23.92H176.126C175.334 25.504 174.134 25.912 172.358 25.912H171.686V28.384H175.814V40H179.414ZM189.472 40.24C194.176 40.24 197.272 37.504 197.272 31.864C197.272 26.224 194.872 23.68 189.016 23.68C184.24 23.68 181.72 25.744 181.72 28.96C181.72 32.248 183.928 33.856 187.888 33.856C190.768 33.856 192.496 32.776 193.168 31.456H193.432V32.512C193.432 35.824 192.304 36.784 189.472 36.784C187.144 36.784 186.256 36.232 186.256 34.84V34.648H182.248V34.84C182.248 38.128 185.056 40.24 189.472 40.24ZM189.208 31.36C186.328 31.36 185.488 30.712 185.488 29.224C185.488 27.808 186.352 27.136 189.208 27.136C192.184 27.136 193.144 27.832 193.144 29.224C193.144 30.688 192.208 31.36 189.208 31.36Z" fill="#0048EA"/>
<path d="M66.9615 85.16C70.4655 85.16 72.2255 83.4 72.2255 80.52V74.28H69.8255V80.344C69.8255 82.168 69.1535 82.824 66.9615 82.824C64.7855 82.824 64.0975 82.168 64.0975 80.344V74.28H61.6975V80.52C61.6975 83.4 63.4735 85.16 66.9615 85.16ZM76.3137 85V79.832L76.2177 77.864H76.3777L77.7377 79.88L81.6897 85H84.2497V74.28H81.8497V79.448L81.9617 81.608H81.7857L80.3137 79.352L76.4737 74.28H73.9137V85H76.3137ZM88.4031 85V74.28H86.0031V85H88.4031ZM97.2434 85L101.691 74.28H98.8114L95.6434 82.568H95.4834L92.2674 74.28H89.3714L93.8194 85H97.2434ZM111.754 85V82.84H105.082V80.68H111.514V78.536H105.082V76.44H111.754V74.28H102.682V85H111.754ZM115.718 85V81.112H117.302C118.55 81.112 118.95 81.384 119.382 82.216L120.854 85H123.638L122.086 82.12C121.686 81.368 121.318 80.856 120.358 80.6V80.472C122.374 80.28 123.382 79.24 123.382 77.496C123.382 75.448 121.878 74.28 119.238 74.28H113.318V85H115.718ZM115.718 76.44H119.222C120.358 76.44 120.87 76.808 120.87 77.864C120.87 78.984 120.358 79.304 119.222 79.304H115.718V76.44ZM129.74 85.16C133.148 85.16 134.508 83.592 134.508 81.848C134.508 80.376 133.644 79.208 131.244 78.824L128.236 78.344C127.34 78.184 126.988 77.96 126.988 77.336C126.988 76.648 127.516 76.312 129.244 76.312C131.372 76.312 131.9 76.744 131.9 77.768V77.992H134.316V77.896C134.316 75.64 132.78 74.12 129.484 74.12C125.884 74.12 124.572 75.816 124.572 77.432C124.572 79.176 125.708 80.136 127.628 80.44L130.636 80.872C131.74 81.064 132.108 81.304 132.108 81.96C132.108 82.68 131.66 82.968 129.74 82.968C127.564 82.968 127.068 82.568 127.068 81.576V81.288H124.668V81.384C124.668 83.88 126.492 85.16 129.74 85.16ZM138.366 85V74.28H135.966V85H138.366ZM146.07 85V76.44H150.054V74.28H139.686V76.44H143.67V85H146.07ZM157.746 85V81.464L162.578 74.28H159.602L157.554 77.416L156.658 78.856H156.482L155.586 77.416L153.538 74.28H150.578L155.33 81.448V85H157.746ZM171.984 85.16C175.616 85.16 177.808 82.984 177.808 79.64C177.808 76.296 175.616 74.12 171.984 74.12C168.432 74.12 166.224 76.296 166.224 79.64C166.224 82.984 168.432 85.16 171.984 85.16ZM171.984 82.856C169.632 82.856 168.768 82.024 168.768 79.64C168.768 77.256 169.632 76.424 171.984 76.424C174.336 76.424 175.248 77.256 175.248 79.64C175.248 82.024 174.336 82.856 171.984 82.856ZM181.734 85V81H188.166V78.856H181.734V76.44H188.406V74.28H179.334V85H181.734ZM198.345 85.16C201.689 85.16 203.817 83.496 203.817 80.776V80.536H201.145V80.776C201.145 82.184 200.345 82.856 198.393 82.856C196.041 82.856 195.161 82.024 195.161 79.64C195.161 77.256 196.041 76.424 198.393 76.424C200.345 76.424 201.145 77.096 201.145 78.504V78.744H203.817V78.504C203.817 75.784 201.673 74.12 198.345 74.12C194.809 74.12 192.617 76.296 192.617 79.64C192.617 82.984 194.809 85.16 198.345 85.16ZM210.857 85.16C214.489 85.16 216.681 82.984 216.681 79.64C216.681 76.296 214.489 74.12 210.857 74.12C207.305 74.12 205.097 76.296 205.097 79.64C205.097 82.984 207.305 85.16 210.857 85.16ZM210.857 82.856C208.505 82.856 207.641 82.024 207.641 79.64C207.641 77.256 208.505 76.424 210.857 76.424C213.209 76.424 214.121 77.256 214.121 79.64C214.121 82.024 213.209 82.856 210.857 82.856ZM220.607 85V74.28H218.207V85H220.607ZM224.744 85V79.56L224.648 77.88H224.824L225.448 79.56L227.688 84.36H230.6L232.84 79.56L233.464 77.88H233.64L233.56 79.56V85H235.96V74.28H232.696L230.264 79.56L229.288 82.072H229.112L228.104 79.56L225.592 74.28H222.344V85H224.744ZM244.387 85C246.787 85 247.907 83.848 247.907 82.024C247.907 80.584 246.947 79.592 244.963 79.448V79.304C246.755 79.176 247.459 78.216 247.459 76.888C247.459 75.208 246.275 74.28 244.083 74.28H237.651V85H244.387ZM240.051 76.44H243.779C244.675 76.44 245.059 76.76 245.059 77.496C245.059 78.232 244.691 78.536 243.811 78.536H240.051V76.44ZM240.051 80.52H244.099C245.075 80.52 245.475 80.824 245.475 81.672C245.475 82.536 245.075 82.84 244.099 82.84H240.051V80.52ZM251.672 85V81.112H253.256C254.504 81.112 254.904 81.384 255.336 82.216L256.808 85H259.592L258.04 82.12C257.64 81.368 257.272 80.856 256.312 80.6V80.472C258.328 80.28 259.336 79.24 259.336 77.496C259.336 75.448 257.832 74.28 255.192 74.28H249.272V85H251.672ZM251.672 76.44H255.176C256.312 76.44 256.824 76.808 256.824 77.864C256.824 78.984 256.312 79.304 255.176 79.304H251.672V76.44ZM262.799 85L263.823 82.632H269.183L270.191 85H272.943L268.223 74.28H264.799L260.111 85H262.799ZM265.759 78.136L266.415 76.472H266.591L267.247 78.136L268.255 80.472H264.751L265.759 78.136Z" fill="#182022"/>
<path d="M92.9648 110H96.6602C97.4622 110 98.1471 109.875 98.7148 109.625C99.2826 109.37 99.7174 109.008 100.02 108.539C100.327 108.065 100.48 107.5 100.48 106.844V106.828C100.48 106.333 100.376 105.893 100.168 105.508C99.9648 105.117 99.6758 104.799 99.3008 104.555C98.9258 104.31 98.4805 104.156 97.9648 104.094V103.969C98.3294 103.901 98.6576 103.75 98.9492 103.516C99.2409 103.281 99.4727 102.992 99.6445 102.648C99.8216 102.305 99.9102 101.938 99.9102 101.547V101.531C99.9102 100.958 99.7747 100.464 99.5039 100.047C99.2383 99.625 98.8555 99.2995 98.3555 99.0703C97.8607 98.8411 97.2669 98.7266 96.5742 98.7266H92.9648V99.9688H96.2773C96.9753 99.9688 97.5169 100.128 97.9023 100.445C98.293 100.758 98.4883 101.201 98.4883 101.773V101.789C98.4883 102.383 98.2721 102.831 97.8398 103.133C97.4128 103.435 96.7721 103.586 95.918 103.586H92.9648V104.797H96.3164C96.9154 104.797 97.4154 104.87 97.8164 105.016C98.2227 105.161 98.5273 105.38 98.7305 105.672C98.9336 105.964 99.0352 106.326 99.0352 106.758V106.773C99.0352 107.419 98.8164 107.911 98.3789 108.25C97.9414 108.589 97.2982 108.758 96.4492 108.758H92.9648V110ZM92.2617 110H93.668V98.7266H92.2617V110ZM104.918 110.148C105.298 110.148 105.647 110.096 105.965 109.992C106.283 109.883 106.566 109.724 106.816 109.516C107.072 109.307 107.288 109.055 107.465 108.758H107.59V110H108.949V104.234C108.949 103.651 108.824 103.151 108.574 102.734C108.329 102.312 107.967 101.99 107.488 101.766C107.014 101.542 106.434 101.43 105.746 101.43C105.147 101.43 104.613 101.523 104.145 101.711C103.676 101.893 103.293 102.151 102.996 102.484C102.704 102.812 102.522 103.198 102.449 103.641L102.441 103.688H103.801L103.809 103.664C103.918 103.336 104.134 103.083 104.457 102.906C104.78 102.724 105.194 102.633 105.699 102.633C106.329 102.633 106.801 102.771 107.113 103.047C107.431 103.318 107.59 103.714 107.59 104.234V106.859C107.59 107.26 107.486 107.62 107.277 107.938C107.074 108.255 106.793 108.508 106.434 108.695C106.074 108.878 105.663 108.969 105.199 108.969C104.71 108.969 104.303 108.852 103.98 108.617C103.658 108.378 103.496 108.044 103.496 107.617V107.602C103.496 107.185 103.642 106.862 103.934 106.633C104.23 106.404 104.699 106.271 105.34 106.234L108.27 106.047V104.961L105.176 105.148C104.197 105.206 103.439 105.448 102.902 105.875C102.371 106.297 102.105 106.883 102.105 107.633V107.648C102.105 108.159 102.228 108.602 102.473 108.977C102.723 109.352 103.059 109.641 103.48 109.844C103.908 110.047 104.387 110.148 104.918 110.148ZM114.879 110.148C115.556 110.148 116.134 110.036 116.613 109.812C117.092 109.589 117.478 109.281 117.77 108.891C118.061 108.495 118.264 108.044 118.379 107.539L118.395 107.453L117.051 107.461L117.035 107.508C116.879 107.977 116.621 108.333 116.262 108.578C115.902 108.823 115.439 108.945 114.871 108.945C114.371 108.945 113.936 108.815 113.566 108.555C113.197 108.294 112.91 107.927 112.707 107.453C112.504 106.974 112.402 106.411 112.402 105.766V105.75C112.402 105.115 112.501 104.565 112.699 104.102C112.902 103.633 113.189 103.271 113.559 103.016C113.928 102.76 114.366 102.633 114.871 102.633C115.475 102.633 115.962 102.779 116.332 103.07C116.702 103.362 116.939 103.716 117.043 104.133L117.051 104.156H118.402L118.395 104.109C118.311 103.609 118.121 103.159 117.824 102.758C117.527 102.352 117.132 102.029 116.637 101.789C116.142 101.549 115.553 101.43 114.871 101.43C114.085 101.43 113.402 101.609 112.824 101.969C112.246 102.323 111.798 102.823 111.48 103.469C111.168 104.115 111.012 104.875 111.012 105.75V105.766C111.012 106.656 111.171 107.43 111.488 108.086C111.806 108.742 112.254 109.25 112.832 109.609C113.41 109.969 114.092 110.148 114.879 110.148ZM120.465 110H121.824V105.016C121.824 104.521 121.913 104.096 122.09 103.742C122.272 103.388 122.527 103.115 122.855 102.922C123.184 102.729 123.572 102.633 124.02 102.633C124.691 102.633 125.186 102.818 125.504 103.188C125.827 103.552 125.988 104.115 125.988 104.875V110H127.348V104.547C127.348 103.88 127.233 103.315 127.004 102.852C126.775 102.388 126.441 102.036 126.004 101.797C125.566 101.552 125.033 101.43 124.402 101.43C123.783 101.43 123.272 101.555 122.871 101.805C122.47 102.049 122.163 102.396 121.949 102.844H121.824V98.2344H120.465V110ZM133.246 110.148C133.741 110.148 134.186 110.086 134.582 109.961C134.983 109.831 135.329 109.659 135.621 109.445C135.913 109.227 136.15 108.984 136.332 108.719C136.52 108.448 136.65 108.169 136.723 107.883L136.738 107.82H135.379L135.348 107.891C135.275 108.057 135.147 108.221 134.965 108.383C134.783 108.544 134.551 108.677 134.27 108.781C133.988 108.885 133.658 108.938 133.277 108.938C132.767 108.938 132.324 108.826 131.949 108.602C131.574 108.372 131.285 108.047 131.082 107.625C130.879 107.198 130.777 106.685 130.777 106.086V105.547C130.777 104.917 130.882 104.385 131.09 103.953C131.298 103.521 131.579 103.195 131.934 102.977C132.293 102.753 132.699 102.641 133.152 102.641C133.605 102.641 134.007 102.747 134.355 102.961C134.704 103.169 134.978 103.487 135.176 103.914C135.374 104.341 135.473 104.885 135.473 105.547V106.086L136.145 105.094H130.09V106.18H136.84V105.648C136.84 104.81 136.691 104.076 136.395 103.445C136.103 102.81 135.681 102.315 135.129 101.961C134.582 101.607 133.926 101.43 133.16 101.43C132.4 101.43 131.736 101.615 131.168 101.984C130.6 102.354 130.16 102.867 129.848 103.523C129.54 104.18 129.387 104.943 129.387 105.812V105.82C129.387 106.701 129.54 107.466 129.848 108.117C130.16 108.763 130.603 109.263 131.176 109.617C131.754 109.971 132.444 110.148 133.246 110.148ZM139.027 110H140.387V98.2344H139.027V110ZM146.457 110.148C147.259 110.148 147.949 109.974 148.527 109.625C149.105 109.271 149.551 108.768 149.863 108.117C150.181 107.466 150.34 106.693 150.34 105.797V105.781C150.34 104.88 150.181 104.104 149.863 103.453C149.551 102.802 149.105 102.302 148.527 101.953C147.949 101.604 147.259 101.43 146.457 101.43C145.66 101.43 144.97 101.604 144.387 101.953C143.809 102.302 143.361 102.802 143.043 103.453C142.73 104.104 142.574 104.88 142.574 105.781V105.797C142.574 106.693 142.73 107.466 143.043 108.117C143.361 108.768 143.809 109.271 144.387 109.625C144.97 109.974 145.66 110.148 146.457 110.148ZM146.457 108.945C145.926 108.945 145.475 108.82 145.105 108.57C144.736 108.32 144.452 107.961 144.254 107.492C144.061 107.023 143.965 106.458 143.965 105.797V105.781C143.965 105.115 144.061 104.547 144.254 104.078C144.452 103.609 144.736 103.253 145.105 103.008C145.475 102.758 145.926 102.633 146.457 102.633C146.988 102.633 147.439 102.758 147.809 103.008C148.178 103.253 148.46 103.609 148.652 104.078C148.85 104.547 148.949 105.115 148.949 105.781V105.797C148.949 106.458 148.85 107.023 148.652 107.492C148.46 107.961 148.178 108.32 147.809 108.57C147.439 108.82 146.988 108.945 146.457 108.945ZM152.449 110H153.809V104.781C153.809 104.37 153.902 104.01 154.09 103.703C154.283 103.396 154.546 103.156 154.879 102.984C155.212 102.812 155.595 102.727 156.027 102.727C156.178 102.727 156.319 102.734 156.449 102.75C156.585 102.76 156.723 102.779 156.863 102.805V101.484C156.796 101.474 156.697 101.464 156.566 101.453C156.441 101.438 156.314 101.43 156.184 101.43C155.616 101.43 155.139 101.552 154.754 101.797C154.368 102.042 154.095 102.385 153.934 102.828H153.809V101.578H152.449V110ZM161.277 110.148C161.918 110.148 162.491 110.042 162.996 109.828C163.507 109.615 163.91 109.318 164.207 108.938C164.504 108.552 164.652 108.109 164.652 107.609V107.594C164.652 106.99 164.457 106.508 164.066 106.148C163.681 105.789 163.092 105.513 162.301 105.32L161.004 105.008C160.509 104.888 160.15 104.734 159.926 104.547C159.702 104.359 159.59 104.122 159.59 103.836V103.82C159.59 103.57 159.665 103.352 159.816 103.164C159.967 102.977 160.173 102.831 160.434 102.727C160.694 102.617 160.991 102.562 161.324 102.562C161.835 102.562 162.249 102.667 162.566 102.875C162.884 103.083 163.087 103.354 163.176 103.688H164.512C164.449 103.229 164.277 102.831 163.996 102.492C163.72 102.154 163.353 101.893 162.895 101.711C162.441 101.523 161.921 101.43 161.332 101.43C160.738 101.43 160.204 101.536 159.73 101.75C159.257 101.964 158.882 102.255 158.605 102.625C158.335 102.995 158.199 103.414 158.199 103.883V103.891C158.199 104.495 158.384 104.979 158.754 105.344C159.124 105.703 159.702 105.977 160.488 106.164L161.793 106.477C162.314 106.602 162.689 106.766 162.918 106.969C163.147 107.167 163.262 107.409 163.262 107.695V107.711C163.262 107.966 163.178 108.193 163.012 108.391C162.845 108.583 162.616 108.737 162.324 108.852C162.038 108.961 161.704 109.016 161.324 109.016C160.788 109.016 160.353 108.909 160.02 108.695C159.686 108.482 159.462 108.201 159.348 107.852H157.957C158.009 108.315 158.178 108.719 158.465 109.062C158.757 109.406 159.142 109.674 159.621 109.867C160.1 110.055 160.652 110.148 161.277 110.148ZM171.293 110H172.652V101.578H171.293V110ZM171.98 99.9531C172.241 99.9531 172.462 99.862 172.645 99.6797C172.827 99.4922 172.918 99.2708 172.918 99.0156C172.918 98.7552 172.827 98.5339 172.645 98.3516C172.462 98.1693 172.241 98.0781 171.98 98.0781C171.725 98.0781 171.504 98.1693 171.316 98.3516C171.134 98.5339 171.043 98.7552 171.043 99.0156C171.043 99.2708 171.134 99.4922 171.316 99.6797C171.504 99.862 171.725 99.9531 171.98 99.9531ZM175.215 110H176.574V105.016C176.574 104.521 176.663 104.096 176.84 103.742C177.022 103.388 177.277 103.115 177.605 102.922C177.934 102.729 178.322 102.633 178.77 102.633C179.441 102.633 179.936 102.818 180.254 103.188C180.577 103.552 180.738 104.115 180.738 104.875V110H182.098V104.547C182.098 103.547 181.842 102.779 181.332 102.242C180.827 101.701 180.1 101.43 179.152 101.43C178.533 101.43 178.022 101.555 177.621 101.805C177.22 102.049 176.913 102.396 176.699 102.844H176.574V101.578H175.215V110ZM189.23 110H193.098C194.217 110 195.173 109.779 195.965 109.336C196.757 108.888 197.363 108.245 197.785 107.406C198.207 106.562 198.418 105.549 198.418 104.367V104.352C198.418 103.169 198.207 102.159 197.785 101.32C197.363 100.482 196.754 99.8411 195.957 99.3984C195.165 98.9505 194.212 98.7266 193.098 98.7266H189.23V110ZM190.637 108.734V99.9922H193.004C193.837 99.9922 194.551 100.167 195.145 100.516C195.738 100.859 196.191 101.359 196.504 102.016C196.822 102.667 196.98 103.451 196.98 104.367V104.383C196.98 105.294 196.824 106.076 196.512 106.727C196.199 107.378 195.746 107.875 195.152 108.219C194.559 108.562 193.842 108.734 193.004 108.734H190.637ZM204.121 110.148C204.616 110.148 205.061 110.086 205.457 109.961C205.858 109.831 206.204 109.659 206.496 109.445C206.788 109.227 207.025 108.984 207.207 108.719C207.395 108.448 207.525 108.169 207.598 107.883L207.613 107.82H206.254L206.223 107.891C206.15 108.057 206.022 108.221 205.84 108.383C205.658 108.544 205.426 108.677 205.145 108.781C204.863 108.885 204.533 108.938 204.152 108.938C203.642 108.938 203.199 108.826 202.824 108.602C202.449 108.372 202.16 108.047 201.957 107.625C201.754 107.198 201.652 106.685 201.652 106.086V105.547C201.652 104.917 201.757 104.385 201.965 103.953C202.173 103.521 202.454 103.195 202.809 102.977C203.168 102.753 203.574 102.641 204.027 102.641C204.48 102.641 204.882 102.747 205.23 102.961C205.579 103.169 205.853 103.487 206.051 103.914C206.249 104.341 206.348 104.885 206.348 105.547V106.086L207.02 105.094H200.965V106.18H207.715V105.648C207.715 104.81 207.566 104.076 207.27 103.445C206.978 102.81 206.556 102.315 206.004 101.961C205.457 101.607 204.801 101.43 204.035 101.43C203.275 101.43 202.611 101.615 202.043 101.984C201.475 102.354 201.035 102.867 200.723 103.523C200.415 104.18 200.262 104.943 200.262 105.812V105.82C200.262 106.701 200.415 107.466 200.723 108.117C201.035 108.763 201.478 109.263 202.051 109.617C202.629 109.971 203.319 110.148 204.121 110.148ZM212.715 110.148C213.355 110.148 213.928 110.042 214.434 109.828C214.944 109.615 215.348 109.318 215.645 108.938C215.941 108.552 216.09 108.109 216.09 107.609V107.594C216.09 106.99 215.895 106.508 215.504 106.148C215.118 105.789 214.53 105.513 213.738 105.32L212.441 105.008C211.947 104.888 211.587 104.734 211.363 104.547C211.139 104.359 211.027 104.122 211.027 103.836V103.82C211.027 103.57 211.103 103.352 211.254 103.164C211.405 102.977 211.611 102.831 211.871 102.727C212.132 102.617 212.428 102.562 212.762 102.562C213.272 102.562 213.686 102.667 214.004 102.875C214.322 103.083 214.525 103.354 214.613 103.688H215.949C215.887 103.229 215.715 102.831 215.434 102.492C215.158 102.154 214.79 101.893 214.332 101.711C213.879 101.523 213.358 101.43 212.77 101.43C212.176 101.43 211.642 101.536 211.168 101.75C210.694 101.964 210.319 102.255 210.043 102.625C209.772 102.995 209.637 103.414 209.637 103.883V103.891C209.637 104.495 209.822 104.979 210.191 105.344C210.561 105.703 211.139 105.977 211.926 106.164L213.23 106.477C213.751 106.602 214.126 106.766 214.355 106.969C214.585 107.167 214.699 107.409 214.699 107.695V107.711C214.699 107.966 214.616 108.193 214.449 108.391C214.283 108.583 214.053 108.737 213.762 108.852C213.475 108.961 213.142 109.016 212.762 109.016C212.225 109.016 211.79 108.909 211.457 108.695C211.124 108.482 210.9 108.201 210.785 107.852H209.395C209.447 108.315 209.616 108.719 209.902 109.062C210.194 109.406 210.579 109.674 211.059 109.867C211.538 110.055 212.09 110.148 212.715 110.148ZM218.23 110H219.59V101.578H218.23V110ZM218.918 99.9531C219.178 99.9531 219.4 99.862 219.582 99.6797C219.764 99.4922 219.855 99.2708 219.855 99.0156C219.855 98.7552 219.764 98.5339 219.582 98.3516C219.4 98.1693 219.178 98.0781 218.918 98.0781C218.663 98.0781 218.441 98.1693 218.254 98.3516C218.072 98.5339 217.98 98.7552 217.98 99.0156C217.98 99.2708 218.072 99.4922 218.254 99.6797C218.441 99.862 218.663 99.9531 218.918 99.9531ZM225.621 112.969C226.387 112.969 227.051 112.841 227.613 112.586C228.176 112.336 228.608 111.979 228.91 111.516C229.217 111.052 229.371 110.508 229.371 109.883V101.578H228.012V102.969H227.918C227.746 102.651 227.53 102.378 227.27 102.148C227.014 101.919 226.72 101.742 226.387 101.617C226.053 101.492 225.689 101.43 225.293 101.43C224.559 101.43 223.926 101.607 223.395 101.961C222.863 102.31 222.452 102.792 222.16 103.406C221.874 104.016 221.73 104.714 221.73 105.5V105.516C221.73 106.302 221.874 107 222.16 107.609C222.447 108.219 222.853 108.698 223.379 109.047C223.91 109.391 224.538 109.562 225.262 109.562C225.647 109.562 226.007 109.508 226.34 109.398C226.673 109.284 226.973 109.117 227.238 108.898C227.504 108.68 227.725 108.417 227.902 108.109H228.027V109.812C228.027 110.432 227.814 110.911 227.387 111.25C226.965 111.594 226.376 111.766 225.621 111.766C225.017 111.766 224.533 111.661 224.168 111.453C223.803 111.25 223.585 110.99 223.512 110.672L223.504 110.664H222.098L222.082 110.672C222.155 111.13 222.34 111.531 222.637 111.875C222.939 112.224 223.342 112.492 223.848 112.68C224.353 112.872 224.944 112.969 225.621 112.969ZM225.559 108.359C225.038 108.359 224.595 108.24 224.23 108C223.871 107.755 223.595 107.419 223.402 106.992C223.215 106.565 223.121 106.073 223.121 105.516V105.5C223.121 104.943 223.215 104.448 223.402 104.016C223.595 103.583 223.871 103.245 224.23 103C224.595 102.755 225.038 102.633 225.559 102.633C226.079 102.633 226.525 102.755 226.895 103C227.27 103.245 227.556 103.583 227.754 104.016C227.957 104.448 228.059 104.943 228.059 105.5V105.516C228.059 106.073 227.957 106.565 227.754 106.992C227.556 107.419 227.27 107.755 226.895 108C226.525 108.24 226.079 108.359 225.559 108.359ZM231.902 110H233.262V105.016C233.262 104.521 233.35 104.096 233.527 103.742C233.71 103.388 233.965 103.115 234.293 102.922C234.621 102.729 235.009 102.633 235.457 102.633C236.129 102.633 236.624 102.818 236.941 103.188C237.264 103.552 237.426 104.115 237.426 104.875V110H238.785V104.547C238.785 103.547 238.53 102.779 238.02 102.242C237.514 101.701 236.788 101.43 235.84 101.43C235.22 101.43 234.71 101.555 234.309 101.805C233.908 102.049 233.6 102.396 233.387 102.844H233.262V101.578H231.902V110ZM113.574 129.148C113.954 129.148 114.303 129.096 114.621 128.992C114.939 128.883 115.223 128.724 115.473 128.516C115.728 128.307 115.944 128.055 116.121 127.758H116.246V129H117.605V123.234C117.605 122.651 117.48 122.151 117.23 121.734C116.986 121.312 116.624 120.99 116.145 120.766C115.671 120.542 115.09 120.43 114.402 120.43C113.803 120.43 113.27 120.523 112.801 120.711C112.332 120.893 111.949 121.151 111.652 121.484C111.361 121.812 111.178 122.198 111.105 122.641L111.098 122.688H112.457L112.465 122.664C112.574 122.336 112.79 122.083 113.113 121.906C113.436 121.724 113.85 121.633 114.355 121.633C114.986 121.633 115.457 121.771 115.77 122.047C116.087 122.318 116.246 122.714 116.246 123.234V125.859C116.246 126.26 116.142 126.62 115.934 126.938C115.73 127.255 115.449 127.508 115.09 127.695C114.73 127.878 114.319 127.969 113.855 127.969C113.366 127.969 112.96 127.852 112.637 127.617C112.314 127.378 112.152 127.044 112.152 126.617V126.602C112.152 126.185 112.298 125.862 112.59 125.633C112.887 125.404 113.355 125.271 113.996 125.234L116.926 125.047V123.961L113.832 124.148C112.853 124.206 112.095 124.448 111.559 124.875C111.027 125.297 110.762 125.883 110.762 126.633V126.648C110.762 127.159 110.884 127.602 111.129 127.977C111.379 128.352 111.715 128.641 112.137 128.844C112.564 129.047 113.043 129.148 113.574 129.148ZM120.09 129H121.449V124.016C121.449 123.521 121.538 123.096 121.715 122.742C121.897 122.388 122.152 122.115 122.48 121.922C122.809 121.729 123.197 121.633 123.645 121.633C124.316 121.633 124.811 121.818 125.129 122.188C125.452 122.552 125.613 123.115 125.613 123.875V129H126.973V123.547C126.973 122.547 126.717 121.779 126.207 121.242C125.702 120.701 124.975 120.43 124.027 120.43C123.408 120.43 122.897 120.555 122.496 120.805C122.095 121.049 121.788 121.396 121.574 121.844H121.449V120.578H120.09V129ZM132.543 129.148C133.132 129.148 133.652 129.018 134.105 128.758C134.559 128.492 134.913 128.125 135.168 127.656H135.293V129H136.652V117.234H135.293V121.906H135.168C134.939 121.458 134.587 121.102 134.113 120.836C133.645 120.565 133.121 120.43 132.543 120.43C131.829 120.43 131.207 120.609 130.676 120.969C130.15 121.328 129.741 121.833 129.449 122.484C129.158 123.135 129.012 123.901 129.012 124.781V124.797C129.012 125.672 129.158 126.438 129.449 127.094C129.741 127.745 130.152 128.25 130.684 128.609C131.215 128.969 131.835 129.148 132.543 129.148ZM132.855 127.945C132.345 127.945 131.905 127.82 131.535 127.57C131.171 127.315 130.889 126.953 130.691 126.484C130.499 126.01 130.402 125.448 130.402 124.797V124.781C130.402 124.125 130.499 123.562 130.691 123.094C130.889 122.625 131.171 122.266 131.535 122.016C131.905 121.76 132.345 121.633 132.855 121.633C133.366 121.633 133.806 121.76 134.176 122.016C134.546 122.271 134.829 122.633 135.027 123.102C135.225 123.57 135.324 124.13 135.324 124.781V124.797C135.324 125.443 135.225 126.003 135.027 126.477C134.829 126.945 134.546 127.307 134.176 127.562C133.806 127.818 133.366 127.945 132.855 127.945ZM143.934 129H145.246V120.391H145.934L144.363 118.039L148.895 129H150.082L154.621 118.039L153.043 120.391H153.73V129H155.043V117.727H153.41L149.551 127.133H149.426L145.566 117.727H143.934V129ZM160.566 129.148C161.186 129.148 161.704 129.026 162.121 128.781C162.543 128.536 162.858 128.19 163.066 127.742H163.191V129H164.551V120.578H163.191V125.562C163.191 126.052 163.105 126.477 162.934 126.836C162.762 127.19 162.507 127.464 162.168 127.656C161.829 127.849 161.413 127.945 160.918 127.945C160.246 127.945 159.762 127.76 159.465 127.391C159.173 127.021 159.027 126.458 159.027 125.703V120.578H157.668V126.031C157.668 126.693 157.775 127.258 157.988 127.727C158.207 128.19 158.533 128.544 158.965 128.789C159.397 129.029 159.931 129.148 160.566 129.148ZM167.168 129H168.527V117.234H167.168V129ZM174.129 129.062C174.264 129.062 174.397 129.055 174.527 129.039C174.658 129.023 174.788 129.005 174.918 128.984V127.828C174.793 127.839 174.686 127.846 174.598 127.852C174.514 127.857 174.413 127.859 174.293 127.859C173.855 127.859 173.543 127.753 173.355 127.539C173.168 127.32 173.074 126.964 173.074 126.469V121.703H174.918V120.578H173.074V118.398H171.668V120.578H170.34V121.703H171.668V126.812C171.668 127.615 171.861 128.19 172.246 128.539C172.637 128.888 173.264 129.062 174.129 129.062ZM176.98 129H178.34V120.578H176.98V129ZM177.668 118.953C177.928 118.953 178.15 118.862 178.332 118.68C178.514 118.492 178.605 118.271 178.605 118.016C178.605 117.755 178.514 117.534 178.332 117.352C178.15 117.169 177.928 117.078 177.668 117.078C177.413 117.078 177.191 117.169 177.004 117.352C176.822 117.534 176.73 117.755 176.73 118.016C176.73 118.271 176.822 118.492 177.004 118.68C177.191 118.862 177.413 118.953 177.668 118.953ZM180.902 129H182.262V123.781C182.262 123.385 182.345 123.026 182.512 122.703C182.684 122.375 182.915 122.115 183.207 121.922C183.504 121.729 183.835 121.633 184.199 121.633C184.73 121.633 185.155 121.784 185.473 122.086C185.79 122.383 185.949 122.781 185.949 123.281V129H187.309V123.586C187.309 123.227 187.389 122.901 187.551 122.609C187.712 122.312 187.939 122.076 188.23 121.898C188.522 121.721 188.863 121.633 189.254 121.633C189.848 121.633 190.288 121.789 190.574 122.102C190.866 122.409 191.012 122.872 191.012 123.492V129H192.371V123.18C192.371 122.591 192.267 122.094 192.059 121.688C191.85 121.276 191.546 120.964 191.145 120.75C190.749 120.536 190.264 120.43 189.691 120.43C189.306 120.43 188.944 120.492 188.605 120.617C188.272 120.737 187.978 120.909 187.723 121.133C187.467 121.352 187.264 121.609 187.113 121.906H186.988C186.858 121.615 186.684 121.359 186.465 121.141C186.246 120.917 185.986 120.742 185.684 120.617C185.382 120.492 185.04 120.43 184.66 120.43C184.108 120.43 183.637 120.555 183.246 120.805C182.861 121.055 182.574 121.406 182.387 121.859H182.262V120.578H180.902V129ZM198.262 129.148C198.757 129.148 199.202 129.086 199.598 128.961C199.999 128.831 200.345 128.659 200.637 128.445C200.928 128.227 201.165 127.984 201.348 127.719C201.535 127.448 201.665 127.169 201.738 126.883L201.754 126.82H200.395L200.363 126.891C200.29 127.057 200.163 127.221 199.98 127.383C199.798 127.544 199.566 127.677 199.285 127.781C199.004 127.885 198.673 127.938 198.293 127.938C197.783 127.938 197.34 127.826 196.965 127.602C196.59 127.372 196.301 127.047 196.098 126.625C195.895 126.198 195.793 125.685 195.793 125.086V124.547C195.793 123.917 195.897 123.385 196.105 122.953C196.314 122.521 196.595 122.195 196.949 121.977C197.309 121.753 197.715 121.641 198.168 121.641C198.621 121.641 199.022 121.747 199.371 121.961C199.72 122.169 199.993 122.487 200.191 122.914C200.389 123.341 200.488 123.885 200.488 124.547V125.086L201.16 124.094H195.105V125.18H201.855V124.648C201.855 123.81 201.707 123.076 201.41 122.445C201.118 121.81 200.697 121.315 200.145 120.961C199.598 120.607 198.941 120.43 198.176 120.43C197.415 120.43 196.751 120.615 196.184 120.984C195.616 121.354 195.176 121.867 194.863 122.523C194.556 123.18 194.402 123.943 194.402 124.812V124.82C194.402 125.701 194.556 126.466 194.863 127.117C195.176 127.763 195.618 128.263 196.191 128.617C196.77 128.971 197.46 129.148 198.262 129.148ZM207.074 129.148C207.663 129.148 208.184 129.018 208.637 128.758C209.09 128.492 209.444 128.125 209.699 127.656H209.824V129H211.184V117.234H209.824V121.906H209.699C209.47 121.458 209.118 121.102 208.645 120.836C208.176 120.565 207.652 120.43 207.074 120.43C206.361 120.43 205.738 120.609 205.207 120.969C204.681 121.328 204.272 121.833 203.98 122.484C203.689 123.135 203.543 123.901 203.543 124.781V124.797C203.543 125.672 203.689 126.438 203.98 127.094C204.272 127.745 204.684 128.25 205.215 128.609C205.746 128.969 206.366 129.148 207.074 129.148ZM207.387 127.945C206.876 127.945 206.436 127.82 206.066 127.57C205.702 127.315 205.421 126.953 205.223 126.484C205.03 126.01 204.934 125.448 204.934 124.797V124.781C204.934 124.125 205.03 123.562 205.223 123.094C205.421 122.625 205.702 122.266 206.066 122.016C206.436 121.76 206.876 121.633 207.387 121.633C207.897 121.633 208.337 121.76 208.707 122.016C209.077 122.271 209.361 122.633 209.559 123.102C209.757 123.57 209.855 124.13 209.855 124.781V124.797C209.855 125.443 209.757 126.003 209.559 126.477C209.361 126.945 209.077 127.307 208.707 127.562C208.337 127.818 207.897 127.945 207.387 127.945ZM213.824 129H215.184V120.578H213.824V129ZM214.512 118.953C214.772 118.953 214.993 118.862 215.176 118.68C215.358 118.492 215.449 118.271 215.449 118.016C215.449 117.755 215.358 117.534 215.176 117.352C214.993 117.169 214.772 117.078 214.512 117.078C214.257 117.078 214.035 117.169 213.848 117.352C213.665 117.534 213.574 117.755 213.574 118.016C213.574 118.271 213.665 118.492 213.848 118.68C214.035 118.862 214.257 118.953 214.512 118.953ZM220.059 129.148C220.439 129.148 220.788 129.096 221.105 128.992C221.423 128.883 221.707 128.724 221.957 128.516C222.212 128.307 222.428 128.055 222.605 127.758H222.73V129H224.09V123.234C224.09 122.651 223.965 122.151 223.715 121.734C223.47 121.312 223.108 120.99 222.629 120.766C222.155 120.542 221.574 120.43 220.887 120.43C220.288 120.43 219.754 120.523 219.285 120.711C218.816 120.893 218.434 121.151 218.137 121.484C217.845 121.812 217.663 122.198 217.59 122.641L217.582 122.688H218.941L218.949 122.664C219.059 122.336 219.275 122.083 219.598 121.906C219.921 121.724 220.335 121.633 220.84 121.633C221.47 121.633 221.941 121.771 222.254 122.047C222.572 122.318 222.73 122.714 222.73 123.234V125.859C222.73 126.26 222.626 126.62 222.418 126.938C222.215 127.255 221.934 127.508 221.574 127.695C221.215 127.878 220.803 127.969 220.34 127.969C219.85 127.969 219.444 127.852 219.121 127.617C218.798 127.378 218.637 127.044 218.637 126.617V126.602C218.637 126.185 218.783 125.862 219.074 125.633C219.371 125.404 219.84 125.271 220.48 125.234L223.41 125.047V123.961L220.316 124.148C219.337 124.206 218.579 124.448 218.043 124.875C217.512 125.297 217.246 125.883 217.246 126.633V126.648C217.246 127.159 217.368 127.602 217.613 127.977C217.863 128.352 218.199 128.641 218.621 128.844C219.048 129.047 219.527 129.148 220.059 129.148Z" fill="black"/>
</svg>
