<svg width="334" height="316" viewBox="0 0 334 316" fill="none" xmlns="http://www.w3.org/2000/svg">
<rect x="0.5" y="0.5" width="333" height="315" rx="8.5" fill="white" stroke="#0048EA"/>
<path d="M148.057 41V37.76H141.769L137.569 38.168C137.569 36.896 138.313 36.44 139.873 35.96L143.377 35C146.233 34.208 148.105 32.792 148.105 29.936C148.105 26.888 146.137 24.68 141.289 24.68C135.937 24.68 133.801 27.512 133.801 30.632V30.944H137.329V30.632C137.329 28.856 138.217 27.968 141.169 27.968C143.809 27.968 144.481 28.664 144.481 29.888C144.481 30.944 143.953 31.424 142.513 31.928L138.385 33.272C135.001 34.4 133.777 35.864 133.777 38.696V41H148.057ZM158.03 41.24C163.19 41.24 166.07 37.976 166.07 32.96C166.07 27.968 163.19 24.68 158.03 24.68C152.846 24.68 149.99 27.968 149.99 32.96C149.99 37.976 152.846 41.24 158.03 41.24ZM158.03 37.736C154.958 37.736 153.854 36.416 153.854 32.96C153.854 29.504 154.958 28.184 158.03 28.184C161.078 28.184 162.206 29.504 162.206 32.96C162.206 36.416 161.078 37.736 158.03 37.736ZM182.192 41V37.76H175.904L171.704 38.168C171.704 36.896 172.448 36.44 174.008 35.96L177.512 35C180.368 34.208 182.24 32.792 182.24 29.936C182.24 26.888 180.272 24.68 175.424 24.68C170.072 24.68 167.936 27.512 167.936 30.632V30.944H171.464V30.632C171.464 28.856 172.352 27.968 175.304 27.968C177.944 27.968 178.616 28.664 178.616 29.888C178.616 30.944 178.088 31.424 176.648 31.928L172.52 33.272C169.136 34.4 167.912 35.864 167.912 38.696V41H182.192ZM192.165 41.24C197.325 41.24 200.205 37.976 200.205 32.96C200.205 27.968 197.325 24.68 192.165 24.68C186.981 24.68 184.125 27.968 184.125 32.96C184.125 37.976 186.981 41.24 192.165 41.24ZM192.165 37.736C189.093 37.736 187.989 36.416 187.989 32.96C187.989 29.504 189.093 28.184 192.165 28.184C195.213 28.184 196.341 29.504 196.341 32.96C196.341 36.416 195.213 37.736 192.165 37.736Z" fill="#0048EA"/>
<path d="M135.86 157V154.2H132.772V157H135.86ZM143.091 157L144.723 151.64L145.475 148.552H145.651L146.403 151.64L148.003 157H151.571L154.115 146.28H151.491L150.195 152.36L149.827 154.712H149.651L149.155 152.36L147.379 146.28H143.811L142.019 152.36L141.523 154.712H141.347L140.979 152.36L139.683 146.28H136.995L139.523 157H143.091ZM160.943 157.16C164.575 157.16 166.767 154.984 166.767 151.64C166.767 148.296 164.575 146.12 160.943 146.12C157.391 146.12 155.183 148.296 155.183 151.64C155.183 154.984 157.391 157.16 160.943 157.16ZM160.943 154.856C158.591 154.856 157.727 154.024 157.727 151.64C157.727 149.256 158.591 148.424 160.943 148.424C163.295 148.424 164.207 149.256 164.207 151.64C164.207 154.024 163.295 154.856 160.943 154.856ZM170.694 157V153.112H172.278C173.526 153.112 173.926 153.384 174.358 154.216L175.83 157H178.614L177.062 154.12C176.662 153.368 176.294 152.856 175.334 152.6V152.472C177.35 152.28 178.358 151.24 178.358 149.496C178.358 147.448 176.854 146.28 174.214 146.28H168.294V157H170.694ZM170.694 148.44H174.198C175.334 148.44 175.846 148.808 175.846 149.864C175.846 150.984 175.334 151.304 174.198 151.304H170.694V148.44ZM182.252 157V152.872H184.956L187.724 157H190.604L186.924 151.56L190.652 146.28H187.772L184.924 150.536H182.252V146.28H179.852V157H182.252ZM196.602 157.16C200.01 157.16 201.37 155.592 201.37 153.848C201.37 152.376 200.506 151.208 198.106 150.824L195.098 150.344C194.202 150.184 193.85 149.96 193.85 149.336C193.85 148.648 194.378 148.312 196.106 148.312C198.234 148.312 198.762 148.744 198.762 149.768V149.992H201.178V149.896C201.178 147.64 199.642 146.12 196.346 146.12C192.746 146.12 191.434 147.816 191.434 149.432C191.434 151.176 192.57 152.136 194.49 152.44L197.498 152.872C198.602 153.064 198.97 153.304 198.97 153.96C198.97 154.68 198.522 154.968 196.602 154.968C194.426 154.968 193.93 154.568 193.93 153.576V153.288H191.53V153.384C191.53 155.88 193.354 157.16 196.602 157.16Z" fill="#182022"/>
<path d="M106.346 86.16C109.834 86.16 111.146 84.512 111.146 81.76V75.28H108.602V81.76C108.602 83.264 108.234 83.824 106.346 83.824C104.442 83.824 104.122 83.232 104.122 81.648V81.184H101.578V81.648C101.578 84.48 102.874 86.16 106.346 86.16ZM121.905 86V83.84H115.233V81.68H121.665V79.536H115.233V77.44H121.905V75.28H112.833V86H121.905ZM125.87 86V81.872H128.574L131.342 86H134.222L130.542 80.56L134.27 75.28H131.39L128.542 79.536H125.87V75.28H123.47V86H125.87ZM137.756 86V80.832L137.66 78.864H137.82L139.18 80.88L143.132 86H145.692V75.28H143.292V80.448L143.404 82.608H143.228L141.756 80.352L137.916 75.28H135.356V86H137.756ZM152.965 86.16C156.597 86.16 158.789 83.984 158.789 80.64C158.789 77.296 156.597 75.12 152.965 75.12C149.413 75.12 147.205 77.296 147.205 80.64C147.205 83.984 149.413 86.16 152.965 86.16ZM152.965 83.856C150.613 83.856 149.749 83.024 149.749 80.64C149.749 78.256 150.613 77.424 152.965 77.424C155.317 77.424 156.229 78.256 156.229 80.64C156.229 83.024 155.317 83.856 152.965 83.856ZM165.948 86L167.58 80.64L168.332 77.552H168.508L169.26 80.64L170.86 86H174.428L176.972 75.28H174.348L173.052 81.36L172.684 83.712H172.508L172.012 81.36L170.236 75.28H166.668L164.876 81.36L164.38 83.712H164.204L163.836 81.36L162.54 75.28H159.852L162.38 86H165.948ZM187.064 86V83.84H180.68V75.28H178.28V86H187.064ZM197.582 86V83.84H190.91V81.68H197.342V79.536H190.91V77.44H197.582V75.28H188.51V86H197.582ZM204.442 86C207.882 86 210.058 84 210.058 80.64C210.058 77.28 207.882 75.28 204.442 75.28H199.274V86H204.442ZM204.442 77.44C206.618 77.44 207.498 78.064 207.498 80.64C207.498 83.216 206.618 83.84 204.442 83.84H201.674V77.44H204.442ZM216.636 86.16C218.956 86.16 220.076 85.104 220.444 83.696H220.572V86H222.796V80.336H216.764V82.112H220.396C220.332 83.472 219.58 83.856 217.116 83.856C214.764 83.856 213.884 83.024 213.884 80.64C213.884 78.256 214.796 77.424 217.228 77.424C219.292 77.424 220.108 78.016 220.108 79.264V79.392H222.78V79.264C222.78 76.688 220.652 75.12 217.292 75.12C213.612 75.12 211.34 77.296 211.34 80.64C211.34 83.984 213.356 86.16 216.636 86.16ZM233.522 86V83.84H226.85V81.68H233.282V79.536H226.85V77.44H233.522V75.28H224.45V86H233.522Z" fill="#182022"/>
<path d="M112.145 111.266C113.186 111.266 113.999 110.966 114.582 110.367C115.171 109.768 115.465 108.935 115.465 107.867V99.7266H114.059V107.852C114.059 108.539 113.895 109.065 113.566 109.43C113.238 109.789 112.762 109.969 112.137 109.969C111.767 109.969 111.457 109.898 111.207 109.758C110.957 109.612 110.764 109.422 110.629 109.188C110.493 108.948 110.41 108.688 110.379 108.406L110.371 108.328H108.965L108.973 108.438C109.014 108.974 109.16 109.456 109.41 109.883C109.665 110.31 110.022 110.648 110.48 110.898C110.939 111.143 111.493 111.266 112.145 111.266ZM120.988 111.148C121.608 111.148 122.126 111.026 122.543 110.781C122.965 110.536 123.28 110.19 123.488 109.742H123.613V111H124.973V102.578H123.613V107.562C123.613 108.052 123.527 108.477 123.355 108.836C123.184 109.19 122.928 109.464 122.59 109.656C122.251 109.849 121.835 109.945 121.34 109.945C120.668 109.945 120.184 109.76 119.887 109.391C119.595 109.021 119.449 108.458 119.449 107.703V102.578H118.09V108.031C118.09 108.693 118.197 109.258 118.41 109.727C118.629 110.19 118.954 110.544 119.387 110.789C119.819 111.029 120.353 111.148 120.988 111.148ZM127.512 111H128.871V106.016C128.871 105.521 128.96 105.096 129.137 104.742C129.319 104.388 129.574 104.115 129.902 103.922C130.23 103.729 130.618 103.633 131.066 103.633C131.738 103.633 132.233 103.818 132.551 104.188C132.874 104.552 133.035 105.115 133.035 105.875V111H134.395V105.547C134.395 104.547 134.139 103.779 133.629 103.242C133.124 102.701 132.397 102.43 131.449 102.43C130.829 102.43 130.319 102.555 129.918 102.805C129.517 103.049 129.21 103.396 128.996 103.844H128.871V102.578H127.512V111ZM136.887 111H138.246V102.578H136.887V111ZM137.574 100.953C137.835 100.953 138.056 100.862 138.238 100.68C138.421 100.492 138.512 100.271 138.512 100.016C138.512 99.7552 138.421 99.5339 138.238 99.3516C138.056 99.1693 137.835 99.0781 137.574 99.0781C137.319 99.0781 137.098 99.1693 136.91 99.3516C136.728 99.5339 136.637 99.7552 136.637 100.016C136.637 100.271 136.728 100.492 136.91 100.68C137.098 100.862 137.319 100.953 137.574 100.953ZM144.27 111.148C145.072 111.148 145.762 110.974 146.34 110.625C146.918 110.271 147.363 109.768 147.676 109.117C147.993 108.466 148.152 107.693 148.152 106.797V106.781C148.152 105.88 147.993 105.104 147.676 104.453C147.363 103.802 146.918 103.302 146.34 102.953C145.762 102.604 145.072 102.43 144.27 102.43C143.473 102.43 142.783 102.604 142.199 102.953C141.621 103.302 141.173 103.802 140.855 104.453C140.543 105.104 140.387 105.88 140.387 106.781V106.797C140.387 107.693 140.543 108.466 140.855 109.117C141.173 109.768 141.621 110.271 142.199 110.625C142.783 110.974 143.473 111.148 144.27 111.148ZM144.27 109.945C143.738 109.945 143.288 109.82 142.918 109.57C142.548 109.32 142.264 108.961 142.066 108.492C141.874 108.023 141.777 107.458 141.777 106.797V106.781C141.777 106.115 141.874 105.547 142.066 105.078C142.264 104.609 142.548 104.253 142.918 104.008C143.288 103.758 143.738 103.633 144.27 103.633C144.801 103.633 145.251 103.758 145.621 104.008C145.991 104.253 146.272 104.609 146.465 105.078C146.663 105.547 146.762 106.115 146.762 106.781V106.797C146.762 107.458 146.663 108.023 146.465 108.492C146.272 108.961 145.991 109.32 145.621 109.57C145.251 109.82 144.801 109.945 144.27 109.945ZM150.262 111H151.621V105.781C151.621 105.37 151.715 105.01 151.902 104.703C152.095 104.396 152.358 104.156 152.691 103.984C153.025 103.812 153.408 103.727 153.84 103.727C153.991 103.727 154.132 103.734 154.262 103.75C154.397 103.76 154.535 103.779 154.676 103.805V102.484C154.608 102.474 154.509 102.464 154.379 102.453C154.254 102.438 154.126 102.43 153.996 102.43C153.428 102.43 152.952 102.552 152.566 102.797C152.181 103.042 151.908 103.385 151.746 103.828H151.621V102.578H150.262V111ZM161.027 111H164.895C166.014 111 166.97 110.779 167.762 110.336C168.553 109.888 169.16 109.245 169.582 108.406C170.004 107.562 170.215 106.549 170.215 105.367V105.352C170.215 104.169 170.004 103.159 169.582 102.32C169.16 101.482 168.551 100.841 167.754 100.398C166.962 99.9505 166.009 99.7266 164.895 99.7266H161.027V111ZM162.434 109.734V100.992H164.801C165.634 100.992 166.348 101.167 166.941 101.516C167.535 101.859 167.988 102.359 168.301 103.016C168.618 103.667 168.777 104.451 168.777 105.367V105.383C168.777 106.294 168.621 107.076 168.309 107.727C167.996 108.378 167.543 108.875 166.949 109.219C166.355 109.562 165.639 109.734 164.801 109.734H162.434ZM175.918 111.148C176.413 111.148 176.858 111.086 177.254 110.961C177.655 110.831 178.001 110.659 178.293 110.445C178.585 110.227 178.822 109.984 179.004 109.719C179.191 109.448 179.322 109.169 179.395 108.883L179.41 108.82H178.051L178.02 108.891C177.947 109.057 177.819 109.221 177.637 109.383C177.454 109.544 177.223 109.677 176.941 109.781C176.66 109.885 176.329 109.938 175.949 109.938C175.439 109.938 174.996 109.826 174.621 109.602C174.246 109.372 173.957 109.047 173.754 108.625C173.551 108.198 173.449 107.685 173.449 107.086V106.547C173.449 105.917 173.553 105.385 173.762 104.953C173.97 104.521 174.251 104.195 174.605 103.977C174.965 103.753 175.371 103.641 175.824 103.641C176.277 103.641 176.678 103.747 177.027 103.961C177.376 104.169 177.65 104.487 177.848 104.914C178.046 105.341 178.145 105.885 178.145 106.547V107.086L178.816 106.094H172.762V107.18H179.512V106.648C179.512 105.81 179.363 105.076 179.066 104.445C178.775 103.81 178.353 103.315 177.801 102.961C177.254 102.607 176.598 102.43 175.832 102.43C175.072 102.43 174.408 102.615 173.84 102.984C173.272 103.354 172.832 103.867 172.52 104.523C172.212 105.18 172.059 105.943 172.059 106.812V106.82C172.059 107.701 172.212 108.466 172.52 109.117C172.832 109.763 173.275 110.263 173.848 110.617C174.426 110.971 175.116 111.148 175.918 111.148ZM184.512 111.148C185.152 111.148 185.725 111.042 186.23 110.828C186.741 110.615 187.145 110.318 187.441 109.938C187.738 109.552 187.887 109.109 187.887 108.609V108.594C187.887 107.99 187.691 107.508 187.301 107.148C186.915 106.789 186.327 106.513 185.535 106.32L184.238 106.008C183.743 105.888 183.384 105.734 183.16 105.547C182.936 105.359 182.824 105.122 182.824 104.836V104.82C182.824 104.57 182.9 104.352 183.051 104.164C183.202 103.977 183.408 103.831 183.668 103.727C183.928 103.617 184.225 103.562 184.559 103.562C185.069 103.562 185.483 103.667 185.801 103.875C186.118 104.083 186.322 104.354 186.41 104.688H187.746C187.684 104.229 187.512 103.831 187.23 103.492C186.954 103.154 186.587 102.893 186.129 102.711C185.676 102.523 185.155 102.43 184.566 102.43C183.973 102.43 183.439 102.536 182.965 102.75C182.491 102.964 182.116 103.255 181.84 103.625C181.569 103.995 181.434 104.414 181.434 104.883V104.891C181.434 105.495 181.618 105.979 181.988 106.344C182.358 106.703 182.936 106.977 183.723 107.164L185.027 107.477C185.548 107.602 185.923 107.766 186.152 107.969C186.382 108.167 186.496 108.409 186.496 108.695V108.711C186.496 108.966 186.413 109.193 186.246 109.391C186.079 109.583 185.85 109.737 185.559 109.852C185.272 109.961 184.939 110.016 184.559 110.016C184.022 110.016 183.587 109.909 183.254 109.695C182.921 109.482 182.697 109.201 182.582 108.852H181.191C181.243 109.315 181.413 109.719 181.699 110.062C181.991 110.406 182.376 110.674 182.855 110.867C183.335 111.055 183.887 111.148 184.512 111.148ZM190.027 111H191.387V102.578H190.027V111ZM190.715 100.953C190.975 100.953 191.197 100.862 191.379 100.68C191.561 100.492 191.652 100.271 191.652 100.016C191.652 99.7552 191.561 99.5339 191.379 99.3516C191.197 99.1693 190.975 99.0781 190.715 99.0781C190.46 99.0781 190.238 99.1693 190.051 99.3516C189.868 99.5339 189.777 99.7552 189.777 100.016C189.777 100.271 189.868 100.492 190.051 100.68C190.238 100.862 190.46 100.953 190.715 100.953ZM197.418 113.969C198.184 113.969 198.848 113.841 199.41 113.586C199.973 113.336 200.405 112.979 200.707 112.516C201.014 112.052 201.168 111.508 201.168 110.883V102.578H199.809V103.969H199.715C199.543 103.651 199.327 103.378 199.066 103.148C198.811 102.919 198.517 102.742 198.184 102.617C197.85 102.492 197.486 102.43 197.09 102.43C196.355 102.43 195.723 102.607 195.191 102.961C194.66 103.31 194.249 103.792 193.957 104.406C193.671 105.016 193.527 105.714 193.527 106.5V106.516C193.527 107.302 193.671 108 193.957 108.609C194.243 109.219 194.65 109.698 195.176 110.047C195.707 110.391 196.335 110.562 197.059 110.562C197.444 110.562 197.803 110.508 198.137 110.398C198.47 110.284 198.77 110.117 199.035 109.898C199.301 109.68 199.522 109.417 199.699 109.109H199.824V110.812C199.824 111.432 199.611 111.911 199.184 112.25C198.762 112.594 198.173 112.766 197.418 112.766C196.814 112.766 196.329 112.661 195.965 112.453C195.6 112.25 195.382 111.99 195.309 111.672L195.301 111.664H193.895L193.879 111.672C193.952 112.13 194.137 112.531 194.434 112.875C194.736 113.224 195.139 113.492 195.645 113.68C196.15 113.872 196.741 113.969 197.418 113.969ZM197.355 109.359C196.835 109.359 196.392 109.24 196.027 109C195.668 108.755 195.392 108.419 195.199 107.992C195.012 107.565 194.918 107.073 194.918 106.516V106.5C194.918 105.943 195.012 105.448 195.199 105.016C195.392 104.583 195.668 104.245 196.027 104C196.392 103.755 196.835 103.633 197.355 103.633C197.876 103.633 198.322 103.755 198.691 104C199.066 104.245 199.353 104.583 199.551 105.016C199.754 105.448 199.855 105.943 199.855 106.5V106.516C199.855 107.073 199.754 107.565 199.551 107.992C199.353 108.419 199.066 108.755 198.691 109C198.322 109.24 197.876 109.359 197.355 109.359ZM203.699 111H205.059V106.016C205.059 105.521 205.147 105.096 205.324 104.742C205.507 104.388 205.762 104.115 206.09 103.922C206.418 103.729 206.806 103.633 207.254 103.633C207.926 103.633 208.421 103.818 208.738 104.188C209.061 104.552 209.223 105.115 209.223 105.875V111H210.582V105.547C210.582 104.547 210.327 103.779 209.816 103.242C209.311 102.701 208.585 102.43 207.637 102.43C207.017 102.43 206.507 102.555 206.105 102.805C205.704 103.049 205.397 103.396 205.184 103.844H205.059V102.578H203.699V111ZM216.48 111.148C216.975 111.148 217.421 111.086 217.816 110.961C218.217 110.831 218.564 110.659 218.855 110.445C219.147 110.227 219.384 109.984 219.566 109.719C219.754 109.448 219.884 109.169 219.957 108.883L219.973 108.82H218.613L218.582 108.891C218.509 109.057 218.382 109.221 218.199 109.383C218.017 109.544 217.785 109.677 217.504 109.781C217.223 109.885 216.892 109.938 216.512 109.938C216.001 109.938 215.559 109.826 215.184 109.602C214.809 109.372 214.52 109.047 214.316 108.625C214.113 108.198 214.012 107.685 214.012 107.086V106.547C214.012 105.917 214.116 105.385 214.324 104.953C214.533 104.521 214.814 104.195 215.168 103.977C215.527 103.753 215.934 103.641 216.387 103.641C216.84 103.641 217.241 103.747 217.59 103.961C217.939 104.169 218.212 104.487 218.41 104.914C218.608 105.341 218.707 105.885 218.707 106.547V107.086L219.379 106.094H213.324V107.18H220.074V106.648C220.074 105.81 219.926 105.076 219.629 104.445C219.337 103.81 218.915 103.315 218.363 102.961C217.816 102.607 217.16 102.43 216.395 102.43C215.634 102.43 214.97 102.615 214.402 102.984C213.835 103.354 213.395 103.867 213.082 104.523C212.775 105.18 212.621 105.943 212.621 106.812V106.82C212.621 107.701 212.775 108.466 213.082 109.117C213.395 109.763 213.837 110.263 214.41 110.617C214.988 110.971 215.678 111.148 216.48 111.148ZM222.184 111H223.543V105.781C223.543 105.37 223.637 105.01 223.824 104.703C224.017 104.396 224.28 104.156 224.613 103.984C224.947 103.812 225.329 103.727 225.762 103.727C225.913 103.727 226.053 103.734 226.184 103.75C226.319 103.76 226.457 103.779 226.598 103.805V102.484C226.53 102.474 226.431 102.464 226.301 102.453C226.176 102.438 226.048 102.43 225.918 102.43C225.35 102.43 224.874 102.552 224.488 102.797C224.103 103.042 223.829 103.385 223.668 103.828H223.543V102.578H222.184V111Z" fill="black"/>
<path d="M99.0586 182H100.465V170.727H99.0586V182ZM103.168 182H104.527V176.781C104.527 176.385 104.611 176.026 104.777 175.703C104.949 175.375 105.181 175.115 105.473 174.922C105.77 174.729 106.1 174.633 106.465 174.633C106.996 174.633 107.421 174.784 107.738 175.086C108.056 175.383 108.215 175.781 108.215 176.281V182H109.574V176.586C109.574 176.227 109.655 175.901 109.816 175.609C109.978 175.312 110.204 175.076 110.496 174.898C110.788 174.721 111.129 174.633 111.52 174.633C112.113 174.633 112.553 174.789 112.84 175.102C113.132 175.409 113.277 175.872 113.277 176.492V182H114.637V176.18C114.637 175.591 114.533 175.094 114.324 174.688C114.116 174.276 113.811 173.964 113.41 173.75C113.014 173.536 112.53 173.43 111.957 173.43C111.572 173.43 111.21 173.492 110.871 173.617C110.538 173.737 110.243 173.909 109.988 174.133C109.733 174.352 109.53 174.609 109.379 174.906H109.254C109.124 174.615 108.949 174.359 108.73 174.141C108.512 173.917 108.251 173.742 107.949 173.617C107.647 173.492 107.306 173.43 106.926 173.43C106.374 173.43 105.902 173.555 105.512 173.805C105.126 174.055 104.84 174.406 104.652 174.859H104.527V173.578H103.168V182ZM119.402 182.148C119.783 182.148 120.132 182.096 120.449 181.992C120.767 181.883 121.051 181.724 121.301 181.516C121.556 181.307 121.772 181.055 121.949 180.758H122.074V182H123.434V176.234C123.434 175.651 123.309 175.151 123.059 174.734C122.814 174.312 122.452 173.99 121.973 173.766C121.499 173.542 120.918 173.43 120.23 173.43C119.632 173.43 119.098 173.523 118.629 173.711C118.16 173.893 117.777 174.151 117.48 174.484C117.189 174.812 117.007 175.198 116.934 175.641L116.926 175.688H118.285L118.293 175.664C118.402 175.336 118.618 175.083 118.941 174.906C119.264 174.724 119.678 174.633 120.184 174.633C120.814 174.633 121.285 174.771 121.598 175.047C121.915 175.318 122.074 175.714 122.074 176.234V178.859C122.074 179.26 121.97 179.62 121.762 179.938C121.559 180.255 121.277 180.508 120.918 180.695C120.559 180.878 120.147 180.969 119.684 180.969C119.194 180.969 118.788 180.852 118.465 180.617C118.142 180.378 117.98 180.044 117.98 179.617V179.602C117.98 179.185 118.126 178.862 118.418 178.633C118.715 178.404 119.184 178.271 119.824 178.234L122.754 178.047V176.961L119.66 177.148C118.681 177.206 117.923 177.448 117.387 177.875C116.855 178.297 116.59 178.883 116.59 179.633V179.648C116.59 180.159 116.712 180.602 116.957 180.977C117.207 181.352 117.543 181.641 117.965 181.844C118.392 182.047 118.871 182.148 119.402 182.148ZM129.387 184.969C130.152 184.969 130.816 184.841 131.379 184.586C131.941 184.336 132.374 183.979 132.676 183.516C132.983 183.052 133.137 182.508 133.137 181.883V173.578H131.777V174.969H131.684C131.512 174.651 131.296 174.378 131.035 174.148C130.78 173.919 130.486 173.742 130.152 173.617C129.819 173.492 129.454 173.43 129.059 173.43C128.324 173.43 127.691 173.607 127.16 173.961C126.629 174.31 126.217 174.792 125.926 175.406C125.639 176.016 125.496 176.714 125.496 177.5V177.516C125.496 178.302 125.639 179 125.926 179.609C126.212 180.219 126.618 180.698 127.145 181.047C127.676 181.391 128.303 181.562 129.027 181.562C129.413 181.562 129.772 181.508 130.105 181.398C130.439 181.284 130.738 181.117 131.004 180.898C131.27 180.68 131.491 180.417 131.668 180.109H131.793V181.812C131.793 182.432 131.579 182.911 131.152 183.25C130.73 183.594 130.142 183.766 129.387 183.766C128.783 183.766 128.298 183.661 127.934 183.453C127.569 183.25 127.35 182.99 127.277 182.672L127.27 182.664H125.863L125.848 182.672C125.921 183.13 126.105 183.531 126.402 183.875C126.704 184.224 127.108 184.492 127.613 184.68C128.118 184.872 128.71 184.969 129.387 184.969ZM129.324 180.359C128.803 180.359 128.361 180.24 127.996 180C127.637 179.755 127.361 179.419 127.168 178.992C126.98 178.565 126.887 178.073 126.887 177.516V177.5C126.887 176.943 126.98 176.448 127.168 176.016C127.361 175.583 127.637 175.245 127.996 175C128.361 174.755 128.803 174.633 129.324 174.633C129.845 174.633 130.29 174.755 130.66 175C131.035 175.245 131.322 175.583 131.52 176.016C131.723 176.448 131.824 176.943 131.824 177.5V177.516C131.824 178.073 131.723 178.565 131.52 178.992C131.322 179.419 131.035 179.755 130.66 180C130.29 180.24 129.845 180.359 129.324 180.359ZM139.105 182.148C139.6 182.148 140.046 182.086 140.441 181.961C140.842 181.831 141.189 181.659 141.48 181.445C141.772 181.227 142.009 180.984 142.191 180.719C142.379 180.448 142.509 180.169 142.582 179.883L142.598 179.82H141.238L141.207 179.891C141.134 180.057 141.007 180.221 140.824 180.383C140.642 180.544 140.41 180.677 140.129 180.781C139.848 180.885 139.517 180.938 139.137 180.938C138.626 180.938 138.184 180.826 137.809 180.602C137.434 180.372 137.145 180.047 136.941 179.625C136.738 179.198 136.637 178.685 136.637 178.086V177.547C136.637 176.917 136.741 176.385 136.949 175.953C137.158 175.521 137.439 175.195 137.793 174.977C138.152 174.753 138.559 174.641 139.012 174.641C139.465 174.641 139.866 174.747 140.215 174.961C140.564 175.169 140.837 175.487 141.035 175.914C141.233 176.341 141.332 176.885 141.332 177.547V178.086L142.004 177.094H135.949V178.18H142.699V177.648C142.699 176.81 142.551 176.076 142.254 175.445C141.962 174.81 141.54 174.315 140.988 173.961C140.441 173.607 139.785 173.43 139.02 173.43C138.259 173.43 137.595 173.615 137.027 173.984C136.46 174.354 136.02 174.867 135.707 175.523C135.4 176.18 135.246 176.943 135.246 177.812V177.82C135.246 178.701 135.4 179.466 135.707 180.117C136.02 180.763 136.462 181.263 137.035 181.617C137.613 181.971 138.303 182.148 139.105 182.148ZM149.48 182H153.348C154.467 182 155.423 181.779 156.215 181.336C157.007 180.888 157.613 180.245 158.035 179.406C158.457 178.562 158.668 177.549 158.668 176.367V176.352C158.668 175.169 158.457 174.159 158.035 173.32C157.613 172.482 157.004 171.841 156.207 171.398C155.415 170.951 154.462 170.727 153.348 170.727H149.48V182ZM150.887 180.734V171.992H153.254C154.087 171.992 154.801 172.167 155.395 172.516C155.988 172.859 156.441 173.359 156.754 174.016C157.072 174.667 157.23 175.451 157.23 176.367V176.383C157.23 177.294 157.074 178.076 156.762 178.727C156.449 179.378 155.996 179.875 155.402 180.219C154.809 180.562 154.092 180.734 153.254 180.734H150.887ZM164.371 182.148C164.866 182.148 165.311 182.086 165.707 181.961C166.108 181.831 166.454 181.659 166.746 181.445C167.038 181.227 167.275 180.984 167.457 180.719C167.645 180.448 167.775 180.169 167.848 179.883L167.863 179.82H166.504L166.473 179.891C166.4 180.057 166.272 180.221 166.09 180.383C165.908 180.544 165.676 180.677 165.395 180.781C165.113 180.885 164.783 180.938 164.402 180.938C163.892 180.938 163.449 180.826 163.074 180.602C162.699 180.372 162.41 180.047 162.207 179.625C162.004 179.198 161.902 178.685 161.902 178.086V177.547C161.902 176.917 162.007 176.385 162.215 175.953C162.423 175.521 162.704 175.195 163.059 174.977C163.418 174.753 163.824 174.641 164.277 174.641C164.73 174.641 165.132 174.747 165.48 174.961C165.829 175.169 166.103 175.487 166.301 175.914C166.499 176.341 166.598 176.885 166.598 177.547V178.086L167.27 177.094H161.215V178.18H167.965V177.648C167.965 176.81 167.816 176.076 167.52 175.445C167.228 174.81 166.806 174.315 166.254 173.961C165.707 173.607 165.051 173.43 164.285 173.43C163.525 173.43 162.861 173.615 162.293 173.984C161.725 174.354 161.285 174.867 160.973 175.523C160.665 176.18 160.512 176.943 160.512 177.812V177.82C160.512 178.701 160.665 179.466 160.973 180.117C161.285 180.763 161.728 181.263 162.301 181.617C162.879 181.971 163.569 182.148 164.371 182.148ZM170.074 184.812H171.434V180.672H171.559C171.715 180.974 171.923 181.234 172.184 181.453C172.449 181.672 172.751 181.844 173.09 181.969C173.434 182.089 173.798 182.148 174.184 182.148C174.897 182.148 175.517 181.969 176.043 181.609C176.574 181.25 176.986 180.745 177.277 180.094C177.569 179.443 177.715 178.677 177.715 177.797V177.781C177.715 176.906 177.569 176.143 177.277 175.492C176.986 174.841 176.574 174.336 176.043 173.977C175.517 173.612 174.897 173.43 174.184 173.43C173.793 173.43 173.431 173.49 173.098 173.609C172.764 173.729 172.467 173.901 172.207 174.125C171.947 174.344 171.73 174.609 171.559 174.922H171.434V173.578H170.074V184.812ZM173.871 180.945C173.361 180.945 172.921 180.818 172.551 180.562C172.181 180.307 171.897 179.945 171.699 179.477C171.501 179.003 171.402 178.443 171.402 177.797V177.781C171.402 177.13 171.501 176.57 171.699 176.102C171.897 175.633 172.181 175.271 172.551 175.016C172.921 174.76 173.361 174.633 173.871 174.633C174.387 174.633 174.827 174.76 175.191 175.016C175.556 175.266 175.835 175.625 176.027 176.094C176.225 176.562 176.324 177.125 176.324 177.781V177.797C176.324 178.448 176.225 179.01 176.027 179.484C175.835 179.953 175.556 180.315 175.191 180.57C174.827 180.82 174.387 180.945 173.871 180.945ZM182.152 182.148C182.533 182.148 182.882 182.096 183.199 181.992C183.517 181.883 183.801 181.724 184.051 181.516C184.306 181.307 184.522 181.055 184.699 180.758H184.824V182H186.184V176.234C186.184 175.651 186.059 175.151 185.809 174.734C185.564 174.312 185.202 173.99 184.723 173.766C184.249 173.542 183.668 173.43 182.98 173.43C182.382 173.43 181.848 173.523 181.379 173.711C180.91 173.893 180.527 174.151 180.23 174.484C179.939 174.812 179.757 175.198 179.684 175.641L179.676 175.688H181.035L181.043 175.664C181.152 175.336 181.368 175.083 181.691 174.906C182.014 174.724 182.428 174.633 182.934 174.633C183.564 174.633 184.035 174.771 184.348 175.047C184.665 175.318 184.824 175.714 184.824 176.234V178.859C184.824 179.26 184.72 179.62 184.512 179.938C184.309 180.255 184.027 180.508 183.668 180.695C183.309 180.878 182.897 180.969 182.434 180.969C181.944 180.969 181.538 180.852 181.215 180.617C180.892 180.378 180.73 180.044 180.73 179.617V179.602C180.73 179.185 180.876 178.862 181.168 178.633C181.465 178.404 181.934 178.271 182.574 178.234L185.504 178.047V176.961L182.41 177.148C181.431 177.206 180.673 177.448 180.137 177.875C179.605 178.297 179.34 178.883 179.34 179.633V179.648C179.34 180.159 179.462 180.602 179.707 180.977C179.957 181.352 180.293 181.641 180.715 181.844C181.142 182.047 181.621 182.148 182.152 182.148ZM188.668 182H190.027V176.781C190.027 176.37 190.121 176.01 190.309 175.703C190.501 175.396 190.764 175.156 191.098 174.984C191.431 174.812 191.814 174.727 192.246 174.727C192.397 174.727 192.538 174.734 192.668 174.75C192.803 174.76 192.941 174.779 193.082 174.805V173.484C193.014 173.474 192.915 173.464 192.785 173.453C192.66 173.438 192.533 173.43 192.402 173.43C191.835 173.43 191.358 173.552 190.973 173.797C190.587 174.042 190.314 174.385 190.152 174.828H190.027V173.578H188.668V182ZM197.91 182.062C198.046 182.062 198.178 182.055 198.309 182.039C198.439 182.023 198.569 182.005 198.699 181.984V180.828C198.574 180.839 198.467 180.846 198.379 180.852C198.296 180.857 198.194 180.859 198.074 180.859C197.637 180.859 197.324 180.753 197.137 180.539C196.949 180.32 196.855 179.964 196.855 179.469V174.703H198.699V173.578H196.855V171.398H195.449V173.578H194.121V174.703H195.449V179.812C195.449 180.615 195.642 181.19 196.027 181.539C196.418 181.888 197.046 182.062 197.91 182.062ZM200.73 182H202.09V176.781C202.09 176.385 202.173 176.026 202.34 175.703C202.512 175.375 202.743 175.115 203.035 174.922C203.332 174.729 203.663 174.633 204.027 174.633C204.559 174.633 204.983 174.784 205.301 175.086C205.618 175.383 205.777 175.781 205.777 176.281V182H207.137V176.586C207.137 176.227 207.217 175.901 207.379 175.609C207.54 175.312 207.767 175.076 208.059 174.898C208.35 174.721 208.691 174.633 209.082 174.633C209.676 174.633 210.116 174.789 210.402 175.102C210.694 175.409 210.84 175.872 210.84 176.492V182H212.199V176.18C212.199 175.591 212.095 175.094 211.887 174.688C211.678 174.276 211.374 173.964 210.973 173.75C210.577 173.536 210.092 173.43 209.52 173.43C209.134 173.43 208.772 173.492 208.434 173.617C208.1 173.737 207.806 173.909 207.551 174.133C207.296 174.352 207.092 174.609 206.941 174.906H206.816C206.686 174.615 206.512 174.359 206.293 174.141C206.074 173.917 205.814 173.742 205.512 173.617C205.21 173.492 204.868 173.43 204.488 173.43C203.936 173.43 203.465 173.555 203.074 173.805C202.689 174.055 202.402 174.406 202.215 174.859H202.09V173.578H200.73V182ZM218.09 182.148C218.585 182.148 219.03 182.086 219.426 181.961C219.827 181.831 220.173 181.659 220.465 181.445C220.757 181.227 220.993 180.984 221.176 180.719C221.363 180.448 221.493 180.169 221.566 179.883L221.582 179.82H220.223L220.191 179.891C220.118 180.057 219.991 180.221 219.809 180.383C219.626 180.544 219.395 180.677 219.113 180.781C218.832 180.885 218.501 180.938 218.121 180.938C217.611 180.938 217.168 180.826 216.793 180.602C216.418 180.372 216.129 180.047 215.926 179.625C215.723 179.198 215.621 178.685 215.621 178.086V177.547C215.621 176.917 215.725 176.385 215.934 175.953C216.142 175.521 216.423 175.195 216.777 174.977C217.137 174.753 217.543 174.641 217.996 174.641C218.449 174.641 218.85 174.747 219.199 174.961C219.548 175.169 219.822 175.487 220.02 175.914C220.217 176.341 220.316 176.885 220.316 177.547V178.086L220.988 177.094H214.934V178.18H221.684V177.648C221.684 176.81 221.535 176.076 221.238 175.445C220.947 174.81 220.525 174.315 219.973 173.961C219.426 173.607 218.77 173.43 218.004 173.43C217.243 173.43 216.579 173.615 216.012 173.984C215.444 174.354 215.004 174.867 214.691 175.523C214.384 176.18 214.23 176.943 214.23 177.812V177.82C214.23 178.701 214.384 179.466 214.691 180.117C215.004 180.763 215.447 181.263 216.02 181.617C216.598 181.971 217.288 182.148 218.09 182.148ZM223.793 182H225.152V177.016C225.152 176.521 225.241 176.096 225.418 175.742C225.6 175.388 225.855 175.115 226.184 174.922C226.512 174.729 226.9 174.633 227.348 174.633C228.02 174.633 228.514 174.818 228.832 175.188C229.155 175.552 229.316 176.115 229.316 176.875V182H230.676V176.547C230.676 175.547 230.421 174.779 229.91 174.242C229.405 173.701 228.678 173.43 227.73 173.43C227.111 173.43 226.6 173.555 226.199 173.805C225.798 174.049 225.491 174.396 225.277 174.844H225.152V173.578H223.793V182ZM236.129 182.062C236.264 182.062 236.397 182.055 236.527 182.039C236.658 182.023 236.788 182.005 236.918 181.984V180.828C236.793 180.839 236.686 180.846 236.598 180.852C236.514 180.857 236.413 180.859 236.293 180.859C235.855 180.859 235.543 180.753 235.355 180.539C235.168 180.32 235.074 179.964 235.074 179.469V174.703H236.918V173.578H235.074V171.398H233.668V173.578H232.34V174.703H233.668V179.812C233.668 180.615 233.861 181.19 234.246 181.539C234.637 181.888 235.264 182.062 236.129 182.062Z" fill="black"/>
</svg>
