<svg width="334" height="316" viewBox="0 0 334 316" fill="none" xmlns="http://www.w3.org/2000/svg">
<rect x="0.5" y="0.5" width="333" height="315" rx="8.5" fill="white" stroke="#0048EA"/>
<path d="M152.217 40V36.76H145.929L141.729 37.168C141.729 35.896 142.473 35.44 144.033 34.96L147.537 34C150.393 33.208 152.265 31.792 152.265 28.936C152.265 25.888 150.297 23.68 145.449 23.68C140.097 23.68 137.961 26.512 137.961 29.632V29.944H141.489V29.632C141.489 27.856 142.377 26.968 145.329 26.968C147.969 26.968 148.641 27.664 148.641 28.888C148.641 29.944 148.113 30.424 146.673 30.928L142.545 32.272C139.161 33.4 137.937 34.864 137.937 37.696V40H152.217ZM162.19 40.24C167.35 40.24 170.23 36.976 170.23 31.96C170.23 26.968 167.35 23.68 162.19 23.68C157.006 23.68 154.15 26.968 154.15 31.96C154.15 36.976 157.006 40.24 162.19 40.24ZM162.19 36.736C159.118 36.736 158.014 35.416 158.014 31.96C158.014 28.504 159.118 27.184 162.19 27.184C165.238 27.184 166.366 28.504 166.366 31.96C166.366 35.416 165.238 36.736 162.19 36.736ZM186.352 40V36.76H180.064L175.864 37.168C175.864 35.896 176.608 35.44 178.168 34.96L181.672 34C184.528 33.208 186.4 31.792 186.4 28.936C186.4 25.888 184.432 23.68 179.584 23.68C174.232 23.68 172.096 26.512 172.096 29.632V29.944H175.624V29.632C175.624 27.856 176.512 26.968 179.464 26.968C182.104 26.968 182.776 27.664 182.776 28.888C182.776 29.944 182.248 30.424 180.808 30.928L176.68 32.272C173.296 33.4 172.072 34.864 172.072 37.696V40H186.352ZM195.653 40V23.92H192.365C191.573 25.504 190.373 25.912 188.597 25.912H187.925V28.384H192.053V40H195.653Z" fill="#0048EA"/>
<path d="M157.501 84V78.832L157.405 76.864H157.565L158.925 78.88L162.877 84H165.437V73.28H163.037V78.448L163.149 80.608H162.973L161.501 78.352L157.661 73.28H155.101V84H157.501ZM176.263 84V81.84H169.591V79.68H176.023V77.536H169.591V75.44H176.263V73.28H167.191V84H176.263ZM180.227 84V73.28H177.827V84H180.227Z" fill="#182022"/>
<path d="M112.798 155.16C116.206 155.16 117.566 153.592 117.566 151.848C117.566 150.376 116.702 149.208 114.302 148.824L111.294 148.344C110.398 148.184 110.046 147.96 110.046 147.336C110.046 146.648 110.574 146.312 112.302 146.312C114.43 146.312 114.958 146.744 114.958 147.768V147.992H117.374V147.896C117.374 145.64 115.838 144.12 112.542 144.12C108.942 144.12 107.63 145.816 107.63 147.432C107.63 149.176 108.766 150.136 110.686 150.44L113.694 150.872C114.798 151.064 115.166 151.304 115.166 151.96C115.166 152.68 114.718 152.968 112.798 152.968C110.622 152.968 110.126 152.568 110.126 151.576V151.288H107.726V151.384C107.726 153.88 109.55 155.16 112.798 155.16ZM121.423 155V150.696H127.023V155H129.423V144.28H127.023V148.536H121.423V144.28H119.023V155H121.423ZM133.59 155V144.28H131.19V155H133.59ZM137.727 155V151H144.159V148.856H137.727V146.44H144.399V144.28H135.327V155H137.727ZM151.868 155V146.44H155.852V144.28H145.484V146.44H149.468V155H151.868ZM162.11 155L163.134 152.632H168.494L169.502 155H172.254L167.534 144.28H164.11L159.422 155H162.11ZM165.07 148.136L165.726 146.472H165.902L166.558 148.136L167.566 150.472H164.062L165.07 148.136ZM175.694 155V152.04H178.894C181.374 152.04 182.974 150.616 182.974 148.152C182.974 145.688 181.374 144.28 178.894 144.28H173.294V155H175.694ZM178.638 146.44C179.966 146.44 180.59 146.84 180.59 148.152C180.59 149.496 179.966 149.88 178.638 149.88H175.694V146.44H178.638ZM186.705 155V152.04H189.905C192.385 152.04 193.985 150.616 193.985 148.152C193.985 145.688 192.385 144.28 189.905 144.28H184.305V155H186.705ZM189.649 146.44C190.977 146.44 191.601 146.84 191.601 148.152C191.601 149.496 190.977 149.88 189.649 149.88H186.705V146.44H189.649ZM204.388 155V152.84H197.716V150.68H204.148V148.536H197.716V146.44H204.388V144.28H195.316V155H204.388ZM208.352 155V149.832L208.256 147.864H208.416L209.776 149.88L213.728 155H216.288V144.28H213.888V149.448L214 151.608H213.824L212.352 149.352L208.512 144.28H205.952V155H208.352ZM222.906 155.16C226.314 155.16 227.674 153.592 227.674 151.848C227.674 150.376 226.81 149.208 224.41 148.824L221.402 148.344C220.506 148.184 220.154 147.96 220.154 147.336C220.154 146.648 220.682 146.312 222.41 146.312C224.538 146.312 225.066 146.744 225.066 147.768V147.992H227.482V147.896C227.482 145.64 225.946 144.12 222.65 144.12C219.05 144.12 217.738 145.816 217.738 147.432C217.738 149.176 218.874 150.136 220.794 150.44L223.802 150.872C224.906 151.064 225.274 151.304 225.274 151.96C225.274 152.68 224.826 152.968 222.906 152.968C220.73 152.968 220.234 152.568 220.234 151.576V151.288H217.834V151.384C217.834 153.88 219.658 155.16 222.906 155.16Z" fill="#182022"/>
<path d="M67.0391 109.266C67.8411 109.266 68.5599 109.125 69.1953 108.844C69.8359 108.562 70.3646 108.169 70.7812 107.664C71.1979 107.154 71.4688 106.555 71.5938 105.867V105.852H70.1719L70.1562 105.867C70.0417 106.299 69.8385 106.674 69.5469 106.992C69.2552 107.305 68.8958 107.547 68.4688 107.719C68.0417 107.885 67.5651 107.969 67.0391 107.969C66.3151 107.969 65.6875 107.781 65.1562 107.406C64.6302 107.031 64.224 106.5 63.9375 105.812C63.651 105.125 63.5078 104.312 63.5078 103.375V103.359C63.5078 102.417 63.651 101.602 63.9375 100.914C64.224 100.227 64.6302 99.6953 65.1562 99.3203C65.6875 98.9453 66.3125 98.7578 67.0312 98.7578C67.5521 98.7578 68.0234 98.8542 68.4453 99.0469C68.8724 99.2396 69.2344 99.513 69.5312 99.8672C69.8281 100.216 70.0391 100.633 70.1641 101.117L70.1719 101.133H71.5859L71.5938 101.117C71.4844 100.398 71.2188 99.7656 70.7969 99.2188C70.375 98.6667 69.8385 98.237 69.1875 97.9297C68.5417 97.6172 67.8229 97.4609 67.0312 97.4609C66.0104 97.4609 65.1276 97.7005 64.3828 98.1797C63.6432 98.6589 63.0703 99.3385 62.6641 100.219C62.263 101.099 62.0625 102.146 62.0625 103.359V103.375C62.0625 104.583 62.263 105.628 62.6641 106.508C63.0703 107.388 63.6458 108.068 64.3906 108.547C65.1354 109.026 66.0182 109.266 67.0391 109.266ZM77.2422 109.148C78.0443 109.148 78.7344 108.974 79.3125 108.625C79.8906 108.271 80.3359 107.768 80.6484 107.117C80.9661 106.466 81.125 105.693 81.125 104.797V104.781C81.125 103.88 80.9661 103.104 80.6484 102.453C80.3359 101.802 79.8906 101.302 79.3125 100.953C78.7344 100.604 78.0443 100.43 77.2422 100.43C76.4453 100.43 75.7552 100.604 75.1719 100.953C74.5938 101.302 74.1458 101.802 73.8281 102.453C73.5156 103.104 73.3594 103.88 73.3594 104.781V104.797C73.3594 105.693 73.5156 106.466 73.8281 107.117C74.1458 107.768 74.5938 108.271 75.1719 108.625C75.7552 108.974 76.4453 109.148 77.2422 109.148ZM77.2422 107.945C76.7109 107.945 76.2604 107.82 75.8906 107.57C75.5208 107.32 75.237 106.961 75.0391 106.492C74.8464 106.023 74.75 105.458 74.75 104.797V104.781C74.75 104.115 74.8464 103.547 75.0391 103.078C75.237 102.609 75.5208 102.253 75.8906 102.008C76.2604 101.758 76.7109 101.633 77.2422 101.633C77.7734 101.633 78.224 101.758 78.5938 102.008C78.9635 102.253 79.2448 102.609 79.4375 103.078C79.6354 103.547 79.7344 104.115 79.7344 104.781V104.797C79.7344 105.458 79.6354 106.023 79.4375 106.492C79.2448 106.961 78.9635 107.32 78.5938 107.57C78.224 107.82 77.7734 107.945 77.2422 107.945ZM83.2344 109H84.5938V103.781C84.5938 103.385 84.6771 103.026 84.8438 102.703C85.0156 102.375 85.2474 102.115 85.5391 101.922C85.8359 101.729 86.1667 101.633 86.5312 101.633C87.0625 101.633 87.487 101.784 87.8047 102.086C88.1224 102.383 88.2812 102.781 88.2812 103.281V109H89.6406V103.586C89.6406 103.227 89.7214 102.901 89.8828 102.609C90.0443 102.312 90.2708 102.076 90.5625 101.898C90.8542 101.721 91.1953 101.633 91.5859 101.633C92.1797 101.633 92.6198 101.789 92.9062 102.102C93.1979 102.409 93.3438 102.872 93.3438 103.492V109H94.7031V103.18C94.7031 102.591 94.599 102.094 94.3906 101.688C94.1823 101.276 93.8776 100.964 93.4766 100.75C93.0807 100.536 92.5964 100.43 92.0234 100.43C91.638 100.43 91.276 100.492 90.9375 100.617C90.6042 100.737 90.3099 100.909 90.0547 101.133C89.7995 101.352 89.5964 101.609 89.4453 101.906H89.3203C89.1901 101.615 89.0156 101.359 88.7969 101.141C88.5781 100.917 88.3177 100.742 88.0156 100.617C87.7135 100.492 87.3724 100.43 86.9922 100.43C86.4401 100.43 85.9688 100.555 85.5781 100.805C85.1927 101.055 84.9062 101.406 84.7188 101.859H84.5938V100.578H83.2344V109ZM97.1562 109H98.5156V103.781C98.5156 103.385 98.599 103.026 98.7656 102.703C98.9375 102.375 99.1693 102.115 99.4609 101.922C99.7578 101.729 100.089 101.633 100.453 101.633C100.984 101.633 101.409 101.784 101.727 102.086C102.044 102.383 102.203 102.781 102.203 103.281V109H103.562V103.586C103.562 103.227 103.643 102.901 103.805 102.609C103.966 102.312 104.193 102.076 104.484 101.898C104.776 101.721 105.117 101.633 105.508 101.633C106.102 101.633 106.542 101.789 106.828 102.102C107.12 102.409 107.266 102.872 107.266 103.492V109H108.625V103.18C108.625 102.591 108.521 102.094 108.312 101.688C108.104 101.276 107.799 100.964 107.398 100.75C107.003 100.536 106.518 100.43 105.945 100.43C105.56 100.43 105.198 100.492 104.859 100.617C104.526 100.737 104.232 100.909 103.977 101.133C103.721 101.352 103.518 101.609 103.367 101.906H103.242C103.112 101.615 102.938 101.359 102.719 101.141C102.5 100.917 102.24 100.742 101.938 100.617C101.635 100.492 101.294 100.43 100.914 100.43C100.362 100.43 99.8906 100.555 99.5 100.805C99.1146 101.055 98.8281 101.406 98.6406 101.859H98.5156V100.578H97.1562V109ZM113.898 109.148C114.518 109.148 115.036 109.026 115.453 108.781C115.875 108.536 116.19 108.19 116.398 107.742H116.523V109H117.883V100.578H116.523V105.562C116.523 106.052 116.438 106.477 116.266 106.836C116.094 107.19 115.839 107.464 115.5 107.656C115.161 107.849 114.745 107.945 114.25 107.945C113.578 107.945 113.094 107.76 112.797 107.391C112.505 107.021 112.359 106.458 112.359 105.703V100.578H111V106.031C111 106.693 111.107 107.258 111.32 107.727C111.539 108.19 111.865 108.544 112.297 108.789C112.729 109.029 113.263 109.148 113.898 109.148ZM120.422 109H121.781V104.016C121.781 103.521 121.87 103.096 122.047 102.742C122.229 102.388 122.484 102.115 122.812 101.922C123.141 101.729 123.529 101.633 123.977 101.633C124.648 101.633 125.143 101.818 125.461 102.188C125.784 102.552 125.945 103.115 125.945 103.875V109H127.305V103.547C127.305 102.547 127.049 101.779 126.539 101.242C126.034 100.701 125.307 100.43 124.359 100.43C123.74 100.43 123.229 100.555 122.828 100.805C122.427 101.049 122.12 101.396 121.906 101.844H121.781V100.578H120.422V109ZM129.797 109H131.156V100.578H129.797V109ZM130.484 98.9531C130.745 98.9531 130.966 98.862 131.148 98.6797C131.331 98.4922 131.422 98.2708 131.422 98.0156C131.422 97.7552 131.331 97.5339 131.148 97.3516C130.966 97.1693 130.745 97.0781 130.484 97.0781C130.229 97.0781 130.008 97.1693 129.82 97.3516C129.638 97.5339 129.547 97.7552 129.547 98.0156C129.547 98.2708 129.638 98.4922 129.82 98.6797C130.008 98.862 130.229 98.9531 130.484 98.9531ZM137.164 109.148C137.841 109.148 138.419 109.036 138.898 108.812C139.378 108.589 139.763 108.281 140.055 107.891C140.346 107.495 140.549 107.044 140.664 106.539L140.68 106.453L139.336 106.461L139.32 106.508C139.164 106.977 138.906 107.333 138.547 107.578C138.188 107.823 137.724 107.945 137.156 107.945C136.656 107.945 136.221 107.815 135.852 107.555C135.482 107.294 135.195 106.927 134.992 106.453C134.789 105.974 134.688 105.411 134.688 104.766V104.75C134.688 104.115 134.786 103.565 134.984 103.102C135.188 102.633 135.474 102.271 135.844 102.016C136.214 101.76 136.651 101.633 137.156 101.633C137.76 101.633 138.247 101.779 138.617 102.07C138.987 102.362 139.224 102.716 139.328 103.133L139.336 103.156H140.688L140.68 103.109C140.596 102.609 140.406 102.159 140.109 101.758C139.812 101.352 139.417 101.029 138.922 100.789C138.427 100.549 137.839 100.43 137.156 100.43C136.37 100.43 135.688 100.609 135.109 100.969C134.531 101.323 134.083 101.823 133.766 102.469C133.453 103.115 133.297 103.875 133.297 104.75V104.766C133.297 105.656 133.456 106.43 133.773 107.086C134.091 107.742 134.539 108.25 135.117 108.609C135.695 108.969 136.378 109.148 137.164 109.148ZM144.984 109.148C145.365 109.148 145.714 109.096 146.031 108.992C146.349 108.883 146.633 108.724 146.883 108.516C147.138 108.307 147.354 108.055 147.531 107.758H147.656V109H149.016V103.234C149.016 102.651 148.891 102.151 148.641 101.734C148.396 101.312 148.034 100.99 147.555 100.766C147.081 100.542 146.5 100.43 145.812 100.43C145.214 100.43 144.68 100.523 144.211 100.711C143.742 100.893 143.359 101.151 143.062 101.484C142.771 101.812 142.589 102.198 142.516 102.641L142.508 102.688H143.867L143.875 102.664C143.984 102.336 144.201 102.083 144.523 101.906C144.846 101.724 145.26 101.633 145.766 101.633C146.396 101.633 146.867 101.771 147.18 102.047C147.497 102.318 147.656 102.714 147.656 103.234V105.859C147.656 106.26 147.552 106.62 147.344 106.938C147.141 107.255 146.859 107.508 146.5 107.695C146.141 107.878 145.729 107.969 145.266 107.969C144.776 107.969 144.37 107.852 144.047 107.617C143.724 107.378 143.562 107.044 143.562 106.617V106.602C143.562 106.185 143.708 105.862 144 105.633C144.297 105.404 144.766 105.271 145.406 105.234L148.336 105.047V103.961L145.242 104.148C144.263 104.206 143.505 104.448 142.969 104.875C142.438 105.297 142.172 105.883 142.172 106.633V106.648C142.172 107.159 142.294 107.602 142.539 107.977C142.789 108.352 143.125 108.641 143.547 108.844C143.974 109.047 144.453 109.148 144.984 109.148ZM154.492 109.062C154.628 109.062 154.76 109.055 154.891 109.039C155.021 109.023 155.151 109.005 155.281 108.984V107.828C155.156 107.839 155.049 107.846 154.961 107.852C154.878 107.857 154.776 107.859 154.656 107.859C154.219 107.859 153.906 107.753 153.719 107.539C153.531 107.32 153.438 106.964 153.438 106.469V101.703H155.281V100.578H153.438V98.3984H152.031V100.578H150.703V101.703H152.031V106.812C152.031 107.615 152.224 108.19 152.609 108.539C153 108.888 153.628 109.062 154.492 109.062ZM157.344 109H158.703V100.578H157.344V109ZM158.031 98.9531C158.292 98.9531 158.513 98.862 158.695 98.6797C158.878 98.4922 158.969 98.2708 158.969 98.0156C158.969 97.7552 158.878 97.5339 158.695 97.3516C158.513 97.1693 158.292 97.0781 158.031 97.0781C157.776 97.0781 157.555 97.1693 157.367 97.3516C157.185 97.5339 157.094 97.7552 157.094 98.0156C157.094 98.2708 157.185 98.4922 157.367 98.6797C157.555 98.862 157.776 98.9531 158.031 98.9531ZM164.727 109.148C165.529 109.148 166.219 108.974 166.797 108.625C167.375 108.271 167.82 107.768 168.133 107.117C168.451 106.466 168.609 105.693 168.609 104.797V104.781C168.609 103.88 168.451 103.104 168.133 102.453C167.82 101.802 167.375 101.302 166.797 100.953C166.219 100.604 165.529 100.43 164.727 100.43C163.93 100.43 163.24 100.604 162.656 100.953C162.078 101.302 161.63 101.802 161.312 102.453C161 103.104 160.844 103.88 160.844 104.781V104.797C160.844 105.693 161 106.466 161.312 107.117C161.63 107.768 162.078 108.271 162.656 108.625C163.24 108.974 163.93 109.148 164.727 109.148ZM164.727 107.945C164.195 107.945 163.745 107.82 163.375 107.57C163.005 107.32 162.721 106.961 162.523 106.492C162.331 106.023 162.234 105.458 162.234 104.797V104.781C162.234 104.115 162.331 103.547 162.523 103.078C162.721 102.609 163.005 102.253 163.375 102.008C163.745 101.758 164.195 101.633 164.727 101.633C165.258 101.633 165.708 101.758 166.078 102.008C166.448 102.253 166.729 102.609 166.922 103.078C167.12 103.547 167.219 104.115 167.219 104.781V104.797C167.219 105.458 167.12 106.023 166.922 106.492C166.729 106.961 166.448 107.32 166.078 107.57C165.708 107.82 165.258 107.945 164.727 107.945ZM170.719 109H172.078V104.016C172.078 103.521 172.167 103.096 172.344 102.742C172.526 102.388 172.781 102.115 173.109 101.922C173.438 101.729 173.826 101.633 174.273 101.633C174.945 101.633 175.44 101.818 175.758 102.188C176.081 102.552 176.242 103.115 176.242 103.875V109H177.602V103.547C177.602 102.547 177.346 101.779 176.836 101.242C176.331 100.701 175.604 100.43 174.656 100.43C174.036 100.43 173.526 100.555 173.125 100.805C172.724 101.049 172.417 101.396 172.203 101.844H172.078V100.578H170.719V109ZM184.734 109H188.602C189.721 109 190.677 108.779 191.469 108.336C192.26 107.888 192.867 107.245 193.289 106.406C193.711 105.562 193.922 104.549 193.922 103.367V103.352C193.922 102.169 193.711 101.159 193.289 100.32C192.867 99.4818 192.258 98.8411 191.461 98.3984C190.669 97.9505 189.716 97.7266 188.602 97.7266H184.734V109ZM186.141 107.734V98.9922H188.508C189.341 98.9922 190.055 99.1667 190.648 99.5156C191.242 99.8594 191.695 100.359 192.008 101.016C192.326 101.667 192.484 102.451 192.484 103.367V103.383C192.484 104.294 192.328 105.076 192.016 105.727C191.703 106.378 191.25 106.875 190.656 107.219C190.062 107.562 189.346 107.734 188.508 107.734H186.141ZM199.625 109.148C200.12 109.148 200.565 109.086 200.961 108.961C201.362 108.831 201.708 108.659 202 108.445C202.292 108.227 202.529 107.984 202.711 107.719C202.898 107.448 203.029 107.169 203.102 106.883L203.117 106.82H201.758L201.727 106.891C201.654 107.057 201.526 107.221 201.344 107.383C201.161 107.544 200.93 107.677 200.648 107.781C200.367 107.885 200.036 107.938 199.656 107.938C199.146 107.938 198.703 107.826 198.328 107.602C197.953 107.372 197.664 107.047 197.461 106.625C197.258 106.198 197.156 105.685 197.156 105.086V104.547C197.156 103.917 197.26 103.385 197.469 102.953C197.677 102.521 197.958 102.195 198.312 101.977C198.672 101.753 199.078 101.641 199.531 101.641C199.984 101.641 200.385 101.747 200.734 101.961C201.083 102.169 201.357 102.487 201.555 102.914C201.753 103.341 201.852 103.885 201.852 104.547V105.086L202.523 104.094H196.469V105.18H203.219V104.648C203.219 103.81 203.07 103.076 202.773 102.445C202.482 101.81 202.06 101.315 201.508 100.961C200.961 100.607 200.305 100.43 199.539 100.43C198.779 100.43 198.115 100.615 197.547 100.984C196.979 101.354 196.539 101.867 196.227 102.523C195.919 103.18 195.766 103.943 195.766 104.812V104.82C195.766 105.701 195.919 106.466 196.227 107.117C196.539 107.763 196.982 108.263 197.555 108.617C198.133 108.971 198.823 109.148 199.625 109.148ZM205.328 111.812H206.688V107.672H206.812C206.969 107.974 207.177 108.234 207.438 108.453C207.703 108.672 208.005 108.844 208.344 108.969C208.688 109.089 209.052 109.148 209.438 109.148C210.151 109.148 210.771 108.969 211.297 108.609C211.828 108.25 212.24 107.745 212.531 107.094C212.823 106.443 212.969 105.677 212.969 104.797V104.781C212.969 103.906 212.823 103.143 212.531 102.492C212.24 101.841 211.828 101.336 211.297 100.977C210.771 100.612 210.151 100.43 209.438 100.43C209.047 100.43 208.685 100.49 208.352 100.609C208.018 100.729 207.721 100.901 207.461 101.125C207.201 101.344 206.984 101.609 206.812 101.922H206.688V100.578H205.328V111.812ZM209.125 107.945C208.615 107.945 208.174 107.818 207.805 107.562C207.435 107.307 207.151 106.945 206.953 106.477C206.755 106.003 206.656 105.443 206.656 104.797V104.781C206.656 104.13 206.755 103.57 206.953 103.102C207.151 102.633 207.435 102.271 207.805 102.016C208.174 101.76 208.615 101.633 209.125 101.633C209.641 101.633 210.081 101.76 210.445 102.016C210.81 102.266 211.089 102.625 211.281 103.094C211.479 103.562 211.578 104.125 211.578 104.781V104.797C211.578 105.448 211.479 106.01 211.281 106.484C211.089 106.953 210.81 107.315 210.445 107.57C210.081 107.82 209.641 107.945 209.125 107.945ZM217.406 109.148C217.786 109.148 218.135 109.096 218.453 108.992C218.771 108.883 219.055 108.724 219.305 108.516C219.56 108.307 219.776 108.055 219.953 107.758H220.078V109H221.438V103.234C221.438 102.651 221.312 102.151 221.062 101.734C220.818 101.312 220.456 100.99 219.977 100.766C219.503 100.542 218.922 100.43 218.234 100.43C217.635 100.43 217.102 100.523 216.633 100.711C216.164 100.893 215.781 101.151 215.484 101.484C215.193 101.812 215.01 102.198 214.938 102.641L214.93 102.688H216.289L216.297 102.664C216.406 102.336 216.622 102.083 216.945 101.906C217.268 101.724 217.682 101.633 218.188 101.633C218.818 101.633 219.289 101.771 219.602 102.047C219.919 102.318 220.078 102.714 220.078 103.234V105.859C220.078 106.26 219.974 106.62 219.766 106.938C219.562 107.255 219.281 107.508 218.922 107.695C218.562 107.878 218.151 107.969 217.688 107.969C217.198 107.969 216.792 107.852 216.469 107.617C216.146 107.378 215.984 107.044 215.984 106.617V106.602C215.984 106.185 216.13 105.862 216.422 105.633C216.719 105.404 217.188 105.271 217.828 105.234L220.758 105.047V103.961L217.664 104.148C216.685 104.206 215.927 104.448 215.391 104.875C214.859 105.297 214.594 105.883 214.594 106.633V106.648C214.594 107.159 214.716 107.602 214.961 107.977C215.211 108.352 215.547 108.641 215.969 108.844C216.396 109.047 216.875 109.148 217.406 109.148ZM223.922 109H225.281V103.781C225.281 103.37 225.375 103.01 225.562 102.703C225.755 102.396 226.018 102.156 226.352 101.984C226.685 101.812 227.068 101.727 227.5 101.727C227.651 101.727 227.792 101.734 227.922 101.75C228.057 101.76 228.195 101.779 228.336 101.805V100.484C228.268 100.474 228.169 100.464 228.039 100.453C227.914 100.438 227.786 100.43 227.656 100.43C227.089 100.43 226.612 100.552 226.227 100.797C225.841 101.042 225.568 101.385 225.406 101.828H225.281V100.578H223.922V109ZM233.164 109.062C233.299 109.062 233.432 109.055 233.562 109.039C233.693 109.023 233.823 109.005 233.953 108.984V107.828C233.828 107.839 233.721 107.846 233.633 107.852C233.549 107.857 233.448 107.859 233.328 107.859C232.891 107.859 232.578 107.753 232.391 107.539C232.203 107.32 232.109 106.964 232.109 106.469V101.703H233.953V100.578H232.109V98.3984H230.703V100.578H229.375V101.703H230.703V106.812C230.703 107.615 230.896 108.19 231.281 108.539C231.672 108.888 232.299 109.062 233.164 109.062ZM235.984 109H237.344V103.781C237.344 103.385 237.427 103.026 237.594 102.703C237.766 102.375 237.997 102.115 238.289 101.922C238.586 101.729 238.917 101.633 239.281 101.633C239.812 101.633 240.237 101.784 240.555 102.086C240.872 102.383 241.031 102.781 241.031 103.281V109H242.391V103.586C242.391 103.227 242.471 102.901 242.633 102.609C242.794 102.312 243.021 102.076 243.312 101.898C243.604 101.721 243.945 101.633 244.336 101.633C244.93 101.633 245.37 101.789 245.656 102.102C245.948 102.409 246.094 102.872 246.094 103.492V109H247.453V103.18C247.453 102.591 247.349 102.094 247.141 101.688C246.932 101.276 246.628 100.964 246.227 100.75C245.831 100.536 245.346 100.43 244.773 100.43C244.388 100.43 244.026 100.492 243.688 100.617C243.354 100.737 243.06 100.909 242.805 101.133C242.549 101.352 242.346 101.609 242.195 101.906H242.07C241.94 101.615 241.766 101.359 241.547 101.141C241.328 100.917 241.068 100.742 240.766 100.617C240.464 100.492 240.122 100.43 239.742 100.43C239.19 100.43 238.719 100.555 238.328 100.805C237.943 101.055 237.656 101.406 237.469 101.859H237.344V100.578H235.984V109ZM253.344 109.148C253.839 109.148 254.284 109.086 254.68 108.961C255.081 108.831 255.427 108.659 255.719 108.445C256.01 108.227 256.247 107.984 256.43 107.719C256.617 107.448 256.747 107.169 256.82 106.883L256.836 106.82H255.477L255.445 106.891C255.372 107.057 255.245 107.221 255.062 107.383C254.88 107.544 254.648 107.677 254.367 107.781C254.086 107.885 253.755 107.938 253.375 107.938C252.865 107.938 252.422 107.826 252.047 107.602C251.672 107.372 251.383 107.047 251.18 106.625C250.977 106.198 250.875 105.685 250.875 105.086V104.547C250.875 103.917 250.979 103.385 251.188 102.953C251.396 102.521 251.677 102.195 252.031 101.977C252.391 101.753 252.797 101.641 253.25 101.641C253.703 101.641 254.104 101.747 254.453 101.961C254.802 102.169 255.076 102.487 255.273 102.914C255.471 103.341 255.57 103.885 255.57 104.547V105.086L256.242 104.094H250.188V105.18H256.938V104.648C256.938 103.81 256.789 103.076 256.492 102.445C256.201 101.81 255.779 101.315 255.227 100.961C254.68 100.607 254.023 100.43 253.258 100.43C252.497 100.43 251.833 100.615 251.266 100.984C250.698 101.354 250.258 101.867 249.945 102.523C249.638 103.18 249.484 103.943 249.484 104.812V104.82C249.484 105.701 249.638 106.466 249.945 107.117C250.258 107.763 250.701 108.263 251.273 108.617C251.852 108.971 252.542 109.148 253.344 109.148ZM259.047 109H260.406V104.016C260.406 103.521 260.495 103.096 260.672 102.742C260.854 102.388 261.109 102.115 261.438 101.922C261.766 101.729 262.154 101.633 262.602 101.633C263.273 101.633 263.768 101.818 264.086 102.188C264.409 102.552 264.57 103.115 264.57 103.875V109H265.93V103.547C265.93 102.547 265.674 101.779 265.164 101.242C264.659 100.701 263.932 100.43 262.984 100.43C262.365 100.43 261.854 100.555 261.453 100.805C261.052 101.049 260.745 101.396 260.531 101.844H260.406V100.578H259.047V109ZM271.383 109.062C271.518 109.062 271.651 109.055 271.781 109.039C271.911 109.023 272.042 109.005 272.172 108.984V107.828C272.047 107.839 271.94 107.846 271.852 107.852C271.768 107.857 271.667 107.859 271.547 107.859C271.109 107.859 270.797 107.753 270.609 107.539C270.422 107.32 270.328 106.964 270.328 106.469V101.703H272.172V100.578H270.328V98.3984H268.922V100.578H267.594V101.703H268.922V106.812C268.922 107.615 269.115 108.19 269.5 108.539C269.891 108.888 270.518 109.062 271.383 109.062Z" fill="black"/>
<path d="M67.0391 180.266C67.8411 180.266 68.5599 180.125 69.1953 179.844C69.8359 179.562 70.3646 179.169 70.7812 178.664C71.1979 178.154 71.4688 177.555 71.5938 176.867V176.852H70.1719L70.1562 176.867C70.0417 177.299 69.8385 177.674 69.5469 177.992C69.2552 178.305 68.8958 178.547 68.4688 178.719C68.0417 178.885 67.5651 178.969 67.0391 178.969C66.3151 178.969 65.6875 178.781 65.1562 178.406C64.6302 178.031 64.224 177.5 63.9375 176.812C63.651 176.125 63.5078 175.312 63.5078 174.375V174.359C63.5078 173.417 63.651 172.602 63.9375 171.914C64.224 171.227 64.6302 170.695 65.1562 170.32C65.6875 169.945 66.3125 169.758 67.0312 169.758C67.5521 169.758 68.0234 169.854 68.4453 170.047C68.8724 170.24 69.2344 170.513 69.5312 170.867C69.8281 171.216 70.0391 171.633 70.1641 172.117L70.1719 172.133H71.5859L71.5938 172.117C71.4844 171.398 71.2188 170.766 70.7969 170.219C70.375 169.667 69.8385 169.237 69.1875 168.93C68.5417 168.617 67.8229 168.461 67.0312 168.461C66.0104 168.461 65.1276 168.701 64.3828 169.18C63.6432 169.659 63.0703 170.339 62.6641 171.219C62.263 172.099 62.0625 173.146 62.0625 174.359V174.375C62.0625 175.583 62.263 176.628 62.6641 177.508C63.0703 178.388 63.6458 179.068 64.3906 179.547C65.1354 180.026 66.0182 180.266 67.0391 180.266ZM77.2422 180.148C78.0443 180.148 78.7344 179.974 79.3125 179.625C79.8906 179.271 80.3359 178.768 80.6484 178.117C80.9661 177.466 81.125 176.693 81.125 175.797V175.781C81.125 174.88 80.9661 174.104 80.6484 173.453C80.3359 172.802 79.8906 172.302 79.3125 171.953C78.7344 171.604 78.0443 171.43 77.2422 171.43C76.4453 171.43 75.7552 171.604 75.1719 171.953C74.5938 172.302 74.1458 172.802 73.8281 173.453C73.5156 174.104 73.3594 174.88 73.3594 175.781V175.797C73.3594 176.693 73.5156 177.466 73.8281 178.117C74.1458 178.768 74.5938 179.271 75.1719 179.625C75.7552 179.974 76.4453 180.148 77.2422 180.148ZM77.2422 178.945C76.7109 178.945 76.2604 178.82 75.8906 178.57C75.5208 178.32 75.237 177.961 75.0391 177.492C74.8464 177.023 74.75 176.458 74.75 175.797V175.781C74.75 175.115 74.8464 174.547 75.0391 174.078C75.237 173.609 75.5208 173.253 75.8906 173.008C76.2604 172.758 76.7109 172.633 77.2422 172.633C77.7734 172.633 78.224 172.758 78.5938 173.008C78.9635 173.253 79.2448 173.609 79.4375 174.078C79.6354 174.547 79.7344 175.115 79.7344 175.781V175.797C79.7344 176.458 79.6354 177.023 79.4375 177.492C79.2448 177.961 78.9635 178.32 78.5938 178.57C78.224 178.82 77.7734 178.945 77.2422 178.945ZM83.2344 180H84.5938V174.781C84.5938 174.385 84.6771 174.026 84.8438 173.703C85.0156 173.375 85.2474 173.115 85.5391 172.922C85.8359 172.729 86.1667 172.633 86.5312 172.633C87.0625 172.633 87.487 172.784 87.8047 173.086C88.1224 173.383 88.2812 173.781 88.2812 174.281V180H89.6406V174.586C89.6406 174.227 89.7214 173.901 89.8828 173.609C90.0443 173.312 90.2708 173.076 90.5625 172.898C90.8542 172.721 91.1953 172.633 91.5859 172.633C92.1797 172.633 92.6198 172.789 92.9062 173.102C93.1979 173.409 93.3438 173.872 93.3438 174.492V180H94.7031V174.18C94.7031 173.591 94.599 173.094 94.3906 172.688C94.1823 172.276 93.8776 171.964 93.4766 171.75C93.0807 171.536 92.5964 171.43 92.0234 171.43C91.638 171.43 91.276 171.492 90.9375 171.617C90.6042 171.737 90.3099 171.909 90.0547 172.133C89.7995 172.352 89.5964 172.609 89.4453 172.906H89.3203C89.1901 172.615 89.0156 172.359 88.7969 172.141C88.5781 171.917 88.3177 171.742 88.0156 171.617C87.7135 171.492 87.3724 171.43 86.9922 171.43C86.4401 171.43 85.9688 171.555 85.5781 171.805C85.1927 172.055 84.9062 172.406 84.7188 172.859H84.5938V171.578H83.2344V180ZM97.1562 180H98.5156V174.781C98.5156 174.385 98.599 174.026 98.7656 173.703C98.9375 173.375 99.1693 173.115 99.4609 172.922C99.7578 172.729 100.089 172.633 100.453 172.633C100.984 172.633 101.409 172.784 101.727 173.086C102.044 173.383 102.203 173.781 102.203 174.281V180H103.562V174.586C103.562 174.227 103.643 173.901 103.805 173.609C103.966 173.312 104.193 173.076 104.484 172.898C104.776 172.721 105.117 172.633 105.508 172.633C106.102 172.633 106.542 172.789 106.828 173.102C107.12 173.409 107.266 173.872 107.266 174.492V180H108.625V174.18C108.625 173.591 108.521 173.094 108.312 172.688C108.104 172.276 107.799 171.964 107.398 171.75C107.003 171.536 106.518 171.43 105.945 171.43C105.56 171.43 105.198 171.492 104.859 171.617C104.526 171.737 104.232 171.909 103.977 172.133C103.721 172.352 103.518 172.609 103.367 172.906H103.242C103.112 172.615 102.938 172.359 102.719 172.141C102.5 171.917 102.24 171.742 101.938 171.617C101.635 171.492 101.294 171.43 100.914 171.43C100.362 171.43 99.8906 171.555 99.5 171.805C99.1146 172.055 98.8281 172.406 98.6406 172.859H98.5156V171.578H97.1562V180ZM113.898 180.148C114.518 180.148 115.036 180.026 115.453 179.781C115.875 179.536 116.19 179.19 116.398 178.742H116.523V180H117.883V171.578H116.523V176.562C116.523 177.052 116.438 177.477 116.266 177.836C116.094 178.19 115.839 178.464 115.5 178.656C115.161 178.849 114.745 178.945 114.25 178.945C113.578 178.945 113.094 178.76 112.797 178.391C112.505 178.021 112.359 177.458 112.359 176.703V171.578H111V177.031C111 177.693 111.107 178.258 111.32 178.727C111.539 179.19 111.865 179.544 112.297 179.789C112.729 180.029 113.263 180.148 113.898 180.148ZM120.422 180H121.781V175.016C121.781 174.521 121.87 174.096 122.047 173.742C122.229 173.388 122.484 173.115 122.812 172.922C123.141 172.729 123.529 172.633 123.977 172.633C124.648 172.633 125.143 172.818 125.461 173.188C125.784 173.552 125.945 174.115 125.945 174.875V180H127.305V174.547C127.305 173.547 127.049 172.779 126.539 172.242C126.034 171.701 125.307 171.43 124.359 171.43C123.74 171.43 123.229 171.555 122.828 171.805C122.427 172.049 122.12 172.396 121.906 172.844H121.781V171.578H120.422V180ZM129.797 180H131.156V171.578H129.797V180ZM130.484 169.953C130.745 169.953 130.966 169.862 131.148 169.68C131.331 169.492 131.422 169.271 131.422 169.016C131.422 168.755 131.331 168.534 131.148 168.352C130.966 168.169 130.745 168.078 130.484 168.078C130.229 168.078 130.008 168.169 129.82 168.352C129.638 168.534 129.547 168.755 129.547 169.016C129.547 169.271 129.638 169.492 129.82 169.68C130.008 169.862 130.229 169.953 130.484 169.953ZM137.164 180.148C137.841 180.148 138.419 180.036 138.898 179.812C139.378 179.589 139.763 179.281 140.055 178.891C140.346 178.495 140.549 178.044 140.664 177.539L140.68 177.453L139.336 177.461L139.32 177.508C139.164 177.977 138.906 178.333 138.547 178.578C138.188 178.823 137.724 178.945 137.156 178.945C136.656 178.945 136.221 178.815 135.852 178.555C135.482 178.294 135.195 177.927 134.992 177.453C134.789 176.974 134.688 176.411 134.688 175.766V175.75C134.688 175.115 134.786 174.565 134.984 174.102C135.188 173.633 135.474 173.271 135.844 173.016C136.214 172.76 136.651 172.633 137.156 172.633C137.76 172.633 138.247 172.779 138.617 173.07C138.987 173.362 139.224 173.716 139.328 174.133L139.336 174.156H140.688L140.68 174.109C140.596 173.609 140.406 173.159 140.109 172.758C139.812 172.352 139.417 172.029 138.922 171.789C138.427 171.549 137.839 171.43 137.156 171.43C136.37 171.43 135.688 171.609 135.109 171.969C134.531 172.323 134.083 172.823 133.766 173.469C133.453 174.115 133.297 174.875 133.297 175.75V175.766C133.297 176.656 133.456 177.43 133.773 178.086C134.091 178.742 134.539 179.25 135.117 179.609C135.695 179.969 136.378 180.148 137.164 180.148ZM144.984 180.148C145.365 180.148 145.714 180.096 146.031 179.992C146.349 179.883 146.633 179.724 146.883 179.516C147.138 179.307 147.354 179.055 147.531 178.758H147.656V180H149.016V174.234C149.016 173.651 148.891 173.151 148.641 172.734C148.396 172.312 148.034 171.99 147.555 171.766C147.081 171.542 146.5 171.43 145.812 171.43C145.214 171.43 144.68 171.523 144.211 171.711C143.742 171.893 143.359 172.151 143.062 172.484C142.771 172.812 142.589 173.198 142.516 173.641L142.508 173.688H143.867L143.875 173.664C143.984 173.336 144.201 173.083 144.523 172.906C144.846 172.724 145.26 172.633 145.766 172.633C146.396 172.633 146.867 172.771 147.18 173.047C147.497 173.318 147.656 173.714 147.656 174.234V176.859C147.656 177.26 147.552 177.62 147.344 177.938C147.141 178.255 146.859 178.508 146.5 178.695C146.141 178.878 145.729 178.969 145.266 178.969C144.776 178.969 144.37 178.852 144.047 178.617C143.724 178.378 143.562 178.044 143.562 177.617V177.602C143.562 177.185 143.708 176.862 144 176.633C144.297 176.404 144.766 176.271 145.406 176.234L148.336 176.047V174.961L145.242 175.148C144.263 175.206 143.505 175.448 142.969 175.875C142.438 176.297 142.172 176.883 142.172 177.633V177.648C142.172 178.159 142.294 178.602 142.539 178.977C142.789 179.352 143.125 179.641 143.547 179.844C143.974 180.047 144.453 180.148 144.984 180.148ZM154.492 180.062C154.628 180.062 154.76 180.055 154.891 180.039C155.021 180.023 155.151 180.005 155.281 179.984V178.828C155.156 178.839 155.049 178.846 154.961 178.852C154.878 178.857 154.776 178.859 154.656 178.859C154.219 178.859 153.906 178.753 153.719 178.539C153.531 178.32 153.438 177.964 153.438 177.469V172.703H155.281V171.578H153.438V169.398H152.031V171.578H150.703V172.703H152.031V177.812C152.031 178.615 152.224 179.19 152.609 179.539C153 179.888 153.628 180.062 154.492 180.062ZM157.344 180H158.703V171.578H157.344V180ZM158.031 169.953C158.292 169.953 158.513 169.862 158.695 169.68C158.878 169.492 158.969 169.271 158.969 169.016C158.969 168.755 158.878 168.534 158.695 168.352C158.513 168.169 158.292 168.078 158.031 168.078C157.776 168.078 157.555 168.169 157.367 168.352C157.185 168.534 157.094 168.755 157.094 169.016C157.094 169.271 157.185 169.492 157.367 169.68C157.555 169.862 157.776 169.953 158.031 169.953ZM164.727 180.148C165.529 180.148 166.219 179.974 166.797 179.625C167.375 179.271 167.82 178.768 168.133 178.117C168.451 177.466 168.609 176.693 168.609 175.797V175.781C168.609 174.88 168.451 174.104 168.133 173.453C167.82 172.802 167.375 172.302 166.797 171.953C166.219 171.604 165.529 171.43 164.727 171.43C163.93 171.43 163.24 171.604 162.656 171.953C162.078 172.302 161.63 172.802 161.312 173.453C161 174.104 160.844 174.88 160.844 175.781V175.797C160.844 176.693 161 177.466 161.312 178.117C161.63 178.768 162.078 179.271 162.656 179.625C163.24 179.974 163.93 180.148 164.727 180.148ZM164.727 178.945C164.195 178.945 163.745 178.82 163.375 178.57C163.005 178.32 162.721 177.961 162.523 177.492C162.331 177.023 162.234 176.458 162.234 175.797V175.781C162.234 175.115 162.331 174.547 162.523 174.078C162.721 173.609 163.005 173.253 163.375 173.008C163.745 172.758 164.195 172.633 164.727 172.633C165.258 172.633 165.708 172.758 166.078 173.008C166.448 173.253 166.729 173.609 166.922 174.078C167.12 174.547 167.219 175.115 167.219 175.781V175.797C167.219 176.458 167.12 177.023 166.922 177.492C166.729 177.961 166.448 178.32 166.078 178.57C165.708 178.82 165.258 178.945 164.727 178.945ZM170.719 180H172.078V175.016C172.078 174.521 172.167 174.096 172.344 173.742C172.526 173.388 172.781 173.115 173.109 172.922C173.438 172.729 173.826 172.633 174.273 172.633C174.945 172.633 175.44 172.818 175.758 173.188C176.081 173.552 176.242 174.115 176.242 174.875V180H177.602V174.547C177.602 173.547 177.346 172.779 176.836 172.242C176.331 171.701 175.604 171.43 174.656 171.43C174.036 171.43 173.526 171.555 173.125 171.805C172.724 172.049 172.417 172.396 172.203 172.844H172.078V171.578H170.719V180ZM184.734 180H188.602C189.721 180 190.677 179.779 191.469 179.336C192.26 178.888 192.867 178.245 193.289 177.406C193.711 176.562 193.922 175.549 193.922 174.367V174.352C193.922 173.169 193.711 172.159 193.289 171.32C192.867 170.482 192.258 169.841 191.461 169.398C190.669 168.951 189.716 168.727 188.602 168.727H184.734V180ZM186.141 178.734V169.992H188.508C189.341 169.992 190.055 170.167 190.648 170.516C191.242 170.859 191.695 171.359 192.008 172.016C192.326 172.667 192.484 173.451 192.484 174.367V174.383C192.484 175.294 192.328 176.076 192.016 176.727C191.703 177.378 191.25 177.875 190.656 178.219C190.062 178.562 189.346 178.734 188.508 178.734H186.141ZM199.625 180.148C200.12 180.148 200.565 180.086 200.961 179.961C201.362 179.831 201.708 179.659 202 179.445C202.292 179.227 202.529 178.984 202.711 178.719C202.898 178.448 203.029 178.169 203.102 177.883L203.117 177.82H201.758L201.727 177.891C201.654 178.057 201.526 178.221 201.344 178.383C201.161 178.544 200.93 178.677 200.648 178.781C200.367 178.885 200.036 178.938 199.656 178.938C199.146 178.938 198.703 178.826 198.328 178.602C197.953 178.372 197.664 178.047 197.461 177.625C197.258 177.198 197.156 176.685 197.156 176.086V175.547C197.156 174.917 197.26 174.385 197.469 173.953C197.677 173.521 197.958 173.195 198.312 172.977C198.672 172.753 199.078 172.641 199.531 172.641C199.984 172.641 200.385 172.747 200.734 172.961C201.083 173.169 201.357 173.487 201.555 173.914C201.753 174.341 201.852 174.885 201.852 175.547V176.086L202.523 175.094H196.469V176.18H203.219V175.648C203.219 174.81 203.07 174.076 202.773 173.445C202.482 172.81 202.06 172.315 201.508 171.961C200.961 171.607 200.305 171.43 199.539 171.43C198.779 171.43 198.115 171.615 197.547 171.984C196.979 172.354 196.539 172.867 196.227 173.523C195.919 174.18 195.766 174.943 195.766 175.812V175.82C195.766 176.701 195.919 177.466 196.227 178.117C196.539 178.763 196.982 179.263 197.555 179.617C198.133 179.971 198.823 180.148 199.625 180.148ZM205.328 182.812H206.688V178.672H206.812C206.969 178.974 207.177 179.234 207.438 179.453C207.703 179.672 208.005 179.844 208.344 179.969C208.688 180.089 209.052 180.148 209.438 180.148C210.151 180.148 210.771 179.969 211.297 179.609C211.828 179.25 212.24 178.745 212.531 178.094C212.823 177.443 212.969 176.677 212.969 175.797V175.781C212.969 174.906 212.823 174.143 212.531 173.492C212.24 172.841 211.828 172.336 211.297 171.977C210.771 171.612 210.151 171.43 209.438 171.43C209.047 171.43 208.685 171.49 208.352 171.609C208.018 171.729 207.721 171.901 207.461 172.125C207.201 172.344 206.984 172.609 206.812 172.922H206.688V171.578H205.328V182.812ZM209.125 178.945C208.615 178.945 208.174 178.818 207.805 178.562C207.435 178.307 207.151 177.945 206.953 177.477C206.755 177.003 206.656 176.443 206.656 175.797V175.781C206.656 175.13 206.755 174.57 206.953 174.102C207.151 173.633 207.435 173.271 207.805 173.016C208.174 172.76 208.615 172.633 209.125 172.633C209.641 172.633 210.081 172.76 210.445 173.016C210.81 173.266 211.089 173.625 211.281 174.094C211.479 174.562 211.578 175.125 211.578 175.781V175.797C211.578 176.448 211.479 177.01 211.281 177.484C211.089 177.953 210.81 178.315 210.445 178.57C210.081 178.82 209.641 178.945 209.125 178.945ZM217.406 180.148C217.786 180.148 218.135 180.096 218.453 179.992C218.771 179.883 219.055 179.724 219.305 179.516C219.56 179.307 219.776 179.055 219.953 178.758H220.078V180H221.438V174.234C221.438 173.651 221.312 173.151 221.062 172.734C220.818 172.312 220.456 171.99 219.977 171.766C219.503 171.542 218.922 171.43 218.234 171.43C217.635 171.43 217.102 171.523 216.633 171.711C216.164 171.893 215.781 172.151 215.484 172.484C215.193 172.812 215.01 173.198 214.938 173.641L214.93 173.688H216.289L216.297 173.664C216.406 173.336 216.622 173.083 216.945 172.906C217.268 172.724 217.682 172.633 218.188 172.633C218.818 172.633 219.289 172.771 219.602 173.047C219.919 173.318 220.078 173.714 220.078 174.234V176.859C220.078 177.26 219.974 177.62 219.766 177.938C219.562 178.255 219.281 178.508 218.922 178.695C218.562 178.878 218.151 178.969 217.688 178.969C217.198 178.969 216.792 178.852 216.469 178.617C216.146 178.378 215.984 178.044 215.984 177.617V177.602C215.984 177.185 216.13 176.862 216.422 176.633C216.719 176.404 217.188 176.271 217.828 176.234L220.758 176.047V174.961L217.664 175.148C216.685 175.206 215.927 175.448 215.391 175.875C214.859 176.297 214.594 176.883 214.594 177.633V177.648C214.594 178.159 214.716 178.602 214.961 178.977C215.211 179.352 215.547 179.641 215.969 179.844C216.396 180.047 216.875 180.148 217.406 180.148ZM223.922 180H225.281V174.781C225.281 174.37 225.375 174.01 225.562 173.703C225.755 173.396 226.018 173.156 226.352 172.984C226.685 172.812 227.068 172.727 227.5 172.727C227.651 172.727 227.792 172.734 227.922 172.75C228.057 172.76 228.195 172.779 228.336 172.805V171.484C228.268 171.474 228.169 171.464 228.039 171.453C227.914 171.438 227.786 171.43 227.656 171.43C227.089 171.43 226.612 171.552 226.227 171.797C225.841 172.042 225.568 172.385 225.406 172.828H225.281V171.578H223.922V180ZM233.164 180.062C233.299 180.062 233.432 180.055 233.562 180.039C233.693 180.023 233.823 180.005 233.953 179.984V178.828C233.828 178.839 233.721 178.846 233.633 178.852C233.549 178.857 233.448 178.859 233.328 178.859C232.891 178.859 232.578 178.753 232.391 178.539C232.203 178.32 232.109 177.964 232.109 177.469V172.703H233.953V171.578H232.109V169.398H230.703V171.578H229.375V172.703H230.703V177.812C230.703 178.615 230.896 179.19 231.281 179.539C231.672 179.888 232.299 180.062 233.164 180.062ZM235.984 180H237.344V174.781C237.344 174.385 237.427 174.026 237.594 173.703C237.766 173.375 237.997 173.115 238.289 172.922C238.586 172.729 238.917 172.633 239.281 172.633C239.812 172.633 240.237 172.784 240.555 173.086C240.872 173.383 241.031 173.781 241.031 174.281V180H242.391V174.586C242.391 174.227 242.471 173.901 242.633 173.609C242.794 173.312 243.021 173.076 243.312 172.898C243.604 172.721 243.945 172.633 244.336 172.633C244.93 172.633 245.37 172.789 245.656 173.102C245.948 173.409 246.094 173.872 246.094 174.492V180H247.453V174.18C247.453 173.591 247.349 173.094 247.141 172.688C246.932 172.276 246.628 171.964 246.227 171.75C245.831 171.536 245.346 171.43 244.773 171.43C244.388 171.43 244.026 171.492 243.688 171.617C243.354 171.737 243.06 171.909 242.805 172.133C242.549 172.352 242.346 172.609 242.195 172.906H242.07C241.94 172.615 241.766 172.359 241.547 172.141C241.328 171.917 241.068 171.742 240.766 171.617C240.464 171.492 240.122 171.43 239.742 171.43C239.19 171.43 238.719 171.555 238.328 171.805C237.943 172.055 237.656 172.406 237.469 172.859H237.344V171.578H235.984V180ZM253.344 180.148C253.839 180.148 254.284 180.086 254.68 179.961C255.081 179.831 255.427 179.659 255.719 179.445C256.01 179.227 256.247 178.984 256.43 178.719C256.617 178.448 256.747 178.169 256.82 177.883L256.836 177.82H255.477L255.445 177.891C255.372 178.057 255.245 178.221 255.062 178.383C254.88 178.544 254.648 178.677 254.367 178.781C254.086 178.885 253.755 178.938 253.375 178.938C252.865 178.938 252.422 178.826 252.047 178.602C251.672 178.372 251.383 178.047 251.18 177.625C250.977 177.198 250.875 176.685 250.875 176.086V175.547C250.875 174.917 250.979 174.385 251.188 173.953C251.396 173.521 251.677 173.195 252.031 172.977C252.391 172.753 252.797 172.641 253.25 172.641C253.703 172.641 254.104 172.747 254.453 172.961C254.802 173.169 255.076 173.487 255.273 173.914C255.471 174.341 255.57 174.885 255.57 175.547V176.086L256.242 175.094H250.188V176.18H256.938V175.648C256.938 174.81 256.789 174.076 256.492 173.445C256.201 172.81 255.779 172.315 255.227 171.961C254.68 171.607 254.023 171.43 253.258 171.43C252.497 171.43 251.833 171.615 251.266 171.984C250.698 172.354 250.258 172.867 249.945 173.523C249.638 174.18 249.484 174.943 249.484 175.812V175.82C249.484 176.701 249.638 177.466 249.945 178.117C250.258 178.763 250.701 179.263 251.273 179.617C251.852 179.971 252.542 180.148 253.344 180.148ZM259.047 180H260.406V175.016C260.406 174.521 260.495 174.096 260.672 173.742C260.854 173.388 261.109 173.115 261.438 172.922C261.766 172.729 262.154 172.633 262.602 172.633C263.273 172.633 263.768 172.818 264.086 173.188C264.409 173.552 264.57 174.115 264.57 174.875V180H265.93V174.547C265.93 173.547 265.674 172.779 265.164 172.242C264.659 171.701 263.932 171.43 262.984 171.43C262.365 171.43 261.854 171.555 261.453 171.805C261.052 172.049 260.745 172.396 260.531 172.844H260.406V171.578H259.047V180ZM271.383 180.062C271.518 180.062 271.651 180.055 271.781 180.039C271.911 180.023 272.042 180.005 272.172 179.984V178.828C272.047 178.839 271.94 178.846 271.852 178.852C271.768 178.857 271.667 178.859 271.547 178.859C271.109 178.859 270.797 178.753 270.609 178.539C270.422 178.32 270.328 177.964 270.328 177.469V172.703H272.172V171.578H270.328V169.398H268.922V171.578H267.594V172.703H268.922V177.812C268.922 178.615 269.115 179.19 269.5 179.539C269.891 179.888 270.518 180.062 271.383 180.062Z" fill="black"/>
</svg>
