<svg width="334" height="316" viewBox="0 0 334 316" fill="none" xmlns="http://www.w3.org/2000/svg">
<rect x="0.5" y="0.5" width="333" height="315" rx="8.5" fill="white" stroke="#0048EA"/>
<path d="M147.654 40V36.76H141.366L137.166 37.168C137.166 35.896 137.91 35.44 139.47 34.96L142.974 34C145.83 33.208 147.702 31.792 147.702 28.936C147.702 25.888 145.734 23.68 140.886 23.68C135.534 23.68 133.398 26.512 133.398 29.632V29.944H136.926V29.632C136.926 27.856 137.814 26.968 140.766 26.968C143.406 26.968 144.078 27.664 144.078 28.888C144.078 29.944 143.55 30.424 142.11 30.928L137.982 32.272C134.598 33.4 133.374 34.864 133.374 37.696V40H147.654ZM157.628 40.24C162.788 40.24 165.668 36.976 165.668 31.96C165.668 26.968 162.788 23.68 157.628 23.68C152.444 23.68 149.588 26.968 149.588 31.96C149.588 36.976 152.444 40.24 157.628 40.24ZM157.628 36.736C154.556 36.736 153.452 35.416 153.452 31.96C153.452 28.504 154.556 27.184 157.628 27.184C160.676 27.184 161.804 28.504 161.804 31.96C161.804 35.416 160.676 36.736 157.628 36.736ZM181.79 40V36.76H175.502L171.302 37.168C171.302 35.896 172.046 35.44 173.606 34.96L177.11 34C179.966 33.208 181.838 31.792 181.838 28.936C181.838 25.888 179.87 23.68 175.022 23.68C169.67 23.68 167.534 26.512 167.534 29.632V29.944H171.062V29.632C171.062 27.856 171.95 26.968 174.902 26.968C177.542 26.968 178.214 27.664 178.214 28.888C178.214 29.944 177.686 30.424 176.246 30.928L172.118 32.272C168.734 33.4 167.51 34.864 167.51 37.696V40H181.79ZM197.955 40V36.76H191.667L187.467 37.168C187.467 35.896 188.211 35.44 189.771 34.96L193.275 34C196.131 33.208 198.003 31.792 198.003 28.936C198.003 25.888 196.035 23.68 191.187 23.68C185.835 23.68 183.699 26.512 183.699 29.632V29.944H187.227V29.632C187.227 27.856 188.115 26.968 191.067 26.968C193.707 26.968 194.379 27.664 194.379 28.888C194.379 29.944 193.851 30.424 192.411 30.928L188.283 32.272C184.899 33.4 183.675 34.864 183.675 37.696V40H197.955Z" fill="#0048EA"/>
<path d="M105.042 174.16C108.53 174.16 109.842 172.512 109.842 169.76V163.28H107.298V169.76C107.298 171.264 106.93 171.824 105.042 171.824C103.138 171.824 102.818 171.232 102.818 169.648V169.184H100.274V169.648C100.274 172.48 101.57 174.16 105.042 174.16ZM120.601 174V171.84H113.929V169.68H120.361V167.536H113.929V165.44H120.601V163.28H111.529V174H120.601ZM124.565 174V169.872H127.269L130.037 174H132.917L129.237 168.56L132.965 163.28H130.085L127.237 167.536H124.565V163.28H122.165V174H124.565ZM136.451 174V168.832L136.355 166.864H136.515L137.875 168.88L141.827 174H144.387V163.28H141.987V168.448L142.099 170.608H141.923L140.451 168.352L136.611 163.28H134.051V174H136.451ZM151.66 174.16C155.292 174.16 157.484 171.984 157.484 168.64C157.484 165.296 155.292 163.12 151.66 163.12C148.108 163.12 145.9 165.296 145.9 168.64C145.9 171.984 148.108 174.16 151.66 174.16ZM151.66 171.856C149.308 171.856 148.444 171.024 148.444 168.64C148.444 166.256 149.308 165.424 151.66 165.424C154.012 165.424 154.924 166.256 154.924 168.64C154.924 171.024 154.012 171.856 151.66 171.856ZM164.643 174L166.275 168.64L167.027 165.552H167.203L167.955 168.64L169.555 174H173.123L175.667 163.28H173.043L171.747 169.36L171.379 171.712H171.203L170.707 169.36L168.931 163.28H165.363L163.571 169.36L163.075 171.712H162.899L162.531 169.36L161.235 163.28H158.547L161.075 174H164.643ZM185.759 174V171.84H179.375V163.28H176.975V174H185.759ZM196.277 174V171.84H189.605V169.68H196.037V167.536H189.605V165.44H196.277V163.28H187.205V174H196.277ZM203.138 174C206.578 174 208.754 172 208.754 168.64C208.754 165.28 206.578 163.28 203.138 163.28H197.97V174H203.138ZM203.138 165.44C205.314 165.44 206.194 166.064 206.194 168.64C206.194 171.216 205.314 171.84 203.138 171.84H200.37V165.44H203.138ZM215.331 174.16C217.651 174.16 218.771 173.104 219.139 171.696H219.267V174H221.491V168.336H215.459V170.112H219.091C219.027 171.472 218.275 171.856 215.811 171.856C213.459 171.856 212.579 171.024 212.579 168.64C212.579 166.256 213.491 165.424 215.923 165.424C217.987 165.424 218.803 166.016 218.803 167.264V167.392H221.475V167.264C221.475 164.688 219.347 163.12 215.987 163.12C212.307 163.12 210.035 165.296 210.035 168.64C210.035 171.984 212.051 174.16 215.331 174.16ZM232.217 174V171.84H225.545V169.68H231.977V167.536H225.545V165.44H232.217V163.28H223.145V174H232.217Z" fill="#182022"/>
<path d="M111.493 245.16C114.901 245.16 116.261 243.592 116.261 241.848C116.261 240.376 115.397 239.208 112.997 238.824L109.989 238.344C109.093 238.184 108.741 237.96 108.741 237.336C108.741 236.648 109.269 236.312 110.997 236.312C113.125 236.312 113.653 236.744 113.653 237.768V237.992H116.069V237.896C116.069 235.64 114.533 234.12 111.237 234.12C107.637 234.12 106.325 235.816 106.325 237.432C106.325 239.176 107.461 240.136 109.381 240.44L112.389 240.872C113.493 241.064 113.861 241.304 113.861 241.96C113.861 242.68 113.413 242.968 111.493 242.968C109.317 242.968 108.821 242.568 108.821 241.576V241.288H106.421V241.384C106.421 243.88 108.245 245.16 111.493 245.16ZM120.118 245V240.696H125.718V245H128.118V234.28H125.718V238.536H120.118V234.28H117.718V245H120.118ZM132.286 245V234.28H129.886V245H132.286ZM136.422 245V241H142.854V238.856H136.422V236.44H143.094V234.28H134.022V245H136.422ZM150.564 245V236.44H154.548V234.28H144.18V236.44H148.164V245H150.564ZM160.805 245L161.829 242.632H167.189L168.197 245H170.949L166.229 234.28H162.805L158.117 245H160.805ZM163.765 238.136L164.421 236.472H164.597L165.253 238.136L166.261 240.472H162.757L163.765 238.136ZM174.389 245V242.04H177.589C180.069 242.04 181.669 240.616 181.669 238.152C181.669 235.688 180.069 234.28 177.589 234.28H171.989V245H174.389ZM177.333 236.44C178.661 236.44 179.285 236.84 179.285 238.152C179.285 239.496 178.661 239.88 177.333 239.88H174.389V236.44H177.333ZM185.4 245V242.04H188.6C191.08 242.04 192.68 240.616 192.68 238.152C192.68 235.688 191.08 234.28 188.6 234.28H183V245H185.4ZM188.344 236.44C189.672 236.44 190.296 236.84 190.296 238.152C190.296 239.496 189.672 239.88 188.344 239.88H185.4V236.44H188.344ZM203.083 245V242.84H196.411V240.68H202.843V238.536H196.411V236.44H203.083V234.28H194.011V245H203.083ZM207.048 245V239.832L206.952 237.864H207.112L208.472 239.88L212.424 245H214.984V234.28H212.584V239.448L212.696 241.608H212.52L211.048 239.352L207.208 234.28H204.648V245H207.048ZM221.601 245.16C225.009 245.16 226.369 243.592 226.369 241.848C226.369 240.376 225.505 239.208 223.105 238.824L220.097 238.344C219.201 238.184 218.849 237.96 218.849 237.336C218.849 236.648 219.377 236.312 221.105 236.312C223.233 236.312 223.761 236.744 223.761 237.768V237.992H226.177V237.896C226.177 235.64 224.641 234.12 221.345 234.12C217.745 234.12 216.433 235.816 216.433 237.432C216.433 239.176 217.569 240.136 219.489 240.44L222.497 240.872C223.601 241.064 223.969 241.304 223.969 241.96C223.969 242.68 223.521 242.968 221.601 242.968C219.425 242.968 218.929 242.568 218.929 241.576V241.288H216.529V241.384C216.529 243.88 218.353 245.16 221.601 245.16Z" fill="#182022"/>
<path d="M65.6568 84.16C69.1608 84.16 70.9208 82.4 70.9208 79.52V73.28H68.5208V79.344C68.5208 81.168 67.8488 81.824 65.6568 81.824C63.4808 81.824 62.7928 81.168 62.7928 79.344V73.28H60.3928V79.52C60.3928 82.4 62.1688 84.16 65.6568 84.16ZM75.0091 84V78.832L74.9131 76.864H75.0731L76.4331 78.88L80.3851 84H82.9451V73.28H80.5451V78.448L80.6571 80.608H80.4811L79.0091 78.352L75.1691 73.28H72.6091V84H75.0091ZM87.0984 84V73.28H84.6984V84H87.0984ZM95.9387 84L100.387 73.28H97.5067L94.3387 81.568H94.1787L90.9627 73.28H88.0667L92.5147 84H95.9387ZM110.449 84V81.84H103.777V79.68H110.209V77.536H103.777V75.44H110.449V73.28H101.377V84H110.449ZM114.413 84V80.112H115.997C117.245 80.112 117.645 80.384 118.077 81.216L119.549 84H122.333L120.781 81.12C120.381 80.368 120.013 79.856 119.053 79.6V79.472C121.069 79.28 122.077 78.24 122.077 76.496C122.077 74.448 120.573 73.28 117.933 73.28H112.013V84H114.413ZM114.413 75.44H117.917C119.053 75.44 119.565 75.808 119.565 76.864C119.565 77.984 119.053 78.304 117.917 78.304H114.413V75.44ZM128.436 84.16C131.844 84.16 133.204 82.592 133.204 80.848C133.204 79.376 132.34 78.208 129.94 77.824L126.932 77.344C126.036 77.184 125.684 76.96 125.684 76.336C125.684 75.648 126.212 75.312 127.94 75.312C130.068 75.312 130.596 75.744 130.596 76.768V76.992H133.012V76.896C133.012 74.64 131.476 73.12 128.18 73.12C124.58 73.12 123.268 74.816 123.268 76.432C123.268 78.176 124.404 79.136 126.324 79.44L129.332 79.872C130.436 80.064 130.804 80.304 130.804 80.96C130.804 81.68 130.356 81.968 128.436 81.968C126.26 81.968 125.764 81.568 125.764 80.576V80.288H123.364V80.384C123.364 82.88 125.188 84.16 128.436 84.16ZM137.061 84V73.28H134.661V84H137.061ZM144.765 84V75.44H148.749V73.28H138.381V75.44H142.365V84H144.765ZM156.442 84V80.464L161.274 73.28H158.298L156.25 76.416L155.354 77.856H155.178L154.282 76.416L152.234 73.28H149.274L154.026 80.448V84H156.442ZM170.679 84.16C174.311 84.16 176.503 81.984 176.503 78.64C176.503 75.296 174.311 73.12 170.679 73.12C167.127 73.12 164.919 75.296 164.919 78.64C164.919 81.984 167.127 84.16 170.679 84.16ZM170.679 81.856C168.327 81.856 167.463 81.024 167.463 78.64C167.463 76.256 168.327 75.424 170.679 75.424C173.031 75.424 173.943 76.256 173.943 78.64C173.943 81.024 173.031 81.856 170.679 81.856ZM180.43 84V80H186.862V77.856H180.43V75.44H187.102V73.28H178.03V84H180.43ZM197.04 84.16C200.384 84.16 202.512 82.496 202.512 79.776V79.536H199.84V79.776C199.84 81.184 199.04 81.856 197.088 81.856C194.736 81.856 193.856 81.024 193.856 78.64C193.856 76.256 194.736 75.424 197.088 75.424C199.04 75.424 199.84 76.096 199.84 77.504V77.744H202.512V77.504C202.512 74.784 200.368 73.12 197.04 73.12C193.504 73.12 191.312 75.296 191.312 78.64C191.312 81.984 193.504 84.16 197.04 84.16ZM209.552 84.16C213.184 84.16 215.376 81.984 215.376 78.64C215.376 75.296 213.184 73.12 209.552 73.12C206 73.12 203.792 75.296 203.792 78.64C203.792 81.984 206 84.16 209.552 84.16ZM209.552 81.856C207.2 81.856 206.336 81.024 206.336 78.64C206.336 76.256 207.2 75.424 209.552 75.424C211.904 75.424 212.816 76.256 212.816 78.64C212.816 81.024 211.904 81.856 209.552 81.856ZM219.303 84V73.28H216.903V84H219.303ZM223.439 84V78.56L223.343 76.88H223.519L224.143 78.56L226.383 83.36H229.295L231.535 78.56L232.159 76.88H232.335L232.255 78.56V84H234.655V73.28H231.391L228.959 78.56L227.983 81.072H227.807L226.799 78.56L224.287 73.28H221.039V84H223.439ZM243.082 84C245.482 84 246.602 82.848 246.602 81.024C246.602 79.584 245.642 78.592 243.658 78.448V78.304C245.45 78.176 246.154 77.216 246.154 75.888C246.154 74.208 244.97 73.28 242.778 73.28H236.346V84H243.082ZM238.746 75.44H242.474C243.37 75.44 243.754 75.76 243.754 76.496C243.754 77.232 243.386 77.536 242.506 77.536H238.746V75.44ZM238.746 79.52H242.794C243.77 79.52 244.17 79.824 244.17 80.672C244.17 81.536 243.77 81.84 242.794 81.84H238.746V79.52ZM250.368 84V80.112H251.952C253.2 80.112 253.6 80.384 254.032 81.216L255.504 84H258.288L256.736 81.12C256.336 80.368 255.968 79.856 255.008 79.6V79.472C257.024 79.28 258.032 78.24 258.032 76.496C258.032 74.448 256.528 73.28 253.888 73.28H247.968V84H250.368ZM250.368 75.44H253.872C255.008 75.44 255.52 75.808 255.52 76.864C255.52 77.984 255.008 78.304 253.872 78.304H250.368V75.44ZM261.494 84L262.518 81.632H267.878L268.886 84H271.638L266.918 73.28H263.494L258.806 84H261.494ZM264.454 77.136L265.11 75.472H265.286L265.942 77.136L266.95 79.472H263.446L264.454 77.136Z" fill="#182022"/>
<path d="M98.8125 109H100.125V100.391H100.812L99.2422 98.0391L103.773 109H104.961L109.5 98.0391L107.922 100.391H108.609V109H109.922V97.7266H108.289L104.43 107.133H104.305L100.445 97.7266H98.8125V109ZM114.938 109.148C115.318 109.148 115.667 109.096 115.984 108.992C116.302 108.883 116.586 108.724 116.836 108.516C117.091 108.307 117.307 108.055 117.484 107.758H117.609V109H118.969V103.234C118.969 102.651 118.844 102.151 118.594 101.734C118.349 101.312 117.987 100.99 117.508 100.766C117.034 100.542 116.453 100.43 115.766 100.43C115.167 100.43 114.633 100.523 114.164 100.711C113.695 100.893 113.312 101.151 113.016 101.484C112.724 101.812 112.542 102.198 112.469 102.641L112.461 102.688H113.82L113.828 102.664C113.938 102.336 114.154 102.083 114.477 101.906C114.799 101.724 115.214 101.633 115.719 101.633C116.349 101.633 116.82 101.771 117.133 102.047C117.451 102.318 117.609 102.714 117.609 103.234V105.859C117.609 106.26 117.505 106.62 117.297 106.938C117.094 107.255 116.812 107.508 116.453 107.695C116.094 107.878 115.682 107.969 115.219 107.969C114.729 107.969 114.323 107.852 114 107.617C113.677 107.378 113.516 107.044 113.516 106.617V106.602C113.516 106.185 113.661 105.862 113.953 105.633C114.25 105.404 114.719 105.271 115.359 105.234L118.289 105.047V103.961L115.195 104.148C114.216 104.206 113.458 104.448 112.922 104.875C112.391 105.297 112.125 105.883 112.125 106.633V106.648C112.125 107.159 112.247 107.602 112.492 107.977C112.742 108.352 113.078 108.641 113.5 108.844C113.927 109.047 114.406 109.148 114.938 109.148ZM124.344 109.148C124.984 109.148 125.557 109.042 126.062 108.828C126.573 108.615 126.977 108.318 127.273 107.938C127.57 107.552 127.719 107.109 127.719 106.609V106.594C127.719 105.99 127.523 105.508 127.133 105.148C126.747 104.789 126.159 104.513 125.367 104.32L124.07 104.008C123.576 103.888 123.216 103.734 122.992 103.547C122.768 103.359 122.656 103.122 122.656 102.836V102.82C122.656 102.57 122.732 102.352 122.883 102.164C123.034 101.977 123.24 101.831 123.5 101.727C123.76 101.617 124.057 101.562 124.391 101.562C124.901 101.562 125.315 101.667 125.633 101.875C125.951 102.083 126.154 102.354 126.242 102.688H127.578C127.516 102.229 127.344 101.831 127.062 101.492C126.786 101.154 126.419 100.893 125.961 100.711C125.508 100.523 124.987 100.43 124.398 100.43C123.805 100.43 123.271 100.536 122.797 100.75C122.323 100.964 121.948 101.255 121.672 101.625C121.401 101.995 121.266 102.414 121.266 102.883V102.891C121.266 103.495 121.451 103.979 121.82 104.344C122.19 104.703 122.768 104.977 123.555 105.164L124.859 105.477C125.38 105.602 125.755 105.766 125.984 105.969C126.214 106.167 126.328 106.409 126.328 106.695V106.711C126.328 106.966 126.245 107.193 126.078 107.391C125.911 107.583 125.682 107.737 125.391 107.852C125.104 107.961 124.771 108.016 124.391 108.016C123.854 108.016 123.419 107.909 123.086 107.695C122.753 107.482 122.529 107.201 122.414 106.852H121.023C121.076 107.315 121.245 107.719 121.531 108.062C121.823 108.406 122.208 108.674 122.688 108.867C123.167 109.055 123.719 109.148 124.344 109.148ZM132.742 109.062C132.878 109.062 133.01 109.055 133.141 109.039C133.271 109.023 133.401 109.005 133.531 108.984V107.828C133.406 107.839 133.299 107.846 133.211 107.852C133.128 107.857 133.026 107.859 132.906 107.859C132.469 107.859 132.156 107.753 131.969 107.539C131.781 107.32 131.688 106.964 131.688 106.469V101.703H133.531V100.578H131.688V98.3984H130.281V100.578H128.953V101.703H130.281V106.812C130.281 107.615 130.474 108.19 130.859 108.539C131.25 108.888 131.878 109.062 132.742 109.062ZM138.891 109.148C139.385 109.148 139.831 109.086 140.227 108.961C140.628 108.831 140.974 108.659 141.266 108.445C141.557 108.227 141.794 107.984 141.977 107.719C142.164 107.448 142.294 107.169 142.367 106.883L142.383 106.82H141.023L140.992 106.891C140.919 107.057 140.792 107.221 140.609 107.383C140.427 107.544 140.195 107.677 139.914 107.781C139.633 107.885 139.302 107.938 138.922 107.938C138.411 107.938 137.969 107.826 137.594 107.602C137.219 107.372 136.93 107.047 136.727 106.625C136.523 106.198 136.422 105.685 136.422 105.086V104.547C136.422 103.917 136.526 103.385 136.734 102.953C136.943 102.521 137.224 102.195 137.578 101.977C137.938 101.753 138.344 101.641 138.797 101.641C139.25 101.641 139.651 101.747 140 101.961C140.349 102.169 140.622 102.487 140.82 102.914C141.018 103.341 141.117 103.885 141.117 104.547V105.086L141.789 104.094H135.734V105.18H142.484V104.648C142.484 103.81 142.336 103.076 142.039 102.445C141.747 101.81 141.326 101.315 140.773 100.961C140.227 100.607 139.57 100.43 138.805 100.43C138.044 100.43 137.38 100.615 136.812 100.984C136.245 101.354 135.805 101.867 135.492 102.523C135.185 103.18 135.031 103.943 135.031 104.812V104.82C135.031 105.701 135.185 106.466 135.492 107.117C135.805 107.763 136.247 108.263 136.82 108.617C137.398 108.971 138.089 109.148 138.891 109.148ZM144.594 109H145.953V103.781C145.953 103.37 146.047 103.01 146.234 102.703C146.427 102.396 146.69 102.156 147.023 101.984C147.357 101.812 147.74 101.727 148.172 101.727C148.323 101.727 148.464 101.734 148.594 101.75C148.729 101.76 148.867 101.779 149.008 101.805V100.484C148.94 100.474 148.841 100.464 148.711 100.453C148.586 100.438 148.458 100.43 148.328 100.43C147.76 100.43 147.284 100.552 146.898 100.797C146.513 101.042 146.24 101.385 146.078 101.828H145.953V100.578H144.594V109ZM153.422 109.148C154.062 109.148 154.635 109.042 155.141 108.828C155.651 108.615 156.055 108.318 156.352 107.938C156.648 107.552 156.797 107.109 156.797 106.609V106.594C156.797 105.99 156.602 105.508 156.211 105.148C155.826 104.789 155.237 104.513 154.445 104.32L153.148 104.008C152.654 103.888 152.294 103.734 152.07 103.547C151.846 103.359 151.734 103.122 151.734 102.836V102.82C151.734 102.57 151.81 102.352 151.961 102.164C152.112 101.977 152.318 101.831 152.578 101.727C152.839 101.617 153.135 101.562 153.469 101.562C153.979 101.562 154.393 101.667 154.711 101.875C155.029 102.083 155.232 102.354 155.32 102.688H156.656C156.594 102.229 156.422 101.831 156.141 101.492C155.865 101.154 155.497 100.893 155.039 100.711C154.586 100.523 154.065 100.43 153.477 100.43C152.883 100.43 152.349 100.536 151.875 100.75C151.401 100.964 151.026 101.255 150.75 101.625C150.479 101.995 150.344 102.414 150.344 102.883V102.891C150.344 103.495 150.529 103.979 150.898 104.344C151.268 104.703 151.846 104.977 152.633 105.164L153.938 105.477C154.458 105.602 154.833 105.766 155.062 105.969C155.292 106.167 155.406 106.409 155.406 106.695V106.711C155.406 106.966 155.323 107.193 155.156 107.391C154.99 107.583 154.76 107.737 154.469 107.852C154.182 107.961 153.849 108.016 153.469 108.016C152.932 108.016 152.497 107.909 152.164 107.695C151.831 107.482 151.607 107.201 151.492 106.852H150.102C150.154 107.315 150.323 107.719 150.609 108.062C150.901 108.406 151.286 108.674 151.766 108.867C152.245 109.055 152.797 109.148 153.422 109.148ZM163.438 109H164.797V100.578H163.438V109ZM164.125 98.9531C164.385 98.9531 164.607 98.862 164.789 98.6797C164.971 98.4922 165.062 98.2708 165.062 98.0156C165.062 97.7552 164.971 97.5339 164.789 97.3516C164.607 97.1693 164.385 97.0781 164.125 97.0781C163.87 97.0781 163.648 97.1693 163.461 97.3516C163.279 97.5339 163.188 97.7552 163.188 98.0156C163.188 98.2708 163.279 98.4922 163.461 98.6797C163.648 98.862 163.87 98.9531 164.125 98.9531ZM167.359 109H168.719V104.016C168.719 103.521 168.807 103.096 168.984 102.742C169.167 102.388 169.422 102.115 169.75 101.922C170.078 101.729 170.466 101.633 170.914 101.633C171.586 101.633 172.081 101.818 172.398 102.188C172.721 102.552 172.883 103.115 172.883 103.875V109H174.242V103.547C174.242 102.547 173.987 101.779 173.477 101.242C172.971 100.701 172.245 100.43 171.297 100.43C170.677 100.43 170.167 100.555 169.766 100.805C169.365 101.049 169.057 101.396 168.844 101.844H168.719V100.578H167.359V109ZM181.375 109H185.242C186.362 109 187.318 108.779 188.109 108.336C188.901 107.888 189.508 107.245 189.93 106.406C190.352 105.562 190.562 104.549 190.562 103.367V103.352C190.562 102.169 190.352 101.159 189.93 100.32C189.508 99.4818 188.898 98.8411 188.102 98.3984C187.31 97.9505 186.357 97.7266 185.242 97.7266H181.375V109ZM182.781 107.734V98.9922H185.148C185.982 98.9922 186.695 99.1667 187.289 99.5156C187.883 99.8594 188.336 100.359 188.648 101.016C188.966 101.667 189.125 102.451 189.125 103.367V103.383C189.125 104.294 188.969 105.076 188.656 105.727C188.344 106.378 187.891 106.875 187.297 107.219C186.703 107.562 185.987 107.734 185.148 107.734H182.781ZM196.266 109.148C196.76 109.148 197.206 109.086 197.602 108.961C198.003 108.831 198.349 108.659 198.641 108.445C198.932 108.227 199.169 107.984 199.352 107.719C199.539 107.448 199.669 107.169 199.742 106.883L199.758 106.82H198.398L198.367 106.891C198.294 107.057 198.167 107.221 197.984 107.383C197.802 107.544 197.57 107.677 197.289 107.781C197.008 107.885 196.677 107.938 196.297 107.938C195.786 107.938 195.344 107.826 194.969 107.602C194.594 107.372 194.305 107.047 194.102 106.625C193.898 106.198 193.797 105.685 193.797 105.086V104.547C193.797 103.917 193.901 103.385 194.109 102.953C194.318 102.521 194.599 102.195 194.953 101.977C195.312 101.753 195.719 101.641 196.172 101.641C196.625 101.641 197.026 101.747 197.375 101.961C197.724 102.169 197.997 102.487 198.195 102.914C198.393 103.341 198.492 103.885 198.492 104.547V105.086L199.164 104.094H193.109V105.18H199.859V104.648C199.859 103.81 199.711 103.076 199.414 102.445C199.122 101.81 198.701 101.315 198.148 100.961C197.602 100.607 196.945 100.43 196.18 100.43C195.419 100.43 194.755 100.615 194.188 100.984C193.62 101.354 193.18 101.867 192.867 102.523C192.56 103.18 192.406 103.943 192.406 104.812V104.82C192.406 105.701 192.56 106.466 192.867 107.117C193.18 107.763 193.622 108.263 194.195 108.617C194.773 108.971 195.464 109.148 196.266 109.148ZM204.859 109.148C205.5 109.148 206.073 109.042 206.578 108.828C207.089 108.615 207.492 108.318 207.789 107.938C208.086 107.552 208.234 107.109 208.234 106.609V106.594C208.234 105.99 208.039 105.508 207.648 105.148C207.263 104.789 206.674 104.513 205.883 104.32L204.586 104.008C204.091 103.888 203.732 103.734 203.508 103.547C203.284 103.359 203.172 103.122 203.172 102.836V102.82C203.172 102.57 203.247 102.352 203.398 102.164C203.549 101.977 203.755 101.831 204.016 101.727C204.276 101.617 204.573 101.562 204.906 101.562C205.417 101.562 205.831 101.667 206.148 101.875C206.466 102.083 206.669 102.354 206.758 102.688H208.094C208.031 102.229 207.859 101.831 207.578 101.492C207.302 101.154 206.935 100.893 206.477 100.711C206.023 100.523 205.503 100.43 204.914 100.43C204.32 100.43 203.786 100.536 203.312 100.75C202.839 100.964 202.464 101.255 202.188 101.625C201.917 101.995 201.781 102.414 201.781 102.883V102.891C201.781 103.495 201.966 103.979 202.336 104.344C202.706 104.703 203.284 104.977 204.07 105.164L205.375 105.477C205.896 105.602 206.271 105.766 206.5 105.969C206.729 106.167 206.844 106.409 206.844 106.695V106.711C206.844 106.966 206.76 107.193 206.594 107.391C206.427 107.583 206.198 107.737 205.906 107.852C205.62 107.961 205.286 108.016 204.906 108.016C204.37 108.016 203.935 107.909 203.602 107.695C203.268 107.482 203.044 107.201 202.93 106.852H201.539C201.591 107.315 201.76 107.719 202.047 108.062C202.339 108.406 202.724 108.674 203.203 108.867C203.682 109.055 204.234 109.148 204.859 109.148ZM210.375 109H211.734V100.578H210.375V109ZM211.062 98.9531C211.323 98.9531 211.544 98.862 211.727 98.6797C211.909 98.4922 212 98.2708 212 98.0156C212 97.7552 211.909 97.5339 211.727 97.3516C211.544 97.1693 211.323 97.0781 211.062 97.0781C210.807 97.0781 210.586 97.1693 210.398 97.3516C210.216 97.5339 210.125 97.7552 210.125 98.0156C210.125 98.2708 210.216 98.4922 210.398 98.6797C210.586 98.862 210.807 98.9531 211.062 98.9531ZM217.766 111.969C218.531 111.969 219.195 111.841 219.758 111.586C220.32 111.336 220.753 110.979 221.055 110.516C221.362 110.052 221.516 109.508 221.516 108.883V100.578H220.156V101.969H220.062C219.891 101.651 219.674 101.378 219.414 101.148C219.159 100.919 218.865 100.742 218.531 100.617C218.198 100.492 217.833 100.43 217.438 100.43C216.703 100.43 216.07 100.607 215.539 100.961C215.008 101.31 214.596 101.792 214.305 102.406C214.018 103.016 213.875 103.714 213.875 104.5V104.516C213.875 105.302 214.018 106 214.305 106.609C214.591 107.219 214.997 107.698 215.523 108.047C216.055 108.391 216.682 108.562 217.406 108.562C217.792 108.562 218.151 108.508 218.484 108.398C218.818 108.284 219.117 108.117 219.383 107.898C219.648 107.68 219.87 107.417 220.047 107.109H220.172V108.812C220.172 109.432 219.958 109.911 219.531 110.25C219.109 110.594 218.521 110.766 217.766 110.766C217.161 110.766 216.677 110.661 216.312 110.453C215.948 110.25 215.729 109.99 215.656 109.672L215.648 109.664H214.242L214.227 109.672C214.299 110.13 214.484 110.531 214.781 110.875C215.083 111.224 215.487 111.492 215.992 111.68C216.497 111.872 217.089 111.969 217.766 111.969ZM217.703 107.359C217.182 107.359 216.74 107.24 216.375 107C216.016 106.755 215.74 106.419 215.547 105.992C215.359 105.565 215.266 105.073 215.266 104.516V104.5C215.266 103.943 215.359 103.448 215.547 103.016C215.74 102.583 216.016 102.245 216.375 102C216.74 101.755 217.182 101.633 217.703 101.633C218.224 101.633 218.669 101.755 219.039 102C219.414 102.245 219.701 102.583 219.898 103.016C220.102 103.448 220.203 103.943 220.203 104.5V104.516C220.203 105.073 220.102 105.565 219.898 105.992C219.701 106.419 219.414 106.755 219.039 107C218.669 107.24 218.224 107.359 217.703 107.359ZM224.047 109H225.406V104.016C225.406 103.521 225.495 103.096 225.672 102.742C225.854 102.388 226.109 102.115 226.438 101.922C226.766 101.729 227.154 101.633 227.602 101.633C228.273 101.633 228.768 101.818 229.086 102.188C229.409 102.552 229.57 103.115 229.57 103.875V109H230.93V103.547C230.93 102.547 230.674 101.779 230.164 101.242C229.659 100.701 228.932 100.43 227.984 100.43C227.365 100.43 226.854 100.555 226.453 100.805C226.052 101.049 225.745 101.396 225.531 101.844H225.406V100.578H224.047V109ZM112.922 128.148C113.302 128.148 113.651 128.096 113.969 127.992C114.286 127.883 114.57 127.724 114.82 127.516C115.076 127.307 115.292 127.055 115.469 126.758H115.594V128H116.953V122.234C116.953 121.651 116.828 121.151 116.578 120.734C116.333 120.312 115.971 119.99 115.492 119.766C115.018 119.542 114.438 119.43 113.75 119.43C113.151 119.43 112.617 119.523 112.148 119.711C111.68 119.893 111.297 120.151 111 120.484C110.708 120.812 110.526 121.198 110.453 121.641L110.445 121.688H111.805L111.812 121.664C111.922 121.336 112.138 121.083 112.461 120.906C112.784 120.724 113.198 120.633 113.703 120.633C114.333 120.633 114.805 120.771 115.117 121.047C115.435 121.318 115.594 121.714 115.594 122.234V124.859C115.594 125.26 115.49 125.62 115.281 125.938C115.078 126.255 114.797 126.508 114.438 126.695C114.078 126.878 113.667 126.969 113.203 126.969C112.714 126.969 112.307 126.852 111.984 126.617C111.661 126.378 111.5 126.044 111.5 125.617V125.602C111.5 125.185 111.646 124.862 111.938 124.633C112.234 124.404 112.703 124.271 113.344 124.234L116.273 124.047V122.961L113.18 123.148C112.201 123.206 111.443 123.448 110.906 123.875C110.375 124.297 110.109 124.883 110.109 125.633V125.648C110.109 126.159 110.232 126.602 110.477 126.977C110.727 127.352 111.062 127.641 111.484 127.844C111.911 128.047 112.391 128.148 112.922 128.148ZM119.438 128H120.797V123.016C120.797 122.521 120.885 122.096 121.062 121.742C121.245 121.388 121.5 121.115 121.828 120.922C122.156 120.729 122.544 120.633 122.992 120.633C123.664 120.633 124.159 120.818 124.477 121.188C124.799 121.552 124.961 122.115 124.961 122.875V128H126.32V122.547C126.32 121.547 126.065 120.779 125.555 120.242C125.049 119.701 124.323 119.43 123.375 119.43C122.755 119.43 122.245 119.555 121.844 119.805C121.443 120.049 121.135 120.396 120.922 120.844H120.797V119.578H119.438V128ZM131.891 128.148C132.479 128.148 133 128.018 133.453 127.758C133.906 127.492 134.26 127.125 134.516 126.656H134.641V128H136V116.234H134.641V120.906H134.516C134.286 120.458 133.935 120.102 133.461 119.836C132.992 119.565 132.469 119.43 131.891 119.43C131.177 119.43 130.555 119.609 130.023 119.969C129.497 120.328 129.089 120.833 128.797 121.484C128.505 122.135 128.359 122.901 128.359 123.781V123.797C128.359 124.672 128.505 125.438 128.797 126.094C129.089 126.745 129.5 127.25 130.031 127.609C130.562 127.969 131.182 128.148 131.891 128.148ZM132.203 126.945C131.693 126.945 131.253 126.82 130.883 126.57C130.518 126.315 130.237 125.953 130.039 125.484C129.846 125.01 129.75 124.448 129.75 123.797V123.781C129.75 123.125 129.846 122.562 130.039 122.094C130.237 121.625 130.518 121.266 130.883 121.016C131.253 120.76 131.693 120.633 132.203 120.633C132.714 120.633 133.154 120.76 133.523 121.016C133.893 121.271 134.177 121.633 134.375 122.102C134.573 122.57 134.672 123.13 134.672 123.781V123.797C134.672 124.443 134.573 125.003 134.375 125.477C134.177 125.945 133.893 126.307 133.523 126.562C133.154 126.818 132.714 126.945 132.203 126.945ZM143.281 128H144.594V119.391H145.281L143.711 117.039L148.242 128H149.43L153.969 117.039L152.391 119.391H153.078V128H154.391V116.727H152.758L148.898 126.133H148.773L144.914 116.727H143.281V128ZM159.914 128.148C160.534 128.148 161.052 128.026 161.469 127.781C161.891 127.536 162.206 127.19 162.414 126.742H162.539V128H163.898V119.578H162.539V124.562C162.539 125.052 162.453 125.477 162.281 125.836C162.109 126.19 161.854 126.464 161.516 126.656C161.177 126.849 160.76 126.945 160.266 126.945C159.594 126.945 159.109 126.76 158.812 126.391C158.521 126.021 158.375 125.458 158.375 124.703V119.578H157.016V125.031C157.016 125.693 157.122 126.258 157.336 126.727C157.555 127.19 157.88 127.544 158.312 127.789C158.745 128.029 159.279 128.148 159.914 128.148ZM166.516 128H167.875V116.234H166.516V128ZM173.477 128.062C173.612 128.062 173.745 128.055 173.875 128.039C174.005 128.023 174.135 128.005 174.266 127.984V126.828C174.141 126.839 174.034 126.846 173.945 126.852C173.862 126.857 173.76 126.859 173.641 126.859C173.203 126.859 172.891 126.753 172.703 126.539C172.516 126.32 172.422 125.964 172.422 125.469V120.703H174.266V119.578H172.422V117.398H171.016V119.578H169.688V120.703H171.016V125.812C171.016 126.615 171.208 127.19 171.594 127.539C171.984 127.888 172.612 128.062 173.477 128.062ZM176.328 128H177.688V119.578H176.328V128ZM177.016 117.953C177.276 117.953 177.497 117.862 177.68 117.68C177.862 117.492 177.953 117.271 177.953 117.016C177.953 116.755 177.862 116.534 177.68 116.352C177.497 116.169 177.276 116.078 177.016 116.078C176.76 116.078 176.539 116.169 176.352 116.352C176.169 116.534 176.078 116.755 176.078 117.016C176.078 117.271 176.169 117.492 176.352 117.68C176.539 117.862 176.76 117.953 177.016 117.953ZM180.25 128H181.609V122.781C181.609 122.385 181.693 122.026 181.859 121.703C182.031 121.375 182.263 121.115 182.555 120.922C182.852 120.729 183.182 120.633 183.547 120.633C184.078 120.633 184.503 120.784 184.82 121.086C185.138 121.383 185.297 121.781 185.297 122.281V128H186.656V122.586C186.656 122.227 186.737 121.901 186.898 121.609C187.06 121.312 187.286 121.076 187.578 120.898C187.87 120.721 188.211 120.633 188.602 120.633C189.195 120.633 189.635 120.789 189.922 121.102C190.214 121.409 190.359 121.872 190.359 122.492V128H191.719V122.18C191.719 121.591 191.615 121.094 191.406 120.688C191.198 120.276 190.893 119.964 190.492 119.75C190.096 119.536 189.612 119.43 189.039 119.43C188.654 119.43 188.292 119.492 187.953 119.617C187.62 119.737 187.326 119.909 187.07 120.133C186.815 120.352 186.612 120.609 186.461 120.906H186.336C186.206 120.615 186.031 120.359 185.812 120.141C185.594 119.917 185.333 119.742 185.031 119.617C184.729 119.492 184.388 119.43 184.008 119.43C183.456 119.43 182.984 119.555 182.594 119.805C182.208 120.055 181.922 120.406 181.734 120.859H181.609V119.578H180.25V128ZM197.609 128.148C198.104 128.148 198.549 128.086 198.945 127.961C199.346 127.831 199.693 127.659 199.984 127.445C200.276 127.227 200.513 126.984 200.695 126.719C200.883 126.448 201.013 126.169 201.086 125.883L201.102 125.82H199.742L199.711 125.891C199.638 126.057 199.51 126.221 199.328 126.383C199.146 126.544 198.914 126.677 198.633 126.781C198.352 126.885 198.021 126.938 197.641 126.938C197.13 126.938 196.688 126.826 196.312 126.602C195.938 126.372 195.648 126.047 195.445 125.625C195.242 125.198 195.141 124.685 195.141 124.086V123.547C195.141 122.917 195.245 122.385 195.453 121.953C195.661 121.521 195.943 121.195 196.297 120.977C196.656 120.753 197.062 120.641 197.516 120.641C197.969 120.641 198.37 120.747 198.719 120.961C199.068 121.169 199.341 121.487 199.539 121.914C199.737 122.341 199.836 122.885 199.836 123.547V124.086L200.508 123.094H194.453V124.18H201.203V123.648C201.203 122.81 201.055 122.076 200.758 121.445C200.466 120.81 200.044 120.315 199.492 119.961C198.945 119.607 198.289 119.43 197.523 119.43C196.763 119.43 196.099 119.615 195.531 119.984C194.964 120.354 194.523 120.867 194.211 121.523C193.904 122.18 193.75 122.943 193.75 123.812V123.82C193.75 124.701 193.904 125.466 194.211 126.117C194.523 126.763 194.966 127.263 195.539 127.617C196.117 127.971 196.807 128.148 197.609 128.148ZM206.422 128.148C207.01 128.148 207.531 128.018 207.984 127.758C208.438 127.492 208.792 127.125 209.047 126.656H209.172V128H210.531V116.234H209.172V120.906H209.047C208.818 120.458 208.466 120.102 207.992 119.836C207.523 119.565 207 119.43 206.422 119.43C205.708 119.43 205.086 119.609 204.555 119.969C204.029 120.328 203.62 120.833 203.328 121.484C203.036 122.135 202.891 122.901 202.891 123.781V123.797C202.891 124.672 203.036 125.438 203.328 126.094C203.62 126.745 204.031 127.25 204.562 127.609C205.094 127.969 205.714 128.148 206.422 128.148ZM206.734 126.945C206.224 126.945 205.784 126.82 205.414 126.57C205.049 126.315 204.768 125.953 204.57 125.484C204.378 125.01 204.281 124.448 204.281 123.797V123.781C204.281 123.125 204.378 122.562 204.57 122.094C204.768 121.625 205.049 121.266 205.414 121.016C205.784 120.76 206.224 120.633 206.734 120.633C207.245 120.633 207.685 120.76 208.055 121.016C208.424 121.271 208.708 121.633 208.906 122.102C209.104 122.57 209.203 123.13 209.203 123.781V123.797C209.203 124.443 209.104 125.003 208.906 125.477C208.708 125.945 208.424 126.307 208.055 126.562C207.685 126.818 207.245 126.945 206.734 126.945ZM213.172 128H214.531V119.578H213.172V128ZM213.859 117.953C214.12 117.953 214.341 117.862 214.523 117.68C214.706 117.492 214.797 117.271 214.797 117.016C214.797 116.755 214.706 116.534 214.523 116.352C214.341 116.169 214.12 116.078 213.859 116.078C213.604 116.078 213.383 116.169 213.195 116.352C213.013 116.534 212.922 116.755 212.922 117.016C212.922 117.271 213.013 117.492 213.195 117.68C213.383 117.862 213.604 117.953 213.859 117.953ZM219.406 128.148C219.786 128.148 220.135 128.096 220.453 127.992C220.771 127.883 221.055 127.724 221.305 127.516C221.56 127.307 221.776 127.055 221.953 126.758H222.078V128H223.438V122.234C223.438 121.651 223.312 121.151 223.062 120.734C222.818 120.312 222.456 119.99 221.977 119.766C221.503 119.542 220.922 119.43 220.234 119.43C219.635 119.43 219.102 119.523 218.633 119.711C218.164 119.893 217.781 120.151 217.484 120.484C217.193 120.812 217.01 121.198 216.938 121.641L216.93 121.688H218.289L218.297 121.664C218.406 121.336 218.622 121.083 218.945 120.906C219.268 120.724 219.682 120.633 220.188 120.633C220.818 120.633 221.289 120.771 221.602 121.047C221.919 121.318 222.078 121.714 222.078 122.234V124.859C222.078 125.26 221.974 125.62 221.766 125.938C221.562 126.255 221.281 126.508 220.922 126.695C220.562 126.878 220.151 126.969 219.688 126.969C219.198 126.969 218.792 126.852 218.469 126.617C218.146 126.378 217.984 126.044 217.984 125.617V125.602C217.984 125.185 218.13 124.862 218.422 124.633C218.719 124.404 219.188 124.271 219.828 124.234L222.758 124.047V122.961L219.664 123.148C218.685 123.206 217.927 123.448 217.391 123.875C216.859 124.297 216.594 124.883 216.594 125.633V125.648C216.594 126.159 216.716 126.602 216.961 126.977C217.211 127.352 217.547 127.641 217.969 127.844C218.396 128.047 218.875 128.148 219.406 128.148Z" fill="black"/>
<path d="M111.426 199.266C112.264 199.266 112.996 199.128 113.621 198.852C114.246 198.57 114.73 198.174 115.074 197.664C115.418 197.154 115.59 196.547 115.59 195.844V195.836C115.59 195.023 115.337 194.37 114.832 193.875C114.327 193.38 113.486 193.003 112.309 192.742L111.059 192.461C110.293 192.294 109.743 192.057 109.41 191.75C109.077 191.443 108.91 191.065 108.91 190.617V190.609C108.91 190.214 109.02 189.88 109.238 189.609C109.462 189.333 109.762 189.122 110.137 188.977C110.512 188.831 110.934 188.758 111.402 188.758C111.892 188.753 112.319 188.826 112.684 188.977C113.048 189.128 113.34 189.333 113.559 189.594C113.777 189.849 113.913 190.143 113.965 190.477L113.98 190.578H115.387L115.379 190.469C115.342 189.906 115.152 189.398 114.809 188.945C114.47 188.492 114.012 188.133 113.434 187.867C112.855 187.596 112.191 187.461 111.441 187.461C110.665 187.461 109.978 187.596 109.379 187.867C108.785 188.138 108.319 188.513 107.98 188.992C107.647 189.471 107.478 190.023 107.473 190.648V190.656C107.473 191.474 107.728 192.146 108.238 192.672C108.754 193.193 109.577 193.578 110.707 193.828L111.957 194.102C112.733 194.273 113.293 194.521 113.637 194.844C113.98 195.161 114.152 195.555 114.152 196.023V196.031C114.152 196.411 114.038 196.747 113.809 197.039C113.579 197.331 113.264 197.56 112.863 197.727C112.467 197.888 112.014 197.969 111.504 197.969C110.962 197.969 110.478 197.893 110.051 197.742C109.629 197.591 109.29 197.38 109.035 197.109C108.785 196.833 108.642 196.508 108.605 196.133L108.598 196.047H107.191L107.199 196.133C107.257 196.742 107.462 197.284 107.816 197.758C108.176 198.227 108.66 198.596 109.27 198.867C109.884 199.133 110.603 199.266 111.426 199.266ZM121.199 199.148C121.694 199.148 122.139 199.086 122.535 198.961C122.936 198.831 123.283 198.659 123.574 198.445C123.866 198.227 124.103 197.984 124.285 197.719C124.473 197.448 124.603 197.169 124.676 196.883L124.691 196.82H123.332L123.301 196.891C123.228 197.057 123.1 197.221 122.918 197.383C122.736 197.544 122.504 197.677 122.223 197.781C121.941 197.885 121.611 197.938 121.23 197.938C120.72 197.938 120.277 197.826 119.902 197.602C119.527 197.372 119.238 197.047 119.035 196.625C118.832 196.198 118.73 195.685 118.73 195.086V194.547C118.73 193.917 118.835 193.385 119.043 192.953C119.251 192.521 119.533 192.195 119.887 191.977C120.246 191.753 120.652 191.641 121.105 191.641C121.559 191.641 121.96 191.747 122.309 191.961C122.658 192.169 122.931 192.487 123.129 192.914C123.327 193.341 123.426 193.885 123.426 194.547V195.086L124.098 194.094H118.043V195.18H124.793V194.648C124.793 193.81 124.645 193.076 124.348 192.445C124.056 191.81 123.634 191.315 123.082 190.961C122.535 190.607 121.879 190.43 121.113 190.43C120.353 190.43 119.689 190.615 119.121 190.984C118.553 191.354 118.113 191.867 117.801 192.523C117.493 193.18 117.34 193.943 117.34 194.812V194.82C117.34 195.701 117.493 196.466 117.801 197.117C118.113 197.763 118.556 198.263 119.129 198.617C119.707 198.971 120.397 199.148 121.199 199.148ZM126.902 199H128.262V194.016C128.262 193.521 128.35 193.096 128.527 192.742C128.71 192.388 128.965 192.115 129.293 191.922C129.621 191.729 130.009 191.633 130.457 191.633C131.129 191.633 131.624 191.818 131.941 192.188C132.264 192.552 132.426 193.115 132.426 193.875V199H133.785V193.547C133.785 192.547 133.53 191.779 133.02 191.242C132.514 190.701 131.788 190.43 130.84 190.43C130.22 190.43 129.71 190.555 129.309 190.805C128.908 191.049 128.6 191.396 128.387 191.844H128.262V190.578H126.902V199ZM136.277 199H137.637V190.578H136.277V199ZM136.965 188.953C137.225 188.953 137.447 188.862 137.629 188.68C137.811 188.492 137.902 188.271 137.902 188.016C137.902 187.755 137.811 187.534 137.629 187.352C137.447 187.169 137.225 187.078 136.965 187.078C136.71 187.078 136.488 187.169 136.301 187.352C136.118 187.534 136.027 187.755 136.027 188.016C136.027 188.271 136.118 188.492 136.301 188.68C136.488 188.862 136.71 188.953 136.965 188.953ZM143.66 199.148C144.462 199.148 145.152 198.974 145.73 198.625C146.309 198.271 146.754 197.768 147.066 197.117C147.384 196.466 147.543 195.693 147.543 194.797V194.781C147.543 193.88 147.384 193.104 147.066 192.453C146.754 191.802 146.309 191.302 145.73 190.953C145.152 190.604 144.462 190.43 143.66 190.43C142.863 190.43 142.173 190.604 141.59 190.953C141.012 191.302 140.564 191.802 140.246 192.453C139.934 193.104 139.777 193.88 139.777 194.781V194.797C139.777 195.693 139.934 196.466 140.246 197.117C140.564 197.768 141.012 198.271 141.59 198.625C142.173 198.974 142.863 199.148 143.66 199.148ZM143.66 197.945C143.129 197.945 142.678 197.82 142.309 197.57C141.939 197.32 141.655 196.961 141.457 196.492C141.264 196.023 141.168 195.458 141.168 194.797V194.781C141.168 194.115 141.264 193.547 141.457 193.078C141.655 192.609 141.939 192.253 142.309 192.008C142.678 191.758 143.129 191.633 143.66 191.633C144.191 191.633 144.642 191.758 145.012 192.008C145.382 192.253 145.663 192.609 145.855 193.078C146.053 193.547 146.152 194.115 146.152 194.781V194.797C146.152 195.458 146.053 196.023 145.855 196.492C145.663 196.961 145.382 197.32 145.012 197.57C144.642 197.82 144.191 197.945 143.66 197.945ZM149.652 199H151.012V193.781C151.012 193.37 151.105 193.01 151.293 192.703C151.486 192.396 151.749 192.156 152.082 191.984C152.415 191.812 152.798 191.727 153.23 191.727C153.382 191.727 153.522 191.734 153.652 191.75C153.788 191.76 153.926 191.779 154.066 191.805V190.484C153.999 190.474 153.9 190.464 153.77 190.453C153.645 190.438 153.517 190.43 153.387 190.43C152.819 190.43 152.342 190.552 151.957 190.797C151.572 191.042 151.298 191.385 151.137 191.828H151.012V190.578H149.652V199ZM160.418 199H164.285C165.405 199 166.361 198.779 167.152 198.336C167.944 197.888 168.551 197.245 168.973 196.406C169.395 195.562 169.605 194.549 169.605 193.367V193.352C169.605 192.169 169.395 191.159 168.973 190.32C168.551 189.482 167.941 188.841 167.145 188.398C166.353 187.951 165.4 187.727 164.285 187.727H160.418V199ZM161.824 197.734V188.992H164.191C165.025 188.992 165.738 189.167 166.332 189.516C166.926 189.859 167.379 190.359 167.691 191.016C168.009 191.667 168.168 192.451 168.168 193.367V193.383C168.168 194.294 168.012 195.076 167.699 195.727C167.387 196.378 166.934 196.875 166.34 197.219C165.746 197.562 165.03 197.734 164.191 197.734H161.824ZM175.309 199.148C175.803 199.148 176.249 199.086 176.645 198.961C177.046 198.831 177.392 198.659 177.684 198.445C177.975 198.227 178.212 197.984 178.395 197.719C178.582 197.448 178.712 197.169 178.785 196.883L178.801 196.82H177.441L177.41 196.891C177.337 197.057 177.21 197.221 177.027 197.383C176.845 197.544 176.613 197.677 176.332 197.781C176.051 197.885 175.72 197.938 175.34 197.938C174.829 197.938 174.387 197.826 174.012 197.602C173.637 197.372 173.348 197.047 173.145 196.625C172.941 196.198 172.84 195.685 172.84 195.086V194.547C172.84 193.917 172.944 193.385 173.152 192.953C173.361 192.521 173.642 192.195 173.996 191.977C174.355 191.753 174.762 191.641 175.215 191.641C175.668 191.641 176.069 191.747 176.418 191.961C176.767 192.169 177.04 192.487 177.238 192.914C177.436 193.341 177.535 193.885 177.535 194.547V195.086L178.207 194.094H172.152V195.18H178.902V194.648C178.902 193.81 178.754 193.076 178.457 192.445C178.165 191.81 177.743 191.315 177.191 190.961C176.645 190.607 175.988 190.43 175.223 190.43C174.462 190.43 173.798 190.615 173.23 190.984C172.663 191.354 172.223 191.867 171.91 192.523C171.603 193.18 171.449 193.943 171.449 194.812V194.82C171.449 195.701 171.603 196.466 171.91 197.117C172.223 197.763 172.665 198.263 173.238 198.617C173.816 198.971 174.507 199.148 175.309 199.148ZM183.902 199.148C184.543 199.148 185.116 199.042 185.621 198.828C186.132 198.615 186.535 198.318 186.832 197.938C187.129 197.552 187.277 197.109 187.277 196.609V196.594C187.277 195.99 187.082 195.508 186.691 195.148C186.306 194.789 185.717 194.513 184.926 194.32L183.629 194.008C183.134 193.888 182.775 193.734 182.551 193.547C182.327 193.359 182.215 193.122 182.215 192.836V192.82C182.215 192.57 182.29 192.352 182.441 192.164C182.592 191.977 182.798 191.831 183.059 191.727C183.319 191.617 183.616 191.562 183.949 191.562C184.46 191.562 184.874 191.667 185.191 191.875C185.509 192.083 185.712 192.354 185.801 192.688H187.137C187.074 192.229 186.902 191.831 186.621 191.492C186.345 191.154 185.978 190.893 185.52 190.711C185.066 190.523 184.546 190.43 183.957 190.43C183.363 190.43 182.829 190.536 182.355 190.75C181.882 190.964 181.507 191.255 181.23 191.625C180.96 191.995 180.824 192.414 180.824 192.883V192.891C180.824 193.495 181.009 193.979 181.379 194.344C181.749 194.703 182.327 194.977 183.113 195.164L184.418 195.477C184.939 195.602 185.314 195.766 185.543 195.969C185.772 196.167 185.887 196.409 185.887 196.695V196.711C185.887 196.966 185.803 197.193 185.637 197.391C185.47 197.583 185.241 197.737 184.949 197.852C184.663 197.961 184.329 198.016 183.949 198.016C183.413 198.016 182.978 197.909 182.645 197.695C182.311 197.482 182.087 197.201 181.973 196.852H180.582C180.634 197.315 180.803 197.719 181.09 198.062C181.382 198.406 181.767 198.674 182.246 198.867C182.725 199.055 183.277 199.148 183.902 199.148ZM189.418 199H190.777V190.578H189.418V199ZM190.105 188.953C190.366 188.953 190.587 188.862 190.77 188.68C190.952 188.492 191.043 188.271 191.043 188.016C191.043 187.755 190.952 187.534 190.77 187.352C190.587 187.169 190.366 187.078 190.105 187.078C189.85 187.078 189.629 187.169 189.441 187.352C189.259 187.534 189.168 187.755 189.168 188.016C189.168 188.271 189.259 188.492 189.441 188.68C189.629 188.862 189.85 188.953 190.105 188.953ZM196.809 201.969C197.574 201.969 198.238 201.841 198.801 201.586C199.363 201.336 199.796 200.979 200.098 200.516C200.405 200.052 200.559 199.508 200.559 198.883V190.578H199.199V191.969H199.105C198.934 191.651 198.717 191.378 198.457 191.148C198.202 190.919 197.908 190.742 197.574 190.617C197.241 190.492 196.876 190.43 196.48 190.43C195.746 190.43 195.113 190.607 194.582 190.961C194.051 191.31 193.639 191.792 193.348 192.406C193.061 193.016 192.918 193.714 192.918 194.5V194.516C192.918 195.302 193.061 196 193.348 196.609C193.634 197.219 194.04 197.698 194.566 198.047C195.098 198.391 195.725 198.562 196.449 198.562C196.835 198.562 197.194 198.508 197.527 198.398C197.861 198.284 198.16 198.117 198.426 197.898C198.691 197.68 198.913 197.417 199.09 197.109H199.215V198.812C199.215 199.432 199.001 199.911 198.574 200.25C198.152 200.594 197.564 200.766 196.809 200.766C196.204 200.766 195.72 200.661 195.355 200.453C194.991 200.25 194.772 199.99 194.699 199.672L194.691 199.664H193.285L193.27 199.672C193.342 200.13 193.527 200.531 193.824 200.875C194.126 201.224 194.53 201.492 195.035 201.68C195.54 201.872 196.132 201.969 196.809 201.969ZM196.746 197.359C196.225 197.359 195.783 197.24 195.418 197C195.059 196.755 194.783 196.419 194.59 195.992C194.402 195.565 194.309 195.073 194.309 194.516V194.5C194.309 193.943 194.402 193.448 194.59 193.016C194.783 192.583 195.059 192.245 195.418 192C195.783 191.755 196.225 191.633 196.746 191.633C197.267 191.633 197.712 191.755 198.082 192C198.457 192.245 198.743 192.583 198.941 193.016C199.145 193.448 199.246 193.943 199.246 194.5V194.516C199.246 195.073 199.145 195.565 198.941 195.992C198.743 196.419 198.457 196.755 198.082 197C197.712 197.24 197.267 197.359 196.746 197.359ZM203.09 199H204.449V194.016C204.449 193.521 204.538 193.096 204.715 192.742C204.897 192.388 205.152 192.115 205.48 191.922C205.809 191.729 206.197 191.633 206.645 191.633C207.316 191.633 207.811 191.818 208.129 192.188C208.452 192.552 208.613 193.115 208.613 193.875V199H209.973V193.547C209.973 192.547 209.717 191.779 209.207 191.242C208.702 190.701 207.975 190.43 207.027 190.43C206.408 190.43 205.897 190.555 205.496 190.805C205.095 191.049 204.788 191.396 204.574 191.844H204.449V190.578H203.09V199ZM215.871 199.148C216.366 199.148 216.811 199.086 217.207 198.961C217.608 198.831 217.954 198.659 218.246 198.445C218.538 198.227 218.775 197.984 218.957 197.719C219.145 197.448 219.275 197.169 219.348 196.883L219.363 196.82H218.004L217.973 196.891C217.9 197.057 217.772 197.221 217.59 197.383C217.408 197.544 217.176 197.677 216.895 197.781C216.613 197.885 216.283 197.938 215.902 197.938C215.392 197.938 214.949 197.826 214.574 197.602C214.199 197.372 213.91 197.047 213.707 196.625C213.504 196.198 213.402 195.685 213.402 195.086V194.547C213.402 193.917 213.507 193.385 213.715 192.953C213.923 192.521 214.204 192.195 214.559 191.977C214.918 191.753 215.324 191.641 215.777 191.641C216.23 191.641 216.632 191.747 216.98 191.961C217.329 192.169 217.603 192.487 217.801 192.914C217.999 193.341 218.098 193.885 218.098 194.547V195.086L218.77 194.094H212.715V195.18H219.465V194.648C219.465 193.81 219.316 193.076 219.02 192.445C218.728 191.81 218.306 191.315 217.754 190.961C217.207 190.607 216.551 190.43 215.785 190.43C215.025 190.43 214.361 190.615 213.793 190.984C213.225 191.354 212.785 191.867 212.473 192.523C212.165 193.18 212.012 193.943 212.012 194.812V194.82C212.012 195.701 212.165 196.466 212.473 197.117C212.785 197.763 213.228 198.263 213.801 198.617C214.379 198.971 215.069 199.148 215.871 199.148ZM221.574 199H222.934V193.781C222.934 193.37 223.027 193.01 223.215 192.703C223.408 192.396 223.671 192.156 224.004 191.984C224.337 191.812 224.72 191.727 225.152 191.727C225.303 191.727 225.444 191.734 225.574 191.75C225.71 191.76 225.848 191.779 225.988 191.805V190.484C225.921 190.474 225.822 190.464 225.691 190.453C225.566 190.438 225.439 190.43 225.309 190.43C224.741 190.43 224.264 190.552 223.879 190.797C223.493 191.042 223.22 191.385 223.059 191.828H222.934V190.578H221.574V199Z" fill="black"/>
<path d="M65.8438 270.266C66.6458 270.266 67.3646 270.125 68 269.844C68.6406 269.562 69.1693 269.169 69.5859 268.664C70.0026 268.154 70.2734 267.555 70.3984 266.867V266.852H68.9766L68.9609 266.867C68.8464 267.299 68.6432 267.674 68.3516 267.992C68.0599 268.305 67.7005 268.547 67.2734 268.719C66.8464 268.885 66.3698 268.969 65.8438 268.969C65.1198 268.969 64.4922 268.781 63.9609 268.406C63.4349 268.031 63.0286 267.5 62.7422 266.812C62.4557 266.125 62.3125 265.312 62.3125 264.375V264.359C62.3125 263.417 62.4557 262.602 62.7422 261.914C63.0286 261.227 63.4349 260.695 63.9609 260.32C64.4922 259.945 65.1172 259.758 65.8359 259.758C66.3568 259.758 66.8281 259.854 67.25 260.047C67.6771 260.24 68.0391 260.513 68.3359 260.867C68.6328 261.216 68.8438 261.633 68.9688 262.117L68.9766 262.133H70.3906L70.3984 262.117C70.2891 261.398 70.0234 260.766 69.6016 260.219C69.1797 259.667 68.6432 259.237 67.9922 258.93C67.3464 258.617 66.6276 258.461 65.8359 258.461C64.8151 258.461 63.9323 258.701 63.1875 259.18C62.4479 259.659 61.875 260.339 61.4688 261.219C61.0677 262.099 60.8672 263.146 60.8672 264.359V264.375C60.8672 265.583 61.0677 266.628 61.4688 267.508C61.875 268.388 62.4505 269.068 63.1953 269.547C63.9401 270.026 64.8229 270.266 65.8438 270.266ZM76.0469 270.148C76.849 270.148 77.5391 269.974 78.1172 269.625C78.6953 269.271 79.1406 268.768 79.4531 268.117C79.7708 267.466 79.9297 266.693 79.9297 265.797V265.781C79.9297 264.88 79.7708 264.104 79.4531 263.453C79.1406 262.802 78.6953 262.302 78.1172 261.953C77.5391 261.604 76.849 261.43 76.0469 261.43C75.25 261.43 74.5599 261.604 73.9766 261.953C73.3984 262.302 72.9505 262.802 72.6328 263.453C72.3203 264.104 72.1641 264.88 72.1641 265.781V265.797C72.1641 266.693 72.3203 267.466 72.6328 268.117C72.9505 268.768 73.3984 269.271 73.9766 269.625C74.5599 269.974 75.25 270.148 76.0469 270.148ZM76.0469 268.945C75.5156 268.945 75.0651 268.82 74.6953 268.57C74.3255 268.32 74.0417 267.961 73.8438 267.492C73.651 267.023 73.5547 266.458 73.5547 265.797V265.781C73.5547 265.115 73.651 264.547 73.8438 264.078C74.0417 263.609 74.3255 263.253 74.6953 263.008C75.0651 262.758 75.5156 262.633 76.0469 262.633C76.5781 262.633 77.0286 262.758 77.3984 263.008C77.7682 263.253 78.0495 263.609 78.2422 264.078C78.4401 264.547 78.5391 265.115 78.5391 265.781V265.797C78.5391 266.458 78.4401 267.023 78.2422 267.492C78.0495 267.961 77.7682 268.32 77.3984 268.57C77.0286 268.82 76.5781 268.945 76.0469 268.945ZM82.0391 270H83.3984V264.781C83.3984 264.385 83.4818 264.026 83.6484 263.703C83.8203 263.375 84.0521 263.115 84.3438 262.922C84.6406 262.729 84.9714 262.633 85.3359 262.633C85.8672 262.633 86.2917 262.784 86.6094 263.086C86.9271 263.383 87.0859 263.781 87.0859 264.281V270H88.4453V264.586C88.4453 264.227 88.526 263.901 88.6875 263.609C88.849 263.312 89.0755 263.076 89.3672 262.898C89.6589 262.721 90 262.633 90.3906 262.633C90.9844 262.633 91.4245 262.789 91.7109 263.102C92.0026 263.409 92.1484 263.872 92.1484 264.492V270H93.5078V264.18C93.5078 263.591 93.4036 263.094 93.1953 262.688C92.987 262.276 92.6823 261.964 92.2812 261.75C91.8854 261.536 91.401 261.43 90.8281 261.43C90.4427 261.43 90.0807 261.492 89.7422 261.617C89.4089 261.737 89.1146 261.909 88.8594 262.133C88.6042 262.352 88.401 262.609 88.25 262.906H88.125C87.9948 262.615 87.8203 262.359 87.6016 262.141C87.3828 261.917 87.1224 261.742 86.8203 261.617C86.5182 261.492 86.1771 261.43 85.7969 261.43C85.2448 261.43 84.7734 261.555 84.3828 261.805C83.9974 262.055 83.7109 262.406 83.5234 262.859H83.3984V261.578H82.0391V270ZM95.9609 270H97.3203V264.781C97.3203 264.385 97.4036 264.026 97.5703 263.703C97.7422 263.375 97.974 263.115 98.2656 262.922C98.5625 262.729 98.8932 262.633 99.2578 262.633C99.7891 262.633 100.214 262.784 100.531 263.086C100.849 263.383 101.008 263.781 101.008 264.281V270H102.367V264.586C102.367 264.227 102.448 263.901 102.609 263.609C102.771 263.312 102.997 263.076 103.289 262.898C103.581 262.721 103.922 262.633 104.312 262.633C104.906 262.633 105.346 262.789 105.633 263.102C105.924 263.409 106.07 263.872 106.07 264.492V270H107.43V264.18C107.43 263.591 107.326 263.094 107.117 262.688C106.909 262.276 106.604 261.964 106.203 261.75C105.807 261.536 105.323 261.43 104.75 261.43C104.365 261.43 104.003 261.492 103.664 261.617C103.331 261.737 103.036 261.909 102.781 262.133C102.526 262.352 102.323 262.609 102.172 262.906H102.047C101.917 262.615 101.742 262.359 101.523 262.141C101.305 261.917 101.044 261.742 100.742 261.617C100.44 261.492 100.099 261.43 99.7188 261.43C99.1667 261.43 98.6953 261.555 98.3047 261.805C97.9193 262.055 97.6328 262.406 97.4453 262.859H97.3203V261.578H95.9609V270ZM112.703 270.148C113.323 270.148 113.841 270.026 114.258 269.781C114.68 269.536 114.995 269.19 115.203 268.742H115.328V270H116.688V261.578H115.328V266.562C115.328 267.052 115.242 267.477 115.07 267.836C114.898 268.19 114.643 268.464 114.305 268.656C113.966 268.849 113.549 268.945 113.055 268.945C112.383 268.945 111.898 268.76 111.602 268.391C111.31 268.021 111.164 267.458 111.164 266.703V261.578H109.805V267.031C109.805 267.693 109.911 268.258 110.125 268.727C110.344 269.19 110.669 269.544 111.102 269.789C111.534 270.029 112.068 270.148 112.703 270.148ZM119.227 270H120.586V265.016C120.586 264.521 120.674 264.096 120.852 263.742C121.034 263.388 121.289 263.115 121.617 262.922C121.945 262.729 122.333 262.633 122.781 262.633C123.453 262.633 123.948 262.818 124.266 263.188C124.589 263.552 124.75 264.115 124.75 264.875V270H126.109V264.547C126.109 263.547 125.854 262.779 125.344 262.242C124.839 261.701 124.112 261.43 123.164 261.43C122.544 261.43 122.034 261.555 121.633 261.805C121.232 262.049 120.924 262.396 120.711 262.844H120.586V261.578H119.227V270ZM128.602 270H129.961V261.578H128.602V270ZM129.289 259.953C129.549 259.953 129.771 259.862 129.953 259.68C130.135 259.492 130.227 259.271 130.227 259.016C130.227 258.755 130.135 258.534 129.953 258.352C129.771 258.169 129.549 258.078 129.289 258.078C129.034 258.078 128.812 258.169 128.625 258.352C128.443 258.534 128.352 258.755 128.352 259.016C128.352 259.271 128.443 259.492 128.625 259.68C128.812 259.862 129.034 259.953 129.289 259.953ZM135.969 270.148C136.646 270.148 137.224 270.036 137.703 269.812C138.182 269.589 138.568 269.281 138.859 268.891C139.151 268.495 139.354 268.044 139.469 267.539L139.484 267.453L138.141 267.461L138.125 267.508C137.969 267.977 137.711 268.333 137.352 268.578C136.992 268.823 136.529 268.945 135.961 268.945C135.461 268.945 135.026 268.815 134.656 268.555C134.286 268.294 134 267.927 133.797 267.453C133.594 266.974 133.492 266.411 133.492 265.766V265.75C133.492 265.115 133.591 264.565 133.789 264.102C133.992 263.633 134.279 263.271 134.648 263.016C135.018 262.76 135.456 262.633 135.961 262.633C136.565 262.633 137.052 262.779 137.422 263.07C137.792 263.362 138.029 263.716 138.133 264.133L138.141 264.156H139.492L139.484 264.109C139.401 263.609 139.211 263.159 138.914 262.758C138.617 262.352 138.221 262.029 137.727 261.789C137.232 261.549 136.643 261.43 135.961 261.43C135.174 261.43 134.492 261.609 133.914 261.969C133.336 262.323 132.888 262.823 132.57 263.469C132.258 264.115 132.102 264.875 132.102 265.75V265.766C132.102 266.656 132.26 267.43 132.578 268.086C132.896 268.742 133.344 269.25 133.922 269.609C134.5 269.969 135.182 270.148 135.969 270.148ZM143.789 270.148C144.169 270.148 144.518 270.096 144.836 269.992C145.154 269.883 145.438 269.724 145.688 269.516C145.943 269.307 146.159 269.055 146.336 268.758H146.461V270H147.82V264.234C147.82 263.651 147.695 263.151 147.445 262.734C147.201 262.312 146.839 261.99 146.359 261.766C145.885 261.542 145.305 261.43 144.617 261.43C144.018 261.43 143.484 261.523 143.016 261.711C142.547 261.893 142.164 262.151 141.867 262.484C141.576 262.812 141.393 263.198 141.32 263.641L141.312 263.688H142.672L142.68 263.664C142.789 263.336 143.005 263.083 143.328 262.906C143.651 262.724 144.065 262.633 144.57 262.633C145.201 262.633 145.672 262.771 145.984 263.047C146.302 263.318 146.461 263.714 146.461 264.234V266.859C146.461 267.26 146.357 267.62 146.148 267.938C145.945 268.255 145.664 268.508 145.305 268.695C144.945 268.878 144.534 268.969 144.07 268.969C143.581 268.969 143.174 268.852 142.852 268.617C142.529 268.378 142.367 268.044 142.367 267.617V267.602C142.367 267.185 142.513 266.862 142.805 266.633C143.102 266.404 143.57 266.271 144.211 266.234L147.141 266.047V264.961L144.047 265.148C143.068 265.206 142.31 265.448 141.773 265.875C141.242 266.297 140.977 266.883 140.977 267.633V267.648C140.977 268.159 141.099 268.602 141.344 268.977C141.594 269.352 141.93 269.641 142.352 269.844C142.779 270.047 143.258 270.148 143.789 270.148ZM153.297 270.062C153.432 270.062 153.565 270.055 153.695 270.039C153.826 270.023 153.956 270.005 154.086 269.984V268.828C153.961 268.839 153.854 268.846 153.766 268.852C153.682 268.857 153.581 268.859 153.461 268.859C153.023 268.859 152.711 268.753 152.523 268.539C152.336 268.32 152.242 267.964 152.242 267.469V262.703H154.086V261.578H152.242V259.398H150.836V261.578H149.508V262.703H150.836V267.812C150.836 268.615 151.029 269.19 151.414 269.539C151.805 269.888 152.432 270.062 153.297 270.062ZM156.148 270H157.508V261.578H156.148V270ZM156.836 259.953C157.096 259.953 157.318 259.862 157.5 259.68C157.682 259.492 157.773 259.271 157.773 259.016C157.773 258.755 157.682 258.534 157.5 258.352C157.318 258.169 157.096 258.078 156.836 258.078C156.581 258.078 156.359 258.169 156.172 258.352C155.99 258.534 155.898 258.755 155.898 259.016C155.898 259.271 155.99 259.492 156.172 259.68C156.359 259.862 156.581 259.953 156.836 259.953ZM163.531 270.148C164.333 270.148 165.023 269.974 165.602 269.625C166.18 269.271 166.625 268.768 166.938 268.117C167.255 267.466 167.414 266.693 167.414 265.797V265.781C167.414 264.88 167.255 264.104 166.938 263.453C166.625 262.802 166.18 262.302 165.602 261.953C165.023 261.604 164.333 261.43 163.531 261.43C162.734 261.43 162.044 261.604 161.461 261.953C160.883 262.302 160.435 262.802 160.117 263.453C159.805 264.104 159.648 264.88 159.648 265.781V265.797C159.648 266.693 159.805 267.466 160.117 268.117C160.435 268.768 160.883 269.271 161.461 269.625C162.044 269.974 162.734 270.148 163.531 270.148ZM163.531 268.945C163 268.945 162.549 268.82 162.18 268.57C161.81 268.32 161.526 267.961 161.328 267.492C161.135 267.023 161.039 266.458 161.039 265.797V265.781C161.039 265.115 161.135 264.547 161.328 264.078C161.526 263.609 161.81 263.253 162.18 263.008C162.549 262.758 163 262.633 163.531 262.633C164.062 262.633 164.513 262.758 164.883 263.008C165.253 263.253 165.534 263.609 165.727 264.078C165.924 264.547 166.023 265.115 166.023 265.781V265.797C166.023 266.458 165.924 267.023 165.727 267.492C165.534 267.961 165.253 268.32 164.883 268.57C164.513 268.82 164.062 268.945 163.531 268.945ZM169.523 270H170.883V265.016C170.883 264.521 170.971 264.096 171.148 263.742C171.331 263.388 171.586 263.115 171.914 262.922C172.242 262.729 172.63 262.633 173.078 262.633C173.75 262.633 174.245 262.818 174.562 263.188C174.885 263.552 175.047 264.115 175.047 264.875V270H176.406V264.547C176.406 263.547 176.151 262.779 175.641 262.242C175.135 261.701 174.409 261.43 173.461 261.43C172.841 261.43 172.331 261.555 171.93 261.805C171.529 262.049 171.221 262.396 171.008 262.844H170.883V261.578H169.523V270ZM188.078 270.266C188.88 270.266 189.599 270.125 190.234 269.844C190.875 269.562 191.404 269.169 191.82 268.664C192.237 268.154 192.508 267.555 192.633 266.867V266.852H191.211L191.195 266.867C191.081 267.299 190.878 267.674 190.586 267.992C190.294 268.305 189.935 268.547 189.508 268.719C189.081 268.885 188.604 268.969 188.078 268.969C187.354 268.969 186.727 268.781 186.195 268.406C185.669 268.031 185.263 267.5 184.977 266.812C184.69 266.125 184.547 265.312 184.547 264.375V264.359C184.547 263.417 184.69 262.602 184.977 261.914C185.263 261.227 185.669 260.695 186.195 260.32C186.727 259.945 187.352 259.758 188.07 259.758C188.591 259.758 189.062 259.854 189.484 260.047C189.911 260.24 190.273 260.513 190.57 260.867C190.867 261.216 191.078 261.633 191.203 262.117L191.211 262.133H192.625L192.633 262.117C192.523 261.398 192.258 260.766 191.836 260.219C191.414 259.667 190.878 259.237 190.227 258.93C189.581 258.617 188.862 258.461 188.07 258.461C187.049 258.461 186.167 258.701 185.422 259.18C184.682 259.659 184.109 260.339 183.703 261.219C183.302 262.099 183.102 263.146 183.102 264.359V264.375C183.102 265.583 183.302 266.628 183.703 267.508C184.109 268.388 184.685 269.068 185.43 269.547C186.174 270.026 187.057 270.266 188.078 270.266ZM198.281 270.148C199.083 270.148 199.773 269.974 200.352 269.625C200.93 269.271 201.375 268.768 201.688 268.117C202.005 267.466 202.164 266.693 202.164 265.797V265.781C202.164 264.88 202.005 264.104 201.688 263.453C201.375 262.802 200.93 262.302 200.352 261.953C199.773 261.604 199.083 261.43 198.281 261.43C197.484 261.43 196.794 261.604 196.211 261.953C195.633 262.302 195.185 262.802 194.867 263.453C194.555 264.104 194.398 264.88 194.398 265.781V265.797C194.398 266.693 194.555 267.466 194.867 268.117C195.185 268.768 195.633 269.271 196.211 269.625C196.794 269.974 197.484 270.148 198.281 270.148ZM198.281 268.945C197.75 268.945 197.299 268.82 196.93 268.57C196.56 268.32 196.276 267.961 196.078 267.492C195.885 267.023 195.789 266.458 195.789 265.797V265.781C195.789 265.115 195.885 264.547 196.078 264.078C196.276 263.609 196.56 263.253 196.93 263.008C197.299 262.758 197.75 262.633 198.281 262.633C198.812 262.633 199.263 262.758 199.633 263.008C200.003 263.253 200.284 263.609 200.477 264.078C200.674 264.547 200.773 265.115 200.773 265.781V265.797C200.773 266.458 200.674 267.023 200.477 267.492C200.284 267.961 200.003 268.32 199.633 268.57C199.263 268.82 198.812 268.945 198.281 268.945ZM207.734 270.148C208.536 270.148 209.227 269.974 209.805 269.625C210.383 269.271 210.828 268.768 211.141 268.117C211.458 267.466 211.617 266.693 211.617 265.797V265.781C211.617 264.88 211.458 264.104 211.141 263.453C210.828 262.802 210.383 262.302 209.805 261.953C209.227 261.604 208.536 261.43 207.734 261.43C206.938 261.43 206.247 261.604 205.664 261.953C205.086 262.302 204.638 262.802 204.32 263.453C204.008 264.104 203.852 264.88 203.852 265.781V265.797C203.852 266.693 204.008 267.466 204.32 268.117C204.638 268.768 205.086 269.271 205.664 269.625C206.247 269.974 206.938 270.148 207.734 270.148ZM207.734 268.945C207.203 268.945 206.753 268.82 206.383 268.57C206.013 268.32 205.729 267.961 205.531 267.492C205.339 267.023 205.242 266.458 205.242 265.797V265.781C205.242 265.115 205.339 264.547 205.531 264.078C205.729 263.609 206.013 263.253 206.383 263.008C206.753 262.758 207.203 262.633 207.734 262.633C208.266 262.633 208.716 262.758 209.086 263.008C209.456 263.253 209.737 263.609 209.93 264.078C210.128 264.547 210.227 265.115 210.227 265.781V265.797C210.227 266.458 210.128 267.023 209.93 267.492C209.737 267.961 209.456 268.32 209.086 268.57C208.716 268.82 208.266 268.945 207.734 268.945ZM213.727 270H215.086V264.781C215.086 264.37 215.18 264.01 215.367 263.703C215.56 263.396 215.823 263.156 216.156 262.984C216.49 262.812 216.872 262.727 217.305 262.727C217.456 262.727 217.596 262.734 217.727 262.75C217.862 262.76 218 262.779 218.141 262.805V261.484C218.073 261.474 217.974 261.464 217.844 261.453C217.719 261.438 217.591 261.43 217.461 261.43C216.893 261.43 216.417 261.552 216.031 261.797C215.646 262.042 215.372 262.385 215.211 262.828H215.086V261.578H213.727V270ZM222.695 270.148C223.284 270.148 223.805 270.018 224.258 269.758C224.711 269.492 225.065 269.125 225.32 268.656H225.445V270H226.805V258.234H225.445V262.906H225.32C225.091 262.458 224.74 262.102 224.266 261.836C223.797 261.565 223.273 261.43 222.695 261.43C221.982 261.43 221.359 261.609 220.828 261.969C220.302 262.328 219.893 262.833 219.602 263.484C219.31 264.135 219.164 264.901 219.164 265.781V265.797C219.164 266.672 219.31 267.438 219.602 268.094C219.893 268.745 220.305 269.25 220.836 269.609C221.367 269.969 221.987 270.148 222.695 270.148ZM223.008 268.945C222.497 268.945 222.057 268.82 221.688 268.57C221.323 268.315 221.042 267.953 220.844 267.484C220.651 267.01 220.555 266.448 220.555 265.797V265.781C220.555 265.125 220.651 264.562 220.844 264.094C221.042 263.625 221.323 263.266 221.688 263.016C222.057 262.76 222.497 262.633 223.008 262.633C223.518 262.633 223.958 262.76 224.328 263.016C224.698 263.271 224.982 263.633 225.18 264.102C225.378 264.57 225.477 265.13 225.477 265.781V265.797C225.477 266.443 225.378 267.003 225.18 267.477C224.982 267.945 224.698 268.307 224.328 268.562C223.958 268.818 223.518 268.945 223.008 268.945ZM229.445 270H230.805V261.578H229.445V270ZM230.133 259.953C230.393 259.953 230.615 259.862 230.797 259.68C230.979 259.492 231.07 259.271 231.07 259.016C231.07 258.755 230.979 258.534 230.797 258.352C230.615 258.169 230.393 258.078 230.133 258.078C229.878 258.078 229.656 258.169 229.469 258.352C229.286 258.534 229.195 258.755 229.195 259.016C229.195 259.271 229.286 259.492 229.469 259.68C229.656 259.862 229.878 259.953 230.133 259.953ZM233.367 270H234.727V265.016C234.727 264.521 234.815 264.096 234.992 263.742C235.174 263.388 235.43 263.115 235.758 262.922C236.086 262.729 236.474 262.633 236.922 262.633C237.594 262.633 238.089 262.818 238.406 263.188C238.729 263.552 238.891 264.115 238.891 264.875V270H240.25V264.547C240.25 263.547 239.995 262.779 239.484 262.242C238.979 261.701 238.253 261.43 237.305 261.43C236.685 261.43 236.174 261.555 235.773 261.805C235.372 262.049 235.065 262.396 234.852 262.844H234.727V261.578H233.367V270ZM245.023 270.148C245.404 270.148 245.753 270.096 246.07 269.992C246.388 269.883 246.672 269.724 246.922 269.516C247.177 269.307 247.393 269.055 247.57 268.758H247.695V270H249.055V264.234C249.055 263.651 248.93 263.151 248.68 262.734C248.435 262.312 248.073 261.99 247.594 261.766C247.12 261.542 246.539 261.43 245.852 261.43C245.253 261.43 244.719 261.523 244.25 261.711C243.781 261.893 243.398 262.151 243.102 262.484C242.81 262.812 242.628 263.198 242.555 263.641L242.547 263.688H243.906L243.914 263.664C244.023 263.336 244.24 263.083 244.562 262.906C244.885 262.724 245.299 262.633 245.805 262.633C246.435 262.633 246.906 262.771 247.219 263.047C247.536 263.318 247.695 263.714 247.695 264.234V266.859C247.695 267.26 247.591 267.62 247.383 267.938C247.18 268.255 246.898 268.508 246.539 268.695C246.18 268.878 245.768 268.969 245.305 268.969C244.815 268.969 244.409 268.852 244.086 268.617C243.763 268.378 243.602 268.044 243.602 267.617V267.602C243.602 267.185 243.747 266.862 244.039 266.633C244.336 266.404 244.805 266.271 245.445 266.234L248.375 266.047V264.961L245.281 265.148C244.302 265.206 243.544 265.448 243.008 265.875C242.477 266.297 242.211 266.883 242.211 267.633V267.648C242.211 268.159 242.333 268.602 242.578 268.977C242.828 269.352 243.164 269.641 243.586 269.844C244.013 270.047 244.492 270.148 245.023 270.148ZM254.531 270.062C254.667 270.062 254.799 270.055 254.93 270.039C255.06 270.023 255.19 270.005 255.32 269.984V268.828C255.195 268.839 255.089 268.846 255 268.852C254.917 268.857 254.815 268.859 254.695 268.859C254.258 268.859 253.945 268.753 253.758 268.539C253.57 268.32 253.477 267.964 253.477 267.469V262.703H255.32V261.578H253.477V259.398H252.07V261.578H250.742V262.703H252.07V267.812C252.07 268.615 252.263 269.19 252.648 269.539C253.039 269.888 253.667 270.062 254.531 270.062ZM260.703 270.148C261.505 270.148 262.195 269.974 262.773 269.625C263.352 269.271 263.797 268.768 264.109 268.117C264.427 267.466 264.586 266.693 264.586 265.797V265.781C264.586 264.88 264.427 264.104 264.109 263.453C263.797 262.802 263.352 262.302 262.773 261.953C262.195 261.604 261.505 261.43 260.703 261.43C259.906 261.43 259.216 261.604 258.633 261.953C258.055 262.302 257.607 262.802 257.289 263.453C256.977 264.104 256.82 264.88 256.82 265.781V265.797C256.82 266.693 256.977 267.466 257.289 268.117C257.607 268.768 258.055 269.271 258.633 269.625C259.216 269.974 259.906 270.148 260.703 270.148ZM260.703 268.945C260.172 268.945 259.721 268.82 259.352 268.57C258.982 268.32 258.698 267.961 258.5 267.492C258.307 267.023 258.211 266.458 258.211 265.797V265.781C258.211 265.115 258.307 264.547 258.5 264.078C258.698 263.609 258.982 263.253 259.352 263.008C259.721 262.758 260.172 262.633 260.703 262.633C261.234 262.633 261.685 262.758 262.055 263.008C262.424 263.253 262.706 263.609 262.898 264.078C263.096 264.547 263.195 265.115 263.195 265.781V265.797C263.195 266.458 263.096 267.023 262.898 267.492C262.706 267.961 262.424 268.32 262.055 268.57C261.685 268.82 261.234 268.945 260.703 268.945ZM266.695 270H268.055V264.781C268.055 264.37 268.148 264.01 268.336 263.703C268.529 263.396 268.792 263.156 269.125 262.984C269.458 262.812 269.841 262.727 270.273 262.727C270.424 262.727 270.565 262.734 270.695 262.75C270.831 262.76 270.969 262.779 271.109 262.805V261.484C271.042 261.474 270.943 261.464 270.812 261.453C270.688 261.438 270.56 261.43 270.43 261.43C269.862 261.43 269.385 261.552 269 261.797C268.615 262.042 268.341 262.385 268.18 262.828H268.055V261.578H266.695V270Z" fill="black"/>
</svg>
