<svg width="49" height="49" viewBox="0 0 49 49" fill="none" xmlns="http://www.w3.org/2000/svg">
<path d="M26.7 33.575L18.275 25.175C18.175 25.075 18.1043 24.9667 18.063 24.85C18.021 24.7333 18 24.6083 18 24.475C18 24.3417 18.021 24.2167 18.063 24.1C18.1043 23.9833 18.175 23.875 18.275 23.775L26.7 15.35C26.9333 15.1167 27.225 15 27.575 15C27.925 15 28.225 15.125 28.475 15.375C28.725 15.625 28.85 15.9167 28.85 16.25C28.85 16.5833 28.725 16.875 28.475 17.125L21.125 24.475L28.475 31.825C28.7083 32.0583 28.825 32.3457 28.825 32.687C28.825 33.029 28.7 33.325 28.45 33.575C28.2 33.825 27.9083 33.95 27.575 33.95C27.2417 33.95 26.95 33.825 26.7 33.575V33.575Z" fill="#182022"/>
<circle cx="24.5" cy="24.5" r="24" stroke="#182022"/>
</svg>
