<svg width="49" height="49" viewBox="0 0 49 49" fill="none" xmlns="http://www.w3.org/2000/svg">
<circle cx="24.5" cy="24.5" r="24" fill="#F2F2F2" stroke="#0048EA"/>
<path d="M18.7263 15C19.5918 15 20.3922 15.0714 21.1236 15.2829C21.7873 15.4115 22.4208 15.6755 22.9886 16.06C23.5222 16.4129 23.9218 16.9086 24.1872 17.5443C24.454 18.18 24.5868 18.9586 24.5868 19.8057C24.5868 20.7957 24.3877 21.6428 23.9218 22.2786C23.5222 22.9157 22.8559 23.48 22.0568 23.9043C23.189 24.2586 24.0545 24.8943 24.5868 25.7414C25.1204 26.59 25.4536 27.65 25.4536 28.8514C25.4536 29.8414 25.2531 30.6885 24.9199 31.3957C24.5868 32.1028 24.0545 32.7385 23.4545 33.1628C22.8027 33.6176 22.0823 33.9519 21.324 34.1514C20.525 34.3642 19.7259 34.5057 18.9268 34.5057H10V15H18.7263ZM18.1927 22.9143C18.9254 22.9143 19.5254 22.7028 19.9913 22.35C20.4572 21.9971 20.6577 21.36 20.6577 20.5828C20.6577 20.1586 20.59 19.7343 20.4572 19.4528C20.3245 19.17 20.1241 18.9571 19.8586 18.7457C19.5918 18.6043 19.325 18.4629 18.9918 18.3929C18.6586 18.3214 18.3268 18.3214 17.9259 18.3214H14.0632V22.9157H18.194L18.1927 22.9143ZM18.3931 31.2543C18.7927 31.2543 19.1922 31.1828 19.5254 31.1128C19.8618 31.0454 20.18 30.9005 20.4572 30.6885C20.7286 30.4817 20.9557 30.2169 21.1236 29.9114C21.2563 29.5585 21.3904 29.1343 21.3904 28.64C21.3904 27.65 21.1236 26.9428 20.5913 26.4485C20.0577 26.0243 19.325 25.8128 18.4595 25.8128H14.0632V31.2557H18.3931V31.2543ZM31.249 31.1828C31.7813 31.7485 32.5804 32.0314 33.6463 32.0314C34.379 32.0314 35.0453 31.82 35.5776 31.4671C36.1113 31.0428 36.4444 30.6185 36.5772 30.1943H39.8412C39.3076 31.89 38.5085 33.0914 37.444 33.8685C36.3767 34.5757 35.1117 35 33.5799 35C32.5998 35.0031 31.628 34.8112 30.7154 34.4342C29.8942 34.1093 29.1619 33.5754 28.5836 32.88C27.965 32.2294 27.5078 31.4282 27.2522 30.5471C26.919 29.6285 26.7849 28.64 26.7849 27.5085C26.7849 26.4486 26.919 25.46 27.2522 24.54C27.5725 23.6544 28.0465 22.8395 28.6499 22.1371C29.2499 21.5014 29.9826 20.9371 30.7817 20.5828C31.6712 20.2058 32.6213 20.0137 33.5799 20.0171C34.7122 20.0171 35.7117 20.23 36.5772 20.7243C37.444 21.2186 38.109 21.7843 38.6426 22.6328C39.187 23.4479 39.5926 24.3567 39.8412 25.3186C39.974 26.3071 40.0403 27.2971 39.974 28.4271H30.3158C30.3158 29.5585 30.7154 30.6185 31.249 31.1843V31.1828ZM35.4449 23.7628C34.979 23.2686 34.2463 22.9857 33.3794 22.9857C32.8712 22.9777 32.3686 23.0987 31.914 23.3386C31.5145 23.5514 31.249 23.8343 30.9822 24.1171C30.737 24.3903 30.5748 24.7346 30.5163 25.1057C30.4486 25.46 30.3822 25.7414 30.3822 26.0243H36.3767C36.244 24.9643 35.9108 24.2586 35.4449 23.7628ZM29.5831 16.3429H37.0431V18.2514H29.5845V16.3429H29.5831Z" fill="#0048EA"/>
</svg>
