<svg width="319" height="145" viewBox="0 0 319 145" fill="none" xmlns="http://www.w3.org/2000/svg">
<rect y="0.602295" width="319" height="143.795" fill="white"/>
<g clip-path="url(#clip0_181_152)">
<path fill-rule="evenodd" clip-rule="evenodd" d="M244.705 74.7084H143.657V71.5674H244.705V74.7084Z" fill="#545EE1"/>
<path fill-rule="evenodd" clip-rule="evenodd" d="M99.3994 74.3158H114.674V71.1749H99.3994V74.3158Z" fill="#545EE1"/>
<path fill-rule="evenodd" clip-rule="evenodd" d="M99.3994 103.369H143.657V106.51H99.3994V103.369Z" fill="#545EE1"/>
<path fill-rule="evenodd" clip-rule="evenodd" d="M146.007 80.9902V95.9096H142.874V80.9902H146.007ZM146.007 77.8493V71.5674H142.874V77.8493H146.007ZM142.874 99.0505H146.007V106.51H142.874V99.0505Z" fill="#545EE1"/>
<path d="M160.89 66.0709C160.89 65.4203 161.416 64.893 162.065 64.893H175.381C176.03 64.893 176.557 65.4203 176.557 66.0709V79.4198C176.557 80.0703 176.03 80.5976 175.381 80.5976H162.065C161.416 80.5976 160.89 80.0703 160.89 79.4198V66.0709Z" fill="#545EE1"/>
<path d="M182.04 66.0709C182.04 65.4203 182.566 64.893 183.215 64.893H196.531C197.18 64.893 197.706 65.4203 197.706 66.0709V110.829C197.706 111.479 197.18 112.007 196.531 112.007H183.215C182.566 112.007 182.04 111.479 182.04 110.829V66.0709Z" fill="#545EE1"/>
<path d="M207.106 66.0709C207.106 65.4203 207.631 64.893 208.28 64.893H221.597C222.246 64.893 222.772 65.4203 222.772 66.0709V110.829C222.772 111.479 222.246 112.007 221.597 112.007H208.28C207.631 112.007 207.106 111.479 207.106 110.829V66.0709Z" fill="#545EE1"/>
<path d="M232.172 66.0709C232.172 65.4203 232.698 64.893 233.347 64.893H246.663C247.312 64.893 247.838 65.4203 247.838 66.0709V110.829C247.838 111.479 247.312 112.007 246.663 112.007H233.347C232.698 112.007 232.172 111.479 232.172 110.829V66.0709Z" fill="#545EE1"/>
<path d="M124.857 97.4801C124.857 96.8297 124.331 96.3022 123.682 96.3022H110.366C109.717 96.3022 109.191 96.8297 109.191 97.4801V110.829C109.191 111.479 109.717 112.007 110.366 112.007H123.682C124.331 112.007 124.857 111.479 124.857 110.829V97.4801Z" fill="#545EE1"/>
<path d="M102.533 66.0709C102.533 65.4203 102.007 64.893 101.358 64.893H88.0412C87.3923 64.893 86.8662 65.4203 86.8662 66.0709V110.829C86.8662 111.479 87.3923 112.007 88.0412 112.007H101.358C102.007 112.007 102.533 111.479 102.533 110.829V66.0709Z" fill="#545EE1"/>
<path d="M124.857 34.6616C124.857 34.0111 124.331 33.4838 123.682 33.4838H110.366C109.717 33.4838 109.191 34.0111 109.191 34.6616V79.4198C109.191 80.0703 109.717 80.5976 110.366 80.5976H123.682C124.331 80.5976 124.857 80.0703 124.857 79.4198V34.6616Z" fill="#545EE1"/>
<path fill-rule="evenodd" clip-rule="evenodd" d="M136.999 90.0203H151.882V86.8794H136.999V90.0203Z" fill="#545EE1"/>
<path d="M141.699 81.5792C141.699 81.2539 141.962 80.9902 142.286 80.9902H146.594C146.919 80.9902 147.182 81.2539 147.182 81.5792V95.3207C147.182 95.6459 146.919 95.9096 146.594 95.9096H142.286C141.962 95.9096 141.699 95.6459 141.699 95.3207V81.5792Z" fill="#545EE1"/>
<path d="M137.586 91.5909C137.262 91.5909 136.999 91.3272 136.999 91.0019V86.6832C136.999 86.3579 137.262 86.0942 137.586 86.0942H151.295C151.619 86.0942 151.882 86.3579 151.882 86.6832V91.0019C151.882 91.3272 151.619 91.5909 151.295 91.5909H137.586Z" fill="#545EE1"/>
</g>
<defs>
<clipPath id="clip0_181_152">
<rect width="160.972" height="78.5231" fill="white" transform="translate(86.8662 33.4838)"/>
</clipPath>
</defs>
</svg>
