<svg width="319" height="145" viewBox="0 0 319 145" fill="none" xmlns="http://www.w3.org/2000/svg">
<rect y="0.602295" width="319" height="143.795" fill="white"/>
<g clip-path="url(#clip0_181_153)">
<path fill-rule="evenodd" clip-rule="evenodd" d="M238.325 74.4132H137.277V71.2574H238.325V74.4132Z" fill="#FF8BD7"/>
<path fill-rule="evenodd" clip-rule="evenodd" d="M93.0195 74.0187H108.294V70.8629H93.0195V74.0187Z" fill="#FF8BD7"/>
<path fill-rule="evenodd" clip-rule="evenodd" d="M93.0195 103.21H137.277V106.366H93.0195V103.21Z" fill="#FF8BD7"/>
<path fill-rule="evenodd" clip-rule="evenodd" d="M139.627 80.7248V95.715H136.494V80.7248H139.627ZM139.627 77.569V71.2574H136.494V77.569H139.627ZM136.494 98.8708H139.627V106.366H136.494V98.8708Z" fill="#FF8BD7"/>
<path d="M154.51 65.7347C154.51 65.0811 155.036 64.5513 155.685 64.5513H169.002C169.651 64.5513 170.177 65.0811 170.177 65.7347V79.1469C170.177 79.8005 169.651 80.3304 169.002 80.3304H155.685C155.036 80.3304 154.51 79.8005 154.51 79.1469V65.7347Z" fill="#FF8BD7"/>
<path d="M175.66 65.7347C175.66 65.0811 176.186 64.5513 176.835 64.5513H190.151C190.8 64.5513 191.326 65.0811 191.326 65.7347V110.705C191.326 111.359 190.8 111.889 190.151 111.889H176.835C176.186 111.889 175.66 111.359 175.66 110.705V65.7347Z" fill="#FF8BD7"/>
<path d="M200.726 65.7347C200.726 65.0811 201.252 64.5513 201.901 64.5513H215.217C215.866 64.5513 216.392 65.0811 216.392 65.7347V110.705C216.392 111.359 215.866 111.889 215.217 111.889H201.901C201.252 111.889 200.726 111.359 200.726 110.705V65.7347Z" fill="#FF8BD7"/>
<path d="M225.792 65.7347C225.792 65.0811 226.318 64.5513 226.967 64.5513H240.283C240.932 64.5513 241.458 65.0811 241.458 65.7347V110.705C241.458 111.359 240.932 111.889 240.283 111.889H226.967C226.318 111.889 225.792 111.359 225.792 110.705V65.7347Z" fill="#FF8BD7"/>
<path d="M118.477 97.2929C118.477 96.6394 117.951 96.1094 117.302 96.1094H103.986C103.337 96.1094 102.811 96.6394 102.811 97.2929V110.705C102.811 111.359 103.337 111.889 103.986 111.889H117.302C117.951 111.889 118.477 111.359 118.477 110.705V97.2929Z" fill="#FF8BD7"/>
<path d="M96.1528 65.7347C96.1528 65.0811 95.6267 64.5513 94.9777 64.5513H81.6613C81.0124 64.5513 80.4863 65.0811 80.4863 65.7347V110.705C80.4863 111.359 81.0124 111.889 81.6613 111.889H94.9777C95.6267 111.889 96.1528 111.359 96.1528 110.705V65.7347Z" fill="#FF8BD7"/>
<path d="M118.477 34.1765C118.477 33.5229 117.951 32.993 117.302 32.993H103.986C103.337 32.993 102.811 33.5229 102.811 34.1765V79.1469C102.811 79.8005 103.337 80.3304 103.986 80.3304H117.302C117.951 80.3304 118.477 79.8005 118.477 79.1469V34.1765Z" fill="#FF8BD7"/>
<path fill-rule="evenodd" clip-rule="evenodd" d="M130.619 89.7977H145.502V86.6419H130.619V89.7977Z" fill="#FF8BD7"/>
<path d="M135.319 81.3166C135.319 80.9898 135.582 80.7249 135.906 80.7249H140.215C140.539 80.7249 140.802 80.9898 140.802 81.3166V95.1233C140.802 95.4501 140.539 95.715 140.215 95.715H135.906C135.582 95.715 135.319 95.4501 135.319 95.1233V81.3166Z" fill="#FF8BD7"/>
<path d="M131.206 91.3757C130.882 91.3757 130.619 91.1108 130.619 90.784V86.4447C130.619 86.118 130.882 85.853 131.206 85.853H144.915C145.239 85.853 145.502 86.118 145.502 86.4447V90.784C145.502 91.1108 145.239 91.3757 144.915 91.3757H131.206Z" fill="#FF8BD7"/>
</g>
<defs>
<clipPath id="clip0_181_153">
<rect width="160.972" height="78.8955" fill="white" transform="translate(80.4863 32.993)"/>
</clipPath>
</defs>
</svg>
