<svg width="319" height="145" viewBox="0 0 319 145" fill="none" xmlns="http://www.w3.org/2000/svg">
<rect y="0.602295" width="319" height="143.795" fill="white"/>
<g clip-path="url(#clip0_181_151)">
<path fill-rule="evenodd" clip-rule="evenodd" d="M238.325 74.9039H137.277V71.7481H238.325V74.9039Z" fill="#F76F02"/>
<path fill-rule="evenodd" clip-rule="evenodd" d="M93.0195 74.5095H108.294V71.3536H93.0195V74.5095Z" fill="#F76F02"/>
<path fill-rule="evenodd" clip-rule="evenodd" d="M93.0195 103.701H137.277V106.857H93.0195V103.701Z" fill="#F76F02"/>
<path fill-rule="evenodd" clip-rule="evenodd" d="M139.627 81.2156V96.2057H136.494V81.2156H139.627ZM139.627 78.0597V71.7481H136.494V78.0597H139.627ZM136.494 99.3615H139.627V106.857H136.494V99.3615Z" fill="#F76F02"/>
<path d="M154.51 66.2254C154.51 65.5718 155.036 65.042 155.685 65.042H169.002C169.651 65.042 170.177 65.5718 170.177 66.2254V79.6377C170.177 80.2912 169.651 80.8211 169.002 80.8211H155.685C155.036 80.8211 154.51 80.2912 154.51 79.6377V66.2254Z" fill="#F76F02"/>
<path d="M175.66 66.2254C175.66 65.5718 176.186 65.042 176.835 65.042H190.151C190.8 65.042 191.326 65.5718 191.326 66.2254V111.196C191.326 111.849 190.8 112.379 190.151 112.379H176.835C176.186 112.379 175.66 111.849 175.66 111.196V66.2254Z" fill="#F76F02"/>
<path d="M200.726 66.2254C200.726 65.5718 201.252 65.042 201.901 65.042H215.217C215.866 65.042 216.392 65.5718 216.392 66.2254V111.196C216.392 111.849 215.866 112.379 215.217 112.379H201.901C201.252 112.379 200.726 111.849 200.726 111.196V66.2254Z" fill="#F76F02"/>
<path d="M225.792 66.2254C225.792 65.5718 226.318 65.042 226.967 65.042H240.283C240.932 65.042 241.458 65.5718 241.458 66.2254V111.196C241.458 111.849 240.932 112.379 240.283 112.379H226.967C226.318 112.379 225.792 111.849 225.792 111.196V66.2254Z" fill="#F76F02"/>
<path d="M118.477 97.7836C118.477 97.1302 117.951 96.6002 117.302 96.6002H103.986C103.337 96.6002 102.811 97.1302 102.811 97.7836V111.196C102.811 111.849 103.337 112.379 103.986 112.379H117.302C117.951 112.379 118.477 111.849 118.477 111.196V97.7836Z" fill="#F76F02"/>
<path d="M96.1528 66.2254C96.1528 65.5718 95.6267 65.042 94.9777 65.042H81.6613C81.0124 65.042 80.4863 65.5718 80.4863 66.2254V111.196C80.4863 111.849 81.0124 112.379 81.6613 112.379H94.9777C95.6267 112.379 96.1528 111.849 96.1528 111.196V66.2254Z" fill="#F76F02"/>
<path d="M118.477 34.6672C118.477 34.0136 117.951 33.4838 117.302 33.4838H103.986C103.337 33.4838 102.811 34.0136 102.811 34.6672V79.6376C102.811 80.2913 103.337 80.8211 103.986 80.8211H117.302C117.951 80.8211 118.477 80.2913 118.477 79.6376V34.6672Z" fill="#F76F02"/>
<path fill-rule="evenodd" clip-rule="evenodd" d="M130.619 90.2884H145.502V87.1326H130.619V90.2884Z" fill="#F76F02"/>
<path d="M135.319 81.8073C135.319 81.4805 135.582 81.2156 135.906 81.2156H140.215C140.539 81.2156 140.802 81.4805 140.802 81.8073V95.614C140.802 95.9408 140.539 96.2057 140.215 96.2057H135.906C135.582 96.2057 135.319 95.9408 135.319 95.614V81.8073Z" fill="#F76F02"/>
<path d="M131.206 91.8664C130.882 91.8664 130.619 91.6015 130.619 91.2747V86.9355C130.619 86.6087 130.882 86.3438 131.206 86.3438H144.915C145.239 86.3438 145.502 86.6087 145.502 86.9355V91.2747C145.502 91.6015 145.239 91.8664 144.915 91.8664H131.206Z" fill="#F76F02"/>
</g>
<defs>
<clipPath id="clip0_181_151">
<rect width="160.972" height="78.8955" fill="white" transform="translate(80.4863 33.4838)"/>
</clipPath>
</defs>
</svg>
