<svg width="319" height="145" viewBox="0 0 319 145" fill="none" xmlns="http://www.w3.org/2000/svg">
<rect y="0.602234" width="319" height="143.795" fill="white"/>
<g clip-path="url(#clip0_181_150)">
<path fill-rule="evenodd" clip-rule="evenodd" d="M238.325 75.1991H137.277V72.0582H238.325V75.1991Z" fill="#0A071C"/>
<path fill-rule="evenodd" clip-rule="evenodd" d="M93.0195 74.8065H108.294V71.6656H93.0195V74.8065Z" fill="#0A071C"/>
<path fill-rule="evenodd" clip-rule="evenodd" d="M93.0195 103.86H137.277V107.001H93.0195V103.86Z" fill="#0A071C"/>
<path fill-rule="evenodd" clip-rule="evenodd" d="M139.627 81.4809V96.4003H136.494V81.4809H139.627ZM139.627 78.34V72.0582H136.494V78.34H139.627ZM136.494 99.5412H139.627V107.001H136.494V99.5412Z" fill="#0A071C"/>
<path d="M154.51 66.5616C154.51 65.911 155.036 65.3837 155.685 65.3837H169.002C169.651 65.3837 170.177 65.911 170.177 66.5616V79.9105C170.177 80.561 169.651 81.0883 169.002 81.0883H155.685C155.036 81.0883 154.51 80.561 154.51 79.9105V66.5616Z" fill="#0A071C"/>
<path d="M175.66 66.5616C175.66 65.911 176.186 65.3837 176.835 65.3837H190.151C190.8 65.3837 191.326 65.911 191.326 66.5616V111.32C191.326 111.97 190.8 112.498 190.151 112.498H176.835C176.186 112.498 175.66 111.97 175.66 111.32V66.5616Z" fill="#0A071C"/>
<path d="M200.726 66.5616C200.726 65.911 201.252 65.3837 201.901 65.3837H215.217C215.866 65.3837 216.392 65.911 216.392 66.5616V111.32C216.392 111.97 215.866 112.498 215.217 112.498H201.901C201.252 112.498 200.726 111.97 200.726 111.32V66.5616Z" fill="#0A071C"/>
<path d="M225.792 66.5616C225.792 65.911 226.318 65.3837 226.967 65.3837H240.283C240.932 65.3837 241.458 65.911 241.458 66.5616V111.32C241.458 111.97 240.932 112.498 240.283 112.498H226.967C226.318 112.498 225.792 111.97 225.792 111.32V66.5616Z" fill="#0A071C"/>
<path d="M118.477 97.9708C118.477 97.3205 117.951 96.793 117.302 96.793H103.986C103.337 96.793 102.811 97.3205 102.811 97.9708V111.32C102.811 111.97 103.337 112.498 103.986 112.498H117.302C117.951 112.498 118.477 111.97 118.477 111.32V97.9708Z" fill="#0A071C"/>
<path d="M96.1528 66.5616C96.1528 65.911 95.6267 65.3837 94.9777 65.3837H81.6613C81.0124 65.3837 80.4863 65.911 80.4863 66.5616V111.32C80.4863 111.97 81.0124 112.498 81.6613 112.498H94.9777C95.6267 112.498 96.1528 111.97 96.1528 111.32V66.5616Z" fill="#0A071C"/>
<path d="M118.477 35.1523C118.477 34.5018 117.951 33.9745 117.302 33.9745H103.986C103.337 33.9745 102.811 34.5018 102.811 35.1523V79.9105C102.811 80.561 103.337 81.0883 103.986 81.0883H117.302C117.951 81.0883 118.477 80.561 118.477 79.9105V35.1523Z" fill="#0A071C"/>
<path fill-rule="evenodd" clip-rule="evenodd" d="M130.619 90.511H145.502V87.3701H130.619V90.511Z" fill="#0A071C"/>
<path d="M135.319 82.0699C135.319 81.7446 135.582 81.481 135.906 81.481H140.215C140.539 81.481 140.802 81.7446 140.802 82.0699V95.8114C140.802 96.1367 140.539 96.4003 140.215 96.4003H135.906C135.582 96.4003 135.319 96.1367 135.319 95.8114V82.0699Z" fill="#0A071C"/>
<path d="M131.206 92.0816C130.882 92.0816 130.619 91.8179 130.619 91.4927V87.1739C130.619 86.8486 130.882 86.585 131.206 86.585H144.915C145.239 86.585 145.502 86.8486 145.502 87.1739V91.4927C145.502 91.8179 145.239 92.0816 144.915 92.0816H131.206Z" fill="#0A071C"/>
</g>
<defs>
<clipPath id="clip0_181_150">
<rect width="160.972" height="78.5231" fill="white" transform="translate(80.4863 33.9745)"/>
</clipPath>
</defs>
</svg>
