<svg width="650" height="357" viewBox="0 0 650 357" fill="none" xmlns="http://www.w3.org/2000/svg">
<rect width="650" height="357" fill="white"/>
<path d="M245.687 173.371C244.738 171.84 243.366 170.623 241.74 169.869C239.787 168.988 237.663 168.563 235.525 168.625C230.981 168.625 227.459 170.117 224.96 173.099C222.46 176.082 221.217 180.159 221.231 185.329C221.231 191.288 222.612 195.737 225.374 198.678C228.14 201.626 232.418 203.1 238.177 203.1C240.756 203.16 243.31 202.583 245.618 201.419C247.925 200.255 249.915 198.539 251.415 196.42H232.563V179.507H271.096V203.424C267.698 209.25 263.068 214.247 257.537 218.059C251.777 222.114 244.485 224.142 235.66 224.142C228.542 224.319 221.5 222.63 215.223 219.24C209.529 216.092 204.887 211.312 201.881 205.504C198.704 199.285 197.105 192.367 197.231 185.371C197.096 178.354 198.694 171.414 201.881 165.176C204.881 159.384 209.498 154.609 215.161 151.44C221.385 148.056 228.375 146.366 235.442 146.537C245.338 146.537 253.397 148.942 259.619 153.75C262.679 156.095 265.236 159.042 267.135 162.413C269.035 165.783 270.238 169.508 270.671 173.361L245.687 173.371Z" fill="#0C1123"/>
<path d="M303.331 162.813V223.557H279.662V162.813H303.331Z" fill="#0C1123"/>
<path d="M351.466 203.205V223.557H342.495C325.984 223.557 317.729 215.264 317.729 198.678V182.737H310.26V162.813H317.729V148.179H341.428V162.813H351.248V182.737H341.428V199.107C341.381 199.673 341.448 200.243 341.626 200.783C341.804 201.322 342.089 201.819 342.464 202.243C343.421 202.983 344.62 203.33 345.82 203.215L351.466 203.205Z" fill="#0C1123"/>
<path d="M432.965 223.557H409.307L384.281 185.214V223.557H360.529V147.301H384.281L409.358 186.291V147.301H432.965V223.557Z" fill="#0C1123"/>
<path d="M507.4 162.813V223.557H483.721V214.306C481.841 217.207 479.297 219.609 476.304 221.31C472.922 223.182 469.108 224.112 465.252 224.007C458.346 224.007 452.956 221.672 449.082 217.003C445.208 212.334 443.271 206.013 443.271 198.041V162.813H466.837V195.02C466.704 197.512 467.528 199.96 469.136 201.856C470.785 203.479 472.996 204.388 475.299 204.388C477.602 204.388 479.814 203.479 481.462 201.856C483.041 199.946 483.848 197.504 483.721 195.02V162.813H507.4Z" fill="#0C1123"/>
<path d="M171.698 125.61H65.8877V232.39H171.698V125.61Z" fill="#0048EA"/>
<path d="M291.533 157.764C299.05 157.764 305.143 151.614 305.143 144.029C305.143 136.443 299.05 130.293 291.533 130.293C284.016 130.293 277.922 136.443 277.922 144.029C277.922 151.614 284.016 157.764 291.533 157.764Z" fill="#0048EA"/>
<path d="M118.798 192.73C126.315 192.73 132.409 186.581 132.409 178.995C132.409 171.409 126.315 165.259 118.798 165.259C111.281 165.259 105.187 171.409 105.187 178.995C105.187 186.581 111.281 192.73 118.798 192.73Z" fill="white"/>
<path d="M579.918 176.549C578.025 172.174 574.935 168.436 571.01 165.772C567.232 163.286 562.809 161.987 558.3 162.04C554.788 161.94 551.311 162.777 548.221 164.465C545.471 166.003 543.216 168.307 541.727 171.103V143.851H518.068V223.557H541.727V215.268C543.21 218.054 545.453 220.354 548.19 221.895C551.282 223.578 554.757 224.414 558.269 224.32C562.79 224.376 567.225 223.073 571.01 220.578C574.933 217.917 578.023 214.182 579.918 209.811C582.191 204.577 583.298 198.903 583.16 193.19C583.302 187.47 582.195 181.789 579.918 176.549V176.549ZM551.795 203.633C549.789 203.633 547.829 203.033 546.161 201.909C544.493 200.784 543.194 199.186 542.426 197.316C541.659 195.446 541.458 193.388 541.849 191.403C542.24 189.418 543.206 187.594 544.624 186.163C546.043 184.732 547.849 183.757 549.817 183.362C551.784 182.968 553.823 183.17 555.676 183.945C557.529 184.719 559.112 186.031 560.227 187.714C561.341 189.397 561.936 191.375 561.936 193.399C561.936 196.114 560.867 198.717 558.966 200.636C557.064 202.555 554.484 203.633 551.795 203.633V203.633Z" fill="#0C1123"/>
</svg>
