<svg width="49" height="49" viewBox="0 0 49 49" fill="none" xmlns="http://www.w3.org/2000/svg">
<path d="M18.41 10H30.59C35.23 10 39 13.77 39 18.41V30.59C39 32.8205 38.114 34.9596 36.5368 36.5368C34.9596 38.114 32.8205 39 30.59 39H18.41C13.77 39 10 35.23 10 30.59V18.41C10 16.1795 10.8861 14.0404 12.4632 12.4632C14.0404 10.8861 16.1795 10 18.41 10ZM18.12 12.9C16.7356 12.9 15.4078 13.45 14.4289 14.4289C13.45 15.4078 12.9 16.7356 12.9 18.12V30.88C12.9 33.7655 15.2345 36.1 18.12 36.1H30.88C32.2644 36.1 33.5922 35.55 34.5711 34.5711C35.55 33.5922 36.1 32.2644 36.1 30.88V18.12C36.1 15.2345 33.7655 12.9 30.88 12.9H18.12ZM32.1125 15.075C32.5932 15.075 33.0542 15.266 33.3941 15.6059C33.734 15.9458 33.925 16.4068 33.925 16.8875C33.925 17.3682 33.734 17.8292 33.3941 18.1691C33.0542 18.509 32.5932 18.7 32.1125 18.7C31.6318 18.7 31.1708 18.509 30.8309 18.1691C30.491 17.8292 30.3 17.3682 30.3 16.8875C30.3 16.4068 30.491 15.9458 30.8309 15.6059C31.1708 15.266 31.6318 15.075 32.1125 15.075ZM24.5 17.25C26.4228 17.25 28.2669 18.0138 29.6265 19.3735C30.9862 20.7331 31.75 22.5772 31.75 24.5C31.75 26.4228 30.9862 28.2669 29.6265 29.6265C28.2669 30.9862 26.4228 31.75 24.5 31.75C22.5772 31.75 20.7331 30.9862 19.3735 29.6265C18.0138 28.2669 17.25 26.4228 17.25 24.5C17.25 22.5772 18.0138 20.7331 19.3735 19.3735C20.7331 18.0138 22.5772 17.25 24.5 17.25ZM24.5 20.15C23.3463 20.15 22.2399 20.6083 21.4241 21.4241C20.6083 22.2399 20.15 23.3463 20.15 24.5C20.15 25.6537 20.6083 26.7601 21.4241 27.5759C22.2399 28.3917 23.3463 28.85 24.5 28.85C25.6537 28.85 26.7601 28.3917 27.5759 27.5759C28.3917 26.7601 28.85 25.6537 28.85 24.5C28.85 23.3463 28.3917 22.2399 27.5759 21.4241C26.7601 20.6083 25.6537 20.15 24.5 20.15Z" fill="#182022"/>
<circle cx="24.5" cy="24.5" r="24" stroke="#182022"/>
</svg>
