<svg width="49" height="49" viewBox="0 0 49 49" fill="none" xmlns="http://www.w3.org/2000/svg">
<circle cx="24.5" cy="24.5" r="24" fill="#F2F2F2" stroke="#0048EA"/>
<path d="M38 36V25.6469C38 23.9579 37.3291 22.3382 36.1348 21.1439C34.9406 19.9497 33.3208 19.2787 31.6319 19.2787C29.9714 19.2787 28.0376 20.2945 27.0999 21.8182V19.6499H21.6499V36H27.0999V26.3696C27.0999 24.8655 28.311 23.6349 29.8152 23.6349C30.5405 23.6349 31.2361 23.923 31.749 24.4359C32.2618 24.9487 32.55 25.6443 32.55 26.3696V36H38ZM15.3013 16.583C16.1716 16.583 17.0064 16.2373 17.6218 15.6218C18.2373 15.0064 18.583 14.1716 18.583 13.3013C18.583 11.4846 17.118 10 15.3013 10C14.4257 10 13.586 10.3478 12.9669 10.9669C12.3478 11.586 12 12.4257 12 13.3013C12 15.118 13.4846 16.583 15.3013 16.583ZM18.0165 36V19.6499H12.6056V36H18.0165Z" fill="#0048EA"/>
</svg>
