<svg width="650" height="357" viewBox="0 0 650 357" fill="none" xmlns="http://www.w3.org/2000/svg">
<rect width="650" height="357" fill="#828CEA"/>
<ellipse cx="295.602" cy="129.514" rx="5.72506" ry="7.51414" fill="#C5CAF8"/>
<ellipse cx="348.798" cy="181.994" rx="5.72506" ry="7.51414" fill="#C5CAF8"/>
<ellipse cx="320.411" cy="129.514" rx="5.72506" ry="7.51414" fill="#C5CAF8"/>
<ellipse cx="373.606" cy="181.994" rx="5.72506" ry="7.51414" fill="#C5CAF8"/>
<path fill-rule="evenodd" clip-rule="evenodd" d="M297.256 164.027C299.622 165.729 302.956 167.065 307.899 167.065C314.735 167.065 319.555 163.789 322.916 160.113C324.605 158.264 325.842 156.393 326.651 154.985C327.051 154.288 327.335 153.725 327.508 153.362C327.595 153.182 327.653 153.053 327.683 152.984C327.698 152.95 327.706 152.931 327.707 152.928C327.707 152.927 327.706 152.929 327.703 152.936L327.698 152.95L327.694 152.959L327.692 152.965C327.691 152.967 327.69 152.97 334.544 155.744C341.399 158.518 341.398 158.521 341.397 158.524L341.388 158.545L341.374 158.579C341.364 158.604 341.352 158.634 341.337 158.668C341.309 158.736 341.272 158.822 341.227 158.925C341.137 159.13 341.013 159.404 340.855 159.735C340.539 160.396 340.083 161.295 339.475 162.352C338.268 164.454 336.419 167.261 333.832 170.092C328.638 175.773 320.134 181.855 307.899 181.855C300.037 181.855 293.643 179.647 288.618 176.032C283.677 172.476 280.448 167.843 278.342 163.517C276.24 159.199 275.149 154.971 274.575 151.882C274.285 150.321 274.119 149.005 274.024 148.053C273.977 147.576 273.947 147.187 273.928 146.901C273.918 146.758 273.912 146.64 273.907 146.55C273.905 146.505 273.903 146.466 273.902 146.435C273.901 146.419 273.901 146.405 273.9 146.393L273.9 146.375L273.899 146.368C273.899 146.364 273.899 146.361 281.289 146.1C288.68 145.84 288.68 145.837 288.68 145.834L288.679 145.828L288.679 145.819L288.678 145.808C288.678 145.803 288.678 145.805 288.679 145.814C288.68 145.831 288.682 145.872 288.686 145.937C288.695 146.066 288.711 146.286 288.741 146.585C288.801 147.184 288.913 148.084 289.116 149.181C289.53 151.41 290.29 154.272 291.64 157.044C292.985 159.808 294.808 162.265 297.256 164.027Z" fill="#C5CAF8"/>
<path fill-rule="evenodd" clip-rule="evenodd" d="M371.833 147.462C369.467 145.76 366.132 144.423 361.19 144.423C354.354 144.423 349.534 147.699 346.173 151.376C344.483 153.224 343.247 155.096 342.438 156.504C342.038 157.2 341.753 157.764 341.58 158.126C341.494 158.307 341.436 158.436 341.406 158.505C341.391 158.539 341.383 158.558 341.382 158.561C341.381 158.562 341.383 158.559 341.385 158.552L341.391 158.538L341.395 158.529L341.397 158.524C341.398 158.521 341.399 158.518 334.544 155.744C327.69 152.97 327.691 152.967 327.692 152.964L327.695 152.958L327.701 152.943L327.715 152.909C327.725 152.884 327.737 152.855 327.751 152.821C327.78 152.753 327.817 152.666 327.862 152.564C327.952 152.358 328.076 152.085 328.234 151.754C328.549 151.093 329.006 150.194 329.614 149.136C330.821 147.035 332.67 144.227 335.257 141.397C340.451 135.715 348.954 129.633 361.19 129.633C369.052 129.633 375.446 131.842 380.471 135.457C385.412 139.013 388.641 143.645 390.747 147.972C392.849 152.289 393.94 156.518 394.513 159.606C394.804 161.168 394.97 162.484 395.065 163.435C395.112 163.912 395.142 164.301 395.161 164.587C395.17 164.73 395.177 164.848 395.181 164.939C395.184 164.984 395.185 165.022 395.187 165.054C395.187 165.07 395.188 165.084 395.189 165.096L395.189 165.113L395.189 165.121C395.19 165.124 395.19 165.127 387.799 165.388C380.409 165.649 380.409 165.652 380.409 165.655L380.41 165.66L380.41 165.67L380.41 165.681C380.411 165.685 380.41 165.683 380.41 165.675C380.409 165.658 380.407 165.616 380.403 165.552C380.394 165.423 380.378 165.202 380.348 164.904C380.288 164.304 380.176 163.405 379.973 162.307C379.558 160.078 378.799 157.217 377.449 154.445C376.104 151.681 374.281 149.224 371.833 147.462Z" fill="#C5CAF8"/>
<path d="M178 122H200.802L216.487 160.237H217.278L232.963 122H255.765V189.508H237.84V150.48H237.313L222.287 188.981H211.479L196.453 150.216H195.926V189.508H178V122Z" fill="#C5CAF8"/>
<path d="M439.092 189.508H413.205V122H438.83C445.751 122 451.73 123.351 456.767 126.054C461.826 128.735 465.725 132.603 468.463 137.657C471.222 142.69 472.602 148.722 472.602 155.754C472.602 162.786 471.233 168.829 468.496 173.884C465.758 178.916 461.881 182.784 456.866 185.487C451.85 188.168 445.926 189.508 439.092 189.508ZM431.471 173.95H438.435C441.764 173.95 444.601 173.411 446.944 172.334C449.31 171.258 451.106 169.401 452.332 166.764C453.58 164.127 454.205 160.457 454.205 155.754C454.205 151.051 453.569 147.381 452.299 144.744C451.051 142.107 449.211 140.25 446.78 139.174C444.371 138.097 441.414 137.558 437.91 137.558H431.471V173.95Z" fill="#C5CAF8"/>
<path d="M291.331 236V215.247H296.974V231.46H305.378V236H291.331Z" fill="#C5CAF8"/>
<path d="M315.875 215.247V236H310.232V215.247H315.875Z" fill="#C5CAF8"/>
<path d="M321.122 236V215.247H335.738V219.786H326.765V223.353H334.845V227.893H326.765V236H321.122Z" fill="#C5CAF8"/>
<path d="M339.818 219.786V215.247H357.884V219.786H351.632V236H346.07V219.786H339.818Z" fill="#C5CAF8"/>
</svg>
