<svg width="650" height="357" viewBox="0 0 650 357" fill="none" xmlns="http://www.w3.org/2000/svg">
<rect width="650" height="357" fill="#C5CAF8"/>
<ellipse cx="295.761" cy="128.524" rx="5.73279" ry="7.52429" fill="#828CEA"/>
<ellipse cx="349.029" cy="181.075" rx="5.73279" ry="7.52429" fill="#828CEA"/>
<ellipse cx="320.603" cy="128.524" rx="5.73279" ry="7.52429" fill="#828CEA"/>
<ellipse cx="373.87" cy="181.075" rx="5.73279" ry="7.52429" fill="#828CEA"/>
<path fill-rule="evenodd" clip-rule="evenodd" d="M297.417 163.083C299.786 164.788 303.125 166.126 308.074 166.126C314.92 166.126 319.746 162.846 323.111 159.164C324.803 157.313 326.042 155.439 326.852 154.03C327.252 153.332 327.537 152.768 327.71 152.405C327.797 152.224 327.855 152.095 327.885 152.026C327.9 151.992 327.908 151.973 327.909 151.97C327.91 151.969 327.908 151.971 327.905 151.978L327.9 151.992L327.896 152.001L327.894 152.007C327.893 152.009 327.892 152.012 334.756 154.79C341.62 157.568 341.619 157.571 341.617 157.574L341.609 157.595L341.595 157.629C341.585 157.654 341.572 157.683 341.558 157.717C341.529 157.786 341.492 157.872 341.447 157.975C341.357 158.181 341.233 158.454 341.075 158.786C340.759 159.448 340.302 160.348 339.693 161.407C338.484 163.511 336.633 166.322 334.042 169.157C328.841 174.846 320.326 180.936 308.074 180.936C300.202 180.936 293.799 178.725 288.768 175.105C283.819 171.544 280.586 166.905 278.477 162.573C276.372 158.249 275.28 154.015 274.706 150.923C274.415 149.359 274.249 148.041 274.154 147.088C274.106 146.611 274.076 146.222 274.057 145.935C274.048 145.792 274.041 145.674 274.037 145.583C274.035 145.538 274.033 145.499 274.031 145.468C274.031 145.452 274.03 145.438 274.03 145.426L274.029 145.408L274.029 145.401C274.029 145.397 274.029 145.394 281.429 145.133C288.829 144.872 288.829 144.869 288.829 144.866L288.829 144.86L288.828 144.851L288.828 144.84C288.828 144.836 288.828 144.838 288.828 144.846C288.829 144.863 288.831 144.904 288.835 144.969C288.844 145.099 288.86 145.319 288.89 145.618C288.95 146.218 289.062 147.119 289.266 148.218C289.681 150.45 290.442 153.315 291.793 156.091C293.14 158.859 294.966 161.319 297.417 163.083Z" fill="#828CEA"/>
<path fill-rule="evenodd" clip-rule="evenodd" d="M372.094 146.496C369.726 144.792 366.387 143.453 361.437 143.453C354.592 143.453 349.766 146.734 346.4 150.415C344.708 152.266 343.47 154.14 342.66 155.55C342.259 156.248 341.975 156.812 341.801 157.175C341.715 157.356 341.657 157.485 341.627 157.554C341.612 157.588 341.604 157.607 341.603 157.61C341.602 157.611 341.603 157.608 341.606 157.601L341.612 157.588L341.616 157.578L341.618 157.573C341.619 157.57 341.62 157.567 334.756 154.79C327.892 152.012 327.893 152.009 327.894 152.006L327.897 151.999L327.903 151.985L327.917 151.951C327.927 151.926 327.939 151.896 327.954 151.862C327.983 151.794 328.019 151.708 328.065 151.605C328.155 151.399 328.279 151.125 328.437 150.794C328.753 150.132 329.21 149.232 329.819 148.173C331.028 146.068 332.879 143.257 335.47 140.423C340.671 134.734 349.185 128.644 361.437 128.644C369.31 128.644 375.713 130.855 380.744 134.475C385.693 138.036 388.926 142.674 391.035 147.006C393.139 151.33 394.232 155.564 394.806 158.657C395.097 160.22 395.263 161.538 395.358 162.491C395.406 162.969 395.436 163.358 395.454 163.645C395.464 163.788 395.47 163.906 395.475 163.996C395.477 164.042 395.479 164.08 395.48 164.112C395.481 164.128 395.482 164.142 395.482 164.154L395.483 164.171L395.483 164.179C395.483 164.182 395.483 164.186 388.083 164.446C380.683 164.707 380.683 164.711 380.683 164.714L380.683 164.719L380.683 164.729L380.684 164.74C380.684 164.744 380.684 164.742 380.684 164.734C380.683 164.717 380.681 164.675 380.676 164.611C380.668 164.481 380.651 164.26 380.621 163.961C380.562 163.361 380.45 162.46 380.245 161.362C379.831 159.13 379.07 156.264 377.719 153.488C376.372 150.721 374.546 148.26 372.094 146.496Z" fill="#828CEA"/>
<path d="M178 121H200.833L216.539 159.289H217.331L233.037 121H255.87V188.599H237.921V149.518H237.393L222.347 188.071H211.524L196.478 149.254H195.95V188.599H178V121Z" fill="#828CEA"/>
<path d="M439.445 188.599H413.522V121H439.182C446.112 121 452.1 122.353 457.144 125.06C462.21 127.745 466.114 131.617 468.855 136.679C471.619 141.718 473 147.758 473 154.8C473 161.841 471.629 167.893 468.888 172.954C466.147 177.993 462.265 181.866 457.243 184.572C452.22 187.257 446.288 188.599 439.445 188.599ZM431.813 173.02H438.787C442.121 173.02 444.961 172.481 447.308 171.402C449.676 170.324 451.475 168.465 452.703 165.824C453.953 163.183 454.578 159.509 454.578 154.8C454.578 150.091 453.942 146.416 452.67 143.775C451.42 141.135 449.578 139.275 447.143 138.197C444.731 137.119 441.77 136.579 438.261 136.579H431.813V173.02Z" fill="#828CEA"/>
<path d="M291.484 235.154V214.373H297.135V230.608H305.55V235.154H291.484Z" fill="#828CEA"/>
<path d="M316.062 214.373V235.154H310.411V214.373H316.062Z" fill="#828CEA"/>
<path d="M321.316 235.154V214.373H335.951V218.918H326.966V222.49H335.057V227.036H326.966V235.154H321.316Z" fill="#828CEA"/>
<path d="M340.036 218.918V214.373H358.128V218.918H351.867V235.154H346.297V218.918H340.036Z" fill="#828CEA"/>
</svg>
