<svg width="319" height="320" viewBox="0 0 319 320" fill="none" xmlns="http://www.w3.org/2000/svg">
<rect y="0.191711" width="319" height="319" fill="white"/>
<rect y="0.191711" width="319" height="319" fill="white"/>
<rect y="0.191711" width="319" height="319" fill="#182022"/>
<path d="M247.247 207.313C247.66 207.313 248.339 207.509 248.339 208.828C248.339 210.146 247.651 210.343 247.247 210.343C244.725 210.343 240.679 210.204 235.235 209.928C229.919 209.655 226.13 209.516 223.651 209.516C220.787 209.516 216.962 209.655 212.277 209.928C207.909 210.201 204.559 210.343 202.32 210.343C201.911 210.343 201.228 210.146 201.228 208.828C201.228 207.509 201.919 207.313 202.32 207.313C207.92 207.313 211.996 206.797 214.434 205.781C216.795 204.795 217.983 203.105 217.983 200.752C217.983 198.868 217.224 196.19 215.728 192.785L199.347 157.408L199.475 157.343L199.353 157.1L199.232 157.16L198.602 155.795L198.73 155.729L198.604 155.486L198.487 155.546L196.338 150.905H173.883L174 150.632H196.508L215.974 192.676C217.486 196.116 218.253 198.833 218.253 200.755C218.253 203.228 217 205.006 214.527 206.035C212.053 207.064 207.942 207.588 202.307 207.588C201.76 207.588 201.487 208.006 201.487 208.831C201.487 209.655 201.76 210.073 202.307 210.073C204.537 210.073 207.881 209.933 212.247 209.66C216.937 209.387 220.768 209.245 223.637 209.245C226.122 209.245 229.916 209.382 235.235 209.66C240.695 209.933 244.727 210.073 247.247 210.073C247.793 210.073 248.066 209.655 248.066 208.831C248.066 208.006 247.793 207.588 247.247 207.588C244.083 207.588 241.263 206.857 238.86 205.404C236.458 203.952 233.982 201.383 231.508 197.741C229.035 194.099 226.176 188.701 223.017 181.69L207.628 148.656L207.704 148.62L207.903 148.806L207.966 148.737L208.67 150.253L208.534 150.395L208.731 150.586C208.753 150.564 208.774 150.542 208.793 150.518L223.263 181.576C226.419 188.573 229.269 193.959 231.726 197.588C234.184 201.216 236.622 203.747 238.991 205.169C241.361 206.592 244.135 207.313 247.247 207.313Z" fill="#FFCD58"/>
<path d="M247.247 207.586C247.793 207.586 248.066 208.003 248.066 208.828C248.066 209.652 247.793 210.07 247.247 210.07C244.727 210.07 240.695 209.931 235.235 209.658C229.914 209.385 226.122 209.243 223.637 209.243C220.768 209.243 216.937 209.382 212.247 209.658C207.879 209.931 204.537 210.07 202.307 210.07C201.761 210.07 201.488 209.652 201.488 208.828C201.488 208.003 201.761 207.586 202.307 207.586C207.942 207.586 212.053 207.064 214.527 206.032C217 205 218.253 203.226 218.253 200.752C218.253 198.841 217.486 196.111 215.974 192.674L196.508 150.629H173.998C174.526 149.394 175.053 148.151 175.581 146.903H194.643L184.727 125.63L182.101 119.995L174.577 103.851C177.894 103.425 181.29 103.114 184.727 102.92L186.275 102.838L188.678 107.996L190.671 112.276L207.625 148.664L223.015 181.698C226.173 188.709 229.021 194.11 231.505 197.749C233.99 201.388 236.452 203.968 238.858 205.412C241.263 206.857 244.083 207.586 247.247 207.586Z" fill="#FFCD58"/>
<path d="M219.015 124.404C219.044 124.543 219.054 124.685 219.045 124.827V124.857C218.896 127.879 218.489 130.883 217.828 133.836C217.499 135.302 217.079 136.745 216.569 138.158C214.859 142.777 212.213 146.992 208.796 150.539L208.673 150.266C213.105 145.693 216.183 139.982 217.565 133.765C218.222 130.826 218.626 127.835 218.772 124.827V124.797C218.778 124.68 218.769 124.563 218.748 124.447C218.675 124.073 218.457 123.742 218.141 123.528C217.825 123.315 217.436 123.235 217.062 123.308C216.687 123.38 216.356 123.598 216.143 123.914C215.929 124.231 215.85 124.619 215.922 124.993C216.448 127.771 216.448 130.622 215.922 133.4C215.667 134.793 215.295 136.163 214.811 137.495C213.292 141.654 210.974 145.476 207.985 148.743L207.86 148.47C209.843 146.297 211.528 143.87 212.87 141.251C213.513 140.003 214.077 138.715 214.56 137.396C215.037 136.084 215.402 134.733 215.652 133.359C216.177 130.616 216.183 127.798 215.668 125.054C215.581 124.608 215.674 124.146 215.928 123.769C216.181 123.392 216.574 123.131 217.019 123.044C217.465 122.957 217.927 123.05 218.304 123.304C218.681 123.557 218.942 123.95 219.029 124.396L219.015 124.404Z" fill="#FFCD58"/>
<path d="M218.748 124.456C218.769 124.571 218.778 124.688 218.772 124.805V124.827C218.625 127.831 218.222 130.817 217.565 133.752C216.159 139.962 213.084 145.67 208.671 150.261L207.966 148.746C210.955 145.478 213.273 141.657 214.792 137.497C215.276 136.166 215.648 134.796 215.903 133.402C216.428 130.625 216.428 127.774 215.903 124.996C215.83 124.621 215.91 124.233 216.124 123.917C216.337 123.601 216.668 123.383 217.043 123.31C217.417 123.238 217.805 123.317 218.122 123.531C218.438 123.745 218.656 124.075 218.729 124.45L218.748 124.456Z" fill="#FFCD58"/>
<path d="M185.822 101.217L187.094 101.137C189.079 101.017 191.132 100.892 193.131 100.692L193.382 100.256L196.945 94.7026C197.815 93.4358 198.795 92.2481 199.874 91.1534C200.949 90.0474 202.13 89.0506 203.402 88.1775C204.68 87.3009 206.054 86.5727 207.497 86.0071C208.206 85.7226 208.931 85.4774 209.667 85.2727C210.418 85.0595 211.183 84.8962 211.955 84.784C212.789 84.6585 213.636 84.6585 214.47 84.784C214.946 84.8636 215.407 85.0194 215.835 85.2454C216.311 85.5012 216.718 85.8695 217.02 86.3183C217.295 86.7452 217.481 87.2235 217.566 87.7243C217.643 88.1694 217.665 88.6225 217.631 89.073C217.571 89.8968 217.387 90.7068 217.085 91.4755L217.02 91.653C216.97 91.784 216.919 91.926 216.864 92.0461L216.536 92.6823C216.506 92.7451 216.473 92.8051 216.441 92.8652L215.944 93.6269C215.468 94.2699 214.924 94.8603 214.322 95.3878C213.169 96.3989 211.883 97.2476 210.5 97.9105C209.16 98.5663 207.779 99.1353 206.367 99.6141C205.001 100.086 203.579 100.518 202.138 100.897C200.824 101.241 199.407 101.544 197.81 101.823C197.384 101.894 196.92 101.965 196.35 102.044L195.35 103.925C193.914 106.587 192.446 109.413 190.982 112.323L190.835 112.009C192.29 109.159 193.71 106.396 195.116 103.805L196.186 101.801H196.254C196.849 101.716 197.346 101.645 197.772 101.569C199.364 101.296 200.775 100.99 202.075 100.649C203.511 100.272 204.928 99.8298 206.287 99.3711C207.687 98.8972 209.055 98.3336 210.383 97.6839C211.749 97.0324 213.019 96.1964 214.158 95.1994C214.744 94.6862 215.273 94.1114 215.736 93.4849L216.222 92.7396L216.31 92.5758L216.632 91.9451C216.684 91.8277 216.733 91.6994 216.779 91.5711L216.848 91.3936C217.141 90.6497 217.32 89.8653 217.377 89.0676C217.411 88.6407 217.39 88.2113 217.314 87.7898C217.233 87.3235 217.057 86.8787 216.798 86.4821C216.52 86.0709 216.145 85.7343 215.706 85.502C215.305 85.2886 214.872 85.1429 214.423 85.0706C213.618 84.9456 212.798 84.9456 211.993 85.0706C211.233 85.1792 210.48 85.3388 209.741 85.5484C207.539 86.1668 205.45 87.1347 203.554 88.4151C202.299 89.2781 201.132 90.264 200.071 91.3581C199.003 92.4448 198.033 93.6233 197.171 94.88L196.56 95.8137L193.284 100.963H193.218C191.192 101.168 189.123 101.293 187.103 101.416L184.646 101.572C183.114 101.664 181.585 101.798 180.294 101.913C179.42 101.987 178.751 102.049 178.123 102.12L177.348 102.205C176.881 102.254 176.417 102.301 175.953 102.358C173.253 102.677 170.427 103.098 167.317 103.649L167.08 103.693L167.203 103.395H167.244C169.496 102.997 171.587 102.666 173.588 102.393L173.665 102.56L173.913 102.445L173.87 102.355C174.563 102.26 175.235 102.175 175.92 102.096C176.384 102.038 176.851 101.989 177.318 101.94L178.093 101.858C178.721 101.787 179.393 101.722 180.277 101.651C181.569 101.533 183.098 101.402 184.632 101.307L185.536 101.249L185.822 101.217Z" fill="#FFCD58"/>
<path d="M217.317 87.768C217.393 88.1895 217.414 88.6189 217.38 89.0457C217.323 89.8435 217.144 90.6279 216.85 91.3718L216.782 91.5493C216.736 91.6776 216.686 91.8059 216.635 91.9233L216.315 92.554L216.228 92.7178L215.742 93.4631C215.279 94.0895 214.75 94.6643 214.164 95.1776C213.025 96.1746 211.754 97.0105 210.388 97.662C209.061 98.3118 207.693 98.8753 206.293 99.3493C204.928 99.8189 203.516 100.25 202.08 100.627C200.778 100.968 199.369 101.271 197.778 101.547C197.338 101.623 196.855 101.694 196.26 101.779H196.191L195.116 103.805C193.71 106.409 192.276 109.172 190.848 112.017L189.014 108.047L190.215 106.008C190.701 105.189 191.198 104.384 191.698 103.573L192.405 102.412L192.544 102.183L192.271 102.205C190.573 102.342 188.853 102.429 187.187 102.516C186.361 102.558 185.536 102.603 184.711 102.65C178.942 102.966 173.197 103.639 167.511 104.665L166.613 104.831L167.088 103.687L167.326 103.644C170.435 103.098 173.261 102.672 175.961 102.352C176.425 102.295 176.889 102.249 177.356 102.2L178.131 102.115C178.759 102.044 179.428 101.981 180.302 101.907C181.593 101.793 183.122 101.659 184.654 101.566L187.111 101.411C189.12 101.288 191.206 101.162 193.226 100.957H193.292L196.568 95.8083L197.18 94.8746C198.041 93.6179 199.011 92.4394 200.079 91.3527C201.14 90.2586 202.307 89.2727 203.563 88.4096C205.462 87.125 207.555 86.1543 209.763 85.5348C210.502 85.3252 211.255 85.1655 212.015 85.057C212.82 84.932 213.64 84.932 214.445 85.057C214.894 85.1292 215.327 85.275 215.728 85.4884C216.167 85.7207 216.542 86.0572 216.82 86.4685C217.071 86.8641 217.24 87.306 217.317 87.768ZM215.827 88.9611C215.886 88.4095 215.761 87.8538 215.472 87.3803C215.334 87.1902 215.151 87.038 214.939 86.9381C214.695 86.8203 214.433 86.7437 214.164 86.7115C213.527 86.6401 212.882 86.6659 212.253 86.7879C211.58 86.9044 210.916 87.0714 210.268 87.2875C209.606 87.499 208.957 87.7479 208.324 88.0329C207.062 88.581 205.871 89.2785 204.775 90.1105C202.582 91.7949 200.724 93.8758 199.298 96.2451L196.931 100.471L197.349 100.403L197.578 100.365C199.132 100.092 200.502 99.7724 201.772 99.4284C205.16 98.4893 207.633 97.5747 209.787 96.4662C211.033 95.8486 212.188 95.0642 213.222 94.1347C213.722 93.6779 214.171 93.169 214.562 92.6167L214.953 91.9888C214.977 91.9424 214.999 91.896 215.021 91.8469L215.278 91.3254C215.313 91.2326 215.346 91.1397 215.379 91.0524C215.412 90.965 215.42 90.9323 215.442 90.8749C215.665 90.2599 215.795 89.6147 215.827 88.9611Z" fill="#FFCD58"/>
<path d="M215.471 87.3803C215.761 87.8538 215.885 88.4095 215.826 88.9611C215.791 89.6144 215.657 90.2586 215.43 90.8722C215.409 90.9295 215.387 90.9896 215.368 91.0497C215.349 91.1097 215.302 91.2353 215.267 91.3227L215.01 91.8441C214.988 91.8933 214.966 91.9397 214.942 91.9861L214.551 92.614C214.16 93.1663 213.71 93.6752 213.211 94.132C212.177 95.0615 211.022 95.8459 209.776 96.4635C207.622 97.5719 205.149 98.4865 201.761 99.4257C200.491 99.7697 199.121 100.075 197.567 100.362L197.338 100.4L196.92 100.469L199.309 96.2424C200.735 93.8731 202.593 91.7922 204.786 90.1077C205.881 89.2758 207.073 88.5782 208.335 88.0301C208.968 87.7452 209.617 87.4963 210.279 87.2848C210.927 87.0687 211.59 86.9017 212.264 86.7852C212.893 86.6631 213.537 86.6374 214.175 86.7087C214.444 86.741 214.706 86.8175 214.95 86.9353C215.158 87.0376 215.338 87.1906 215.471 87.3803ZM215.553 88.9474C215.609 88.457 215.501 87.9621 215.248 87.5387C215.137 87.384 214.989 87.2607 214.816 87.181C214.598 87.0791 214.365 87.0119 214.125 86.9817C213.518 86.9169 212.904 86.9427 212.304 87.0582C211.645 87.1723 210.995 87.3356 210.361 87.5469C209.71 87.7557 209.072 88.0009 208.45 88.2813C207.208 88.8219 206.035 89.5083 204.955 90.3262C202.792 91.9916 200.958 94.0461 199.549 96.3843L199.022 97.2962L198.493 98.2381L197.442 100.111L197.524 100.095C199.069 99.8216 200.431 99.5076 201.692 99.1636C205.064 98.2326 207.521 97.3235 209.656 96.2233C210.883 95.6174 212.021 94.8467 213.039 93.9327C213.521 93.489 213.957 92.9968 214.338 92.4639L214.718 91.8523L214.775 91.7295L215.026 91.2135C215.059 91.1343 215.089 91.0469 215.119 90.9568L215.185 90.7739C215.399 90.1873 215.524 89.5714 215.553 88.9474Z" fill="#FFCD58"/>
<path d="M208.671 150.261L208.794 150.534C208.774 150.558 208.753 150.581 208.731 150.602L208.534 150.411L208.671 150.261Z" fill="#FFCD58"/>
<path d="M207.852 148.478L207.977 148.751L207.914 148.819L207.715 148.634L207.852 148.478Z" fill="#FFCD58"/>
<path d="M190.996 112.32L207.852 148.478L207.715 148.628L207.639 148.664L190.674 112.268L190.723 112.246L190.966 112.369L190.996 112.32Z" fill="#FFCD58"/>
<path d="M199.347 157.1L199.469 157.342L199.341 157.407L199.227 157.16L199.347 157.1Z" fill="#FFCD58"/>
<path d="M199.227 157.16L199.342 157.408C197.753 158.227 196.167 158.91 194.957 159.426C193.363 160.117 192.055 160.63 190.84 161.045C189.546 161.49 188.165 161.91 186.614 162.328C184.214 162.972 181.782 163.554 179.428 164.116L178.137 164.414C175.243 165.099 172.36 165.697 169.567 166.199C168.781 166.341 167.929 166.472 166.962 166.639L166.763 167.084L166.165 168.427C165.778 169.304 165.379 170.207 164.969 171.084C164.407 172.312 163.79 173.62 163.086 175.086C161.786 177.764 160.446 180.41 159.105 182.952C156.219 188.439 153.227 193.777 150.68 198.268L149.984 199.496C148.813 201.571 147.6 203.717 146.331 205.879C146.085 206.294 145.837 206.698 145.586 207.119L145.282 207.094C145.555 206.644 145.828 206.19 146.102 205.729C147.371 203.57 148.583 201.426 149.754 199.351L150.451 198.12C152.998 193.629 155.987 188.292 158.873 182.831C160.211 180.292 161.549 177.644 162.848 174.974C163.553 173.511 164.167 172.203 164.729 170.977C165.139 170.103 165.548 169.2 165.925 168.326C166.127 167.87 166.326 167.42 166.523 166.98L166.782 166.401H166.853C167.847 166.246 168.721 166.098 169.526 165.954C172.316 165.451 175.194 164.862 178.082 164.171L179.374 163.862C181.724 163.3 184.157 162.718 186.551 162.074C188.094 161.659 189.472 161.255 190.758 160.796C191.968 160.384 193.27 159.874 194.854 159.186C196.058 158.659 197.641 157.968 199.227 157.16Z" fill="#FFCD58"/>
<path d="M198.596 155.798L199.227 157.163C197.641 157.982 196.057 158.662 194.859 159.178C193.273 159.866 191.97 160.376 190.764 160.788C189.478 161.233 188.099 161.651 186.556 162.066C184.162 162.71 181.73 163.292 179.379 163.854L178.088 164.163C175.199 164.845 172.322 165.443 169.531 165.946C168.712 166.09 167.852 166.238 166.858 166.393H166.788L166.528 166.972C166.332 167.412 166.132 167.862 165.93 168.318C165.543 169.192 165.144 170.095 164.734 170.969C164.172 172.195 163.558 173.503 162.853 174.966C161.554 177.641 160.216 180.284 158.878 182.823C155.993 188.303 153.003 193.635 150.456 198.112L149.746 199.36C148.575 201.435 147.363 203.578 146.093 205.737C145.82 206.188 145.547 206.641 145.274 207.102C142.832 206.934 140.417 206.496 138.072 205.795C138.694 204.667 139.317 203.501 139.92 202.33C140.524 201.159 141.143 199.925 141.85 198.508L151.556 179.124C152.839 176.53 154.095 173.986 155.315 171.398C155.938 170.098 156.498 168.9 157.03 167.734L157.126 167.526H156.896C155.419 167.622 153.923 167.698 152.476 167.769L152.129 167.786C147.93 167.985 143.753 168.313 139.661 168.766C138.05 168.948 136.453 169.143 134.869 169.353C134.714 169.375 134.555 169.394 134.4 169.418C128.837 170.173 123.316 171.21 117.858 172.525L117.451 172.629C114.822 173.295 112.106 173.994 109.487 174.739C106.74 175.513 104.055 176.491 101.453 177.663C100.191 178.237 98.9627 178.867 97.6058 179.574C96.2489 180.281 94.9849 180.969 93.8355 181.644C92.4513 182.463 91.2773 183.203 90.2508 183.934C89.9095 184.169 89.6365 184.369 89.3908 184.557L89.0905 184.783C88.9076 184.92 88.7274 185.056 88.5445 185.196L88.2169 185.469C87.7882 185.815 87.3432 186.176 86.9337 186.561C84.8345 188.414 82.9926 190.54 81.457 192.881C80.679 194.049 79.9734 195.263 79.3439 196.518C78.7086 197.766 78.1462 199.051 77.6594 200.364C76.6777 202.971 76.0354 205.694 75.7483 208.465C75.4771 211.201 75.6207 213.962 76.1742 216.655C76.4606 217.988 76.8438 219.298 77.3209 220.576C77.8205 221.851 78.4108 223.089 79.0873 224.28C80.4201 226.671 82.0735 228.868 84.0015 230.811C85.8939 232.716 88.0967 234.286 90.5156 235.452C92.9209 236.593 95.5088 237.3 98.16 237.541C98.9354 237.617 99.7162 237.655 100.508 237.655C102.399 237.649 104.285 237.441 106.132 237.036C107.433 236.76 108.71 236.386 109.954 235.916C111.195 235.447 112.398 234.882 113.553 234.229C114.725 233.562 115.856 232.824 116.938 232.018C117.211 231.832 117.451 231.627 117.697 231.428L118.789 230.543C119.239 230.186 119.701 229.817 120.129 229.41L121.669 228.021C121.983 227.718 122.292 227.409 122.6 227.101C122.783 226.918 122.963 226.735 123.146 226.555L123.886 225.815L124.588 225.039L125.128 224.477C125.426 224.152 125.724 223.824 126.018 223.489C126.239 223.216 126.461 222.962 126.685 222.7C127.353 221.905 128.05 221.086 128.68 220.243C128.83 220.043 128.986 219.847 129.139 219.65C129.412 219.301 129.685 218.94 129.958 218.558L131.2 216.852C132.805 214.572 134.356 212.183 135.814 209.753L135.776 209.734C137.119 209.789 138.512 209.853 139.956 209.928C141.175 209.999 142.325 210.062 143.404 210.116C142.724 211.184 142.025 212.246 141.329 213.278C139.691 215.675 137.922 218.102 136.057 220.494C134.332 222.678 132.415 224.908 130.193 227.292C129.851 227.649 129.499 228.004 129.15 228.356C128.967 228.537 128.787 228.72 128.604 228.903L127.809 229.702L126.99 230.475L126.42 231.005C126.057 231.343 125.693 231.682 125.328 232.009L123.58 233.473L123.266 233.746C123.086 233.901 122.898 234.06 122.699 234.202L120.826 235.602C120.536 235.815 120.241 236.039 119.933 236.241C118.654 237.124 117.322 237.927 115.944 238.646C114.546 239.373 113.094 239.992 111.601 240.497C110.114 240.999 108.592 241.388 107.047 241.66C103.958 242.225 100.8 242.311 97.685 241.914C94.5533 241.517 91.5168 240.568 88.7165 239.11C85.9461 237.655 83.444 235.739 81.3178 233.443C79.2293 231.189 77.4592 228.66 76.0568 225.927C75.3501 224.569 74.738 223.164 74.2249 221.722C73.7332 220.264 73.3481 218.772 73.0728 217.258C72.5532 214.243 72.4851 211.167 72.8708 208.132C73.2609 205.133 74.0344 202.197 75.1723 199.395C76.2789 196.603 77.7014 193.946 79.4122 191.478C81.1222 189.001 83.1477 186.758 85.4376 184.805C85.899 184.399 86.3904 184.014 86.8654 183.64L87.1794 183.394C87.3733 183.246 87.5726 183.104 87.7691 182.96L88.0831 182.733C88.3561 182.537 88.6291 182.335 88.9977 182.097C90.0897 181.346 91.3292 180.585 92.7789 179.771C94.1003 179.026 95.4299 178.343 96.6694 177.718C98.0699 177.011 99.334 176.383 100.639 175.807C103.34 174.625 106.125 173.645 108.971 172.877C111.644 172.143 114.355 171.493 116.979 170.865L117.448 170.753C122.608 169.56 128.08 168.602 134.667 167.734L135.511 167.627C137.24 167.413 138.985 167.22 140.745 167.049C144.471 166.683 148.261 166.421 152.064 166.265L152.378 166.251C154.142 166.175 155.963 166.096 157.745 165.978H157.824L158.917 163.562C160.855 159.289 162.886 155.047 164.969 150.908C165.486 149.878 166.007 148.855 166.531 147.839C171.128 138.928 176.228 130.093 181.159 121.54L181.907 120.24L184.402 125.589C181.959 131.049 179.592 136.673 177.304 142.101C176.125 144.899 174.91 147.785 173.692 150.627C173.624 150.793 173.553 150.957 173.482 151.121C171.805 155.028 169.982 159.18 167.574 164.58L167.47 164.813L167.852 164.747C168.319 164.668 168.786 164.591 169.25 164.507C172.013 164.01 174.866 163.415 177.73 162.738L179.024 162.426C181.369 161.864 183.796 161.28 186.147 160.649C187.659 160.242 189.003 159.83 190.261 159.399C191.722 158.899 193.098 158.307 194.25 157.812C196.03 157.043 197.379 156.426 198.596 155.798Z" fill="#FFCD58"/>
<path d="M198.599 155.489L198.724 155.731L198.596 155.797L198.482 155.549L198.599 155.489Z" fill="#FFCD58"/>
<path d="M198.482 155.549L198.597 155.798C197.379 156.426 196.03 157.053 194.261 157.818C193.109 158.32 191.733 158.91 190.272 159.404C189.014 159.838 187.671 160.248 186.158 160.655C183.807 161.285 181.38 161.869 179.035 162.432L177.741 162.743C174.877 163.42 172.024 164.015 169.261 164.512C168.797 164.597 168.33 164.673 167.863 164.752L167.481 164.818L167.585 164.586C169.993 159.186 171.817 155.03 173.493 151.126C173.564 150.963 173.635 150.799 173.703 150.632V150.905H173.878L173.739 151.23C172.084 155.085 170.291 159.172 167.932 164.46L169.209 164.239C171.967 163.745 174.814 163.147 177.673 162.476L178.967 162.164C181.312 161.602 183.739 161.02 186.084 160.39C187.589 159.983 188.929 159.571 190.18 159.142C191.635 158.645 193.003 158.066 194.152 157.564C195.924 156.802 197.264 156.18 198.482 155.549Z" fill="#FFCD58"/>
<path d="M184.727 125.63L194.646 146.908H175.584L175.699 146.635H194.217L184.561 125.919L184.684 125.646L184.727 125.63Z" fill="#FFCD58"/>
<path d="M186.573 102.822L186.278 102.838L184.73 102.92C181.293 103.114 177.905 103.425 174.579 103.851L174.497 103.677L174.249 103.794L174.293 103.887C172.008 104.182 169.762 104.53 167.555 104.932L166.484 105.134L166.607 104.831L167.505 104.665C173.192 103.639 178.936 102.966 184.705 102.65C185.53 102.601 186.355 102.556 187.182 102.516C188.847 102.429 190.567 102.342 192.265 102.205L192.538 102.183L192.399 102.412L191.692 103.573C191.192 104.392 190.695 105.192 190.209 106.008L189.008 108.048L188.869 107.75L189.961 105.872C190.45 105.053 190.946 104.234 191.443 103.431C191.634 103.122 191.826 102.811 192.014 102.5C190.4 102.625 188.77 102.71 187.19 102.792L186.573 102.822Z" fill="#FFCD58"/>
<path d="M190.996 112.317L190.966 112.375L190.723 112.252C190.764 112.167 190.807 112.083 190.848 112.001L190.996 112.317Z" fill="#FFCD58"/>
<path d="M189.013 108.047L190.848 111.995C190.807 112.077 190.764 112.162 190.723 112.246L190.673 112.268L188.68 107.987L188.735 107.963L188.97 108.102L189.013 108.047Z" fill="#FFCD58"/>
<path d="M188.866 107.75L189.005 108.047L188.97 108.11L188.735 107.971L188.866 107.75Z" fill="#FFCD58"/>
<path d="M188.866 107.747L188.735 107.968L188.681 107.993L186.283 102.838L186.578 102.822L188.866 107.747Z" fill="#FFCD58"/>
<path d="M175.229 78.4801L185.822 101.217L185.533 101.236L174.978 78.5757C174.834 78.1416 174.459 77.9395 173.834 77.9395C173.57 77.9157 173.304 77.9629 173.064 78.0761C172.824 78.1894 172.619 78.3647 172.469 78.5838L160.932 106.349L160.883 106.328L160.82 106.054L160.751 106.071L161.251 104.867L161.508 104.81L161.448 104.537L161.379 104.553L172.229 78.4419C172.401 78.1807 172.64 77.9699 172.921 77.8313C173.201 77.6927 173.514 77.6311 173.826 77.6529C174.763 77.672 175.107 78.1115 175.229 78.4801Z" fill="#FFCD58"/>
<path d="M174.975 78.5811L185.53 101.241L184.626 101.299C183.092 101.394 181.563 101.525 180.272 101.643C179.392 101.714 178.721 101.779 178.087 101.85L177.312 101.932C176.845 101.981 176.378 102.03 175.914 102.088C175.24 102.167 174.549 102.251 173.864 102.347L170.41 94.9319L166.296 104.861L148.88 146.908H166.719C166.577 147.181 166.446 147.454 166.299 147.727C165.802 148.694 165.307 149.666 164.814 150.643H147.221L140.515 166.814C138.861 166.978 137.223 167.16 135.601 167.36L160.945 106.36L172.483 78.5948C172.632 78.3756 172.837 78.2003 173.077 78.087C173.317 77.9738 173.583 77.9266 173.848 77.9504C174.456 77.945 174.83 78.1416 174.975 78.5811Z" fill="#FFCD58"/>
<path d="M182.101 119.995L184.727 125.63L184.684 125.649L184.435 125.537L184.411 125.594L181.915 120.246L182.046 120.019L182.101 119.995Z" fill="#FFCD58"/>
<path d="M184.684 125.646L184.561 125.919L184.411 125.591L184.435 125.534L184.684 125.646Z" fill="#FFCD58"/>
<path d="M184.411 125.594L184.561 125.922C182.156 131.319 179.821 136.856 177.566 142.212C176.952 143.668 176.33 145.15 175.699 146.635H175.494V146.908H175.584C175.058 148.153 174.53 149.395 174.001 150.635H173.703C174.921 147.793 176.136 144.902 177.315 142.109C179.6 136.678 181.967 131.063 184.411 125.594Z" fill="#FFCD58"/>
<path d="M174.576 103.851L182.101 119.995L182.046 120.019L181.811 119.883L181.776 119.945L174.29 103.887C174.385 103.873 174.481 103.859 174.576 103.851Z" fill="#FFCD58"/>
<path d="M182.046 120.019L181.915 120.246L181.776 119.945L181.812 119.883L182.046 120.019Z" fill="#FFCD58"/>
<path d="M181.776 119.945L181.915 120.246L181.167 121.551C176.237 130.102 171.137 138.939 166.539 147.85C166.015 148.866 165.495 149.889 164.978 150.919V150.646H164.822C165.313 149.668 165.809 148.697 166.307 147.73C166.446 147.457 166.58 147.184 166.728 146.911H166.952V146.638H166.87C171.322 138.093 176.209 129.618 180.941 121.412L181.776 119.945Z" fill="#FFCD58"/>
<path d="M175.494 146.635H175.698L175.584 146.907H175.494V146.635Z" fill="#FFCD58"/>
<path d="M174.494 103.677L174.576 103.851C174.48 103.851 174.385 103.872 174.304 103.886L174.26 103.794L174.494 103.677Z" fill="#FFCD58"/>
<path d="M173.997 150.635L173.88 150.907H173.79V150.635H173.997Z" fill="#FFCD58"/>
<path d="M173.87 102.341L173.913 102.432L173.665 102.546L173.588 102.38L173.87 102.341Z" fill="#FFCD58"/>
<path d="M170.416 94.9264L173.87 102.341L173.597 102.38L170.43 95.6144L167.203 103.401L166.957 103.444L167.006 103.717L167.08 103.704L166.605 104.848L166.356 104.894L166.302 104.872L170.416 94.9264Z" fill="#FFCD58"/>
<path d="M173.793 150.635H173.708V150.907H173.793V150.635Z" fill="#FFCD58"/>
<path d="M167.202 103.39L167.079 103.687L167.006 103.7L166.957 103.433L167.202 103.39Z" fill="#FFCD58"/>
<path d="M166.939 146.635V146.907H166.716L166.858 146.635H166.939Z" fill="#FFCD58"/>
<path d="M166.858 146.635L166.716 146.908H148.88L166.304 104.864L166.359 104.886L166.411 105.159L166.484 105.145L149.284 146.643L166.858 146.635Z" fill="#FFCD58"/>
<path d="M166.604 104.831L166.481 105.133L166.408 105.147L166.356 104.875L166.604 104.831Z" fill="#FFCD58"/>
<path d="M164.966 150.908C162.883 155.047 160.852 159.289 158.914 163.562L157.822 165.978H157.743C155.96 166.096 154.139 166.175 152.375 166.251L152.061 166.265C148.258 166.421 144.469 166.683 140.742 167.048V166.975L140.829 166.765C144.529 166.407 148.285 166.148 152.058 165.992L152.37 165.978C154.106 165.905 155.9 165.825 157.65 165.705L158.682 163.439C160.593 159.202 162.616 154.998 164.688 150.881L164.966 150.908Z" fill="#FFCD58"/>
<path d="M164.966 150.635V150.907H164.675C164.718 150.817 164.764 150.725 164.811 150.635H164.966Z" fill="#FFCD58"/>
<path d="M164.811 150.635C164.765 150.725 164.718 150.818 164.675 150.908H147.404L140.824 166.775L140.516 166.806L147.221 150.635H164.811Z" fill="#FFCD58"/>
<path d="M161.453 104.556L161.513 104.829L161.256 104.886L161.385 104.577L161.453 104.556Z" fill="#FFCD58"/>
<path d="M161.384 104.572L161.256 104.881C160.437 105.069 159.602 105.271 158.777 105.478C157.139 105.888 155.812 106.257 154.556 106.633C153.909 106.824 153.224 107.043 152.468 107.294L150.401 107.987C147.617 108.883 144.887 109.937 142.224 111.146C139.536 112.397 137.038 114.019 134.801 115.965C133.671 116.975 132.636 117.985 131.642 119.055C130.633 120.136 129.687 121.274 128.808 122.463C126.824 125.157 125.486 127.756 124.713 130.402C124.278 131.872 124.05 133.395 124.036 134.928C124.032 136.478 124.254 138.019 124.694 139.504C125.145 140.997 125.794 142.423 126.622 143.744C127.465 145.07 128.427 146.316 129.496 147.468L129.527 147.501C129.623 147.605 129.732 147.697 129.851 147.774C130.031 147.92 130.239 148.028 130.462 148.088C130.686 148.148 130.92 148.161 131.148 148.124C131.377 148.087 131.595 148.003 131.789 147.876C131.982 147.748 132.147 147.582 132.271 147.386C132.395 147.191 132.477 146.972 132.51 146.742C132.544 146.513 132.528 146.28 132.465 146.057C132.401 145.834 132.291 145.628 132.142 145.451C131.993 145.274 131.807 145.13 131.599 145.03C129.293 143.579 127.509 141.431 126.507 138.898C126.032 137.627 125.778 136.285 125.756 134.928C125.749 133.553 125.932 132.183 126.302 130.858C126.677 129.512 127.187 128.208 127.823 126.965C128.469 125.708 129.206 124.501 130.029 123.353C131.699 121.043 133.603 118.911 135.71 116.991C137.821 115.086 140.197 113.495 142.762 112.268C145.377 111.055 148.057 109.989 150.792 109.077L152.842 108.364C153.595 108.105 154.267 107.886 154.895 107.693C156.132 107.308 157.453 106.931 159.053 106.51C159.624 106.363 160.194 106.221 160.77 106.085L160.639 106.396C160.131 106.518 159.625 106.643 159.121 106.773C157.527 107.196 156.208 107.57 154.974 107.955C154.349 108.146 153.68 108.364 152.932 108.624L150.879 109.333C148.153 110.241 145.481 111.301 142.874 112.509C140.332 113.721 137.979 115.295 135.888 117.183C133.793 119.089 131.901 121.206 130.242 123.5C129.427 124.638 128.697 125.834 128.058 127.079C127.429 128.305 126.927 129.591 126.559 130.918C126.197 132.218 126.019 133.562 126.029 134.912C126.05 136.239 126.299 137.552 126.766 138.794C127.745 141.276 129.491 143.38 131.749 144.801C132.173 145.074 132.471 145.503 132.58 145.996C132.688 146.488 132.598 147.004 132.328 147.43C132.054 147.854 131.624 148.153 131.131 148.262C130.638 148.37 130.122 148.279 129.696 148.009C129.555 147.919 129.426 147.81 129.314 147.686L129.284 147.654C128.212 146.487 127.248 145.226 126.403 143.886C125.562 142.54 124.903 141.089 124.443 139.57C123.993 138.064 123.764 136.5 123.763 134.928C123.775 133.374 124.003 131.828 124.443 130.336C125.221 127.655 126.575 125.032 128.576 122.31C129.461 121.111 130.415 119.966 131.432 118.878C132.431 117.802 133.472 116.787 134.61 115.771C136.869 113.805 139.394 112.166 142.11 110.903C144.782 109.692 147.521 108.634 150.314 107.734L152.38 107.04C153.142 106.786 153.827 106.57 154.477 106.377C155.739 106 157.082 105.631 158.709 105.219C159.599 104.99 160.497 104.774 161.384 104.572Z" fill="#FFCD58"/>
<path d="M161.256 104.881L160.757 106.085C160.181 106.221 159.61 106.358 159.039 106.51C157.44 106.931 156.118 107.308 154.881 107.693C154.254 107.886 153.582 108.105 152.828 108.364L150.792 109.077C148.058 109.989 145.377 111.055 142.762 112.268C140.194 113.492 137.816 115.08 135.702 116.983C133.595 118.903 131.691 121.035 130.021 123.345C129.198 124.493 128.461 125.7 127.815 126.956C127.18 128.195 126.67 129.493 126.294 130.833C125.924 132.158 125.741 133.528 125.748 134.904C125.769 136.263 126.023 137.608 126.499 138.882C127.5 141.422 129.287 143.576 131.599 145.03C131.923 145.28 132.43 145.719 132.5 146.122C132.57 146.525 132.648 146.668 132.212 147.351C131.991 147.696 131.667 148.064 131.271 148.17C130.876 148.275 130.204 147.969 129.841 147.779C129.721 147.702 129.612 147.611 129.516 147.506L129.486 147.473C128.424 146.318 127.469 145.069 126.633 143.741C125.805 142.42 125.157 140.994 124.705 139.501C124.262 138.018 124.036 136.477 124.036 134.928C124.048 133.399 124.273 131.878 124.705 130.41C125.475 127.765 126.813 125.166 128.8 122.471C129.679 121.282 130.625 120.144 131.634 119.064C132.628 117.993 133.663 116.983 134.793 115.973C137.03 114.027 139.528 112.405 142.216 111.154C144.879 109.945 147.609 108.891 150.393 107.996L152.46 107.302C153.216 107.051 153.901 106.833 154.548 106.642C155.804 106.265 157.145 105.896 158.769 105.487C159.602 105.271 160.435 105.069 161.256 104.881Z" fill="#FFCD58"/>
<path d="M160.937 106.355L135.593 167.354L135.282 167.392L160.62 106.396L160.893 106.333L160.937 106.355Z" fill="#FFCD58"/>
<path d="M160.825 106.068L160.888 106.341L160.615 106.404L160.746 106.093L160.825 106.068Z" fill="#FFCD58"/>
<path d="M157.134 167.504L157.038 167.712C156.492 168.878 155.946 170.076 155.324 171.376C154.103 173.964 152.847 176.508 151.564 179.102L141.859 198.486C141.152 199.914 140.551 201.112 139.928 202.308C139.306 203.504 138.703 204.645 138.08 205.773C137.99 205.745 137.9 205.718 137.807 205.685C138.441 204.547 139.071 203.368 139.683 202.185C140.294 201.003 140.9 199.78 141.607 198.363L151.316 178.979C152.599 176.386 153.852 173.844 155.073 171.258C155.657 170.033 156.186 168.902 156.689 167.805C155.285 167.892 153.866 167.963 152.493 168.031L152.146 168.048C148.018 168.244 143.914 168.564 139.893 169.003L139.926 168.927L139.672 168.823V168.755C143.767 168.302 147.941 167.974 152.14 167.775L152.487 167.758C153.934 167.687 155.43 167.611 156.907 167.515L157.134 167.504Z" fill="#FFCD58"/>
<path d="M150.74 207.313C151.229 207.313 152.051 207.509 152.051 208.828C152.051 210.146 151.232 210.343 150.74 210.343C148.949 210.343 146.598 210.272 143.721 210.133L143.762 210.067L143.53 209.92V209.852C146.495 209.996 148.911 210.07 150.737 210.07C151.425 210.07 151.775 209.652 151.775 208.828C151.775 208.003 151.425 207.586 150.737 207.586C148.848 207.586 147.09 207.519 145.463 207.386V207.315L145.577 207.124C147.174 207.25 148.895 207.313 150.74 207.313Z" fill="#FFCD58"/>
<path d="M150.74 207.586C151.428 207.586 151.778 208.003 151.778 208.828C151.778 209.652 151.428 210.07 150.74 210.07C148.914 210.07 146.497 209.996 143.532 209.852C142.42 209.797 141.233 209.732 139.97 209.658C134.728 209.385 130.128 209.243 126.303 209.243C122.884 209.243 118.773 209.382 114.083 209.658C109.987 209.931 106.58 210.07 103.937 210.07C103.249 210.07 102.903 209.652 102.903 208.828C102.903 208.003 103.249 207.586 103.937 207.586C107.787 207.586 111.096 206.889 113.766 205.516C116.436 204.143 119.021 201.634 121.429 198.06C123.837 194.486 126.442 189.324 129.194 182.733L134.632 169.653L134.905 169.615C136.447 169.406 138.004 169.214 139.577 169.042L133.128 184.603C131.217 189.272 130.229 193.173 130.229 196.201C130.229 200.187 131.899 203.114 135.197 204.899C137.605 206.204 141.045 207.04 145.455 207.392C147.089 207.523 148.851 207.587 150.74 207.586Z" fill="#FFCD58"/>
<path d="M145.585 207.124L145.471 207.315L145.239 207.173L145.282 207.1L145.585 207.124Z" fill="#FFCD58"/>
<path d="M145.471 207.315V207.386C141.061 207.034 137.621 206.199 135.213 204.894C131.915 203.108 130.245 200.181 130.245 196.195C130.245 193.168 131.219 189.266 133.144 184.598L139.598 169.055L139.909 169.02L133.401 184.718C131.49 189.359 130.523 193.217 130.523 196.209C130.523 200.089 132.148 202.933 135.35 204.673C136.142 205.095 136.97 205.447 137.823 205.724L137.769 205.825L138.009 205.958L138.091 205.811C140.436 206.512 142.851 206.951 145.293 207.119L145.249 207.192L145.471 207.315Z" fill="#FFCD58"/>
<path d="M143.762 210.067L143.721 210.133L143.404 210.116L143.53 209.92L143.762 210.067Z" fill="#FFCD58"/>
<path d="M143.404 210.116L143.721 210.133C143.011 211.244 142.282 212.355 141.556 213.431C139.918 215.833 138.14 218.266 136.273 220.66C134.542 222.861 132.62 225.088 130.392 227.486C130.045 227.846 129.693 228.201 129.341 228.553C129.161 228.736 128.981 228.916 128.795 229.099L127.998 229.902L127.162 230.677L126.592 231.207C126.226 231.548 125.863 231.887 125.5 232.217L123.763 233.68L123.452 233.94C123.266 234.098 123.075 234.262 122.868 234.409L120.998 235.807C120.706 236.023 120.405 236.247 120.094 236.454C118.806 237.342 117.465 238.151 116.078 238.876C111.567 241.198 106.568 242.415 101.494 242.425C100.211 242.426 98.9296 242.343 97.6578 242.176C94.4946 241.776 91.4275 240.817 88.5992 239.345C85.8008 237.873 83.2738 235.934 81.1268 233.612C79.0222 231.34 77.2383 228.791 75.8249 226.036C75.1102 224.666 74.4917 223.249 73.9738 221.793C73.4775 220.322 73.0888 218.816 72.8108 217.288C72.2886 214.246 72.2205 211.142 72.6088 208.08C73.0016 205.058 73.7805 202.099 74.9267 199.275C76.042 196.467 77.4746 193.796 79.1966 191.314C80.9201 188.82 82.9613 186.561 85.2684 184.595C85.7325 184.186 86.2267 183.798 86.7072 183.421L87.0184 183.175C87.2177 183.025 87.417 182.881 87.6191 182.736L87.9276 182.512C88.2006 182.313 88.49 182.108 88.8531 181.868C89.9451 181.111 91.1955 180.347 92.6534 179.528C93.9803 178.783 95.3126 178.097 96.5548 177.472C97.9581 176.762 99.2249 176.132 100.538 175.561C103.252 174.378 106.051 173.398 108.911 172.632C111.59 171.894 114.303 171.245 116.927 170.617L117.399 170.505C122.568 169.309 128.047 168.348 134.646 167.48L135.295 167.398L135.265 167.472L135.517 167.575V167.644L134.673 167.75C128.085 168.618 122.614 169.577 117.454 170.77L116.984 170.882C114.361 171.51 111.65 172.159 108.977 172.894C106.129 173.658 103.342 174.634 100.639 175.812C99.3341 176.386 98.07 177.013 96.6695 177.723C95.43 178.349 94.1004 179.031 92.779 179.776C91.3293 180.595 90.0898 181.352 88.9978 182.102C88.6374 182.34 88.3453 182.542 88.0832 182.739L87.7692 182.965C87.5726 183.11 87.3733 183.252 87.1795 183.399L86.8655 183.645C86.3905 184.019 85.8991 184.404 85.4377 184.811C83.1478 186.764 81.1223 189.007 79.4123 191.483C77.7015 193.952 76.279 196.608 75.1724 199.401C74.0345 202.202 73.261 205.138 72.8709 208.137C72.4852 211.173 72.5533 214.248 73.0729 217.264C73.3482 218.778 73.7333 220.27 74.225 221.728C74.7381 223.17 75.3502 224.574 76.0569 225.932C77.4593 228.666 79.2294 231.195 81.3179 233.448C83.4441 235.744 85.9462 237.661 88.7166 239.116C91.5169 240.573 94.5534 241.523 97.6851 241.92C100.8 242.316 103.958 242.231 107.047 241.666C108.592 241.393 110.114 241.004 111.601 240.503C113.094 239.998 114.546 239.379 115.944 238.652C117.326 237.924 118.661 237.11 119.941 236.217C120.25 236.015 120.545 235.791 120.834 235.578L122.707 234.177C122.906 234.035 123.094 233.877 123.275 233.721L123.589 233.448L125.336 231.985C125.702 231.657 126.065 231.319 126.428 230.98L126.985 230.483L127.804 229.711L128.598 228.911C128.776 228.73 128.956 228.548 129.144 228.365C129.494 228.012 129.846 227.658 130.187 227.3C132.41 224.917 134.326 222.694 136.052 220.502C137.916 218.11 139.688 215.683 141.324 213.286C142.025 212.246 142.724 211.184 143.404 210.116Z" fill="#FFCD58"/>
<path d="M143.532 209.852V209.92L143.407 210.116C142.327 210.062 141.178 209.999 139.959 209.928C138.517 209.852 137.124 209.787 135.779 209.734L135.577 209.614L135.511 209.723C132.088 209.584 129.005 209.516 126.305 209.516C122.892 209.516 118.786 209.655 114.104 209.928C110.009 210.201 106.591 210.343 103.94 210.343C103.451 210.343 102.632 210.146 102.632 208.828C102.632 207.509 103.451 207.313 103.94 207.313C107.746 207.313 111.014 206.627 113.651 205.273C116.288 203.919 118.838 201.451 121.213 197.902C123.589 194.353 126.21 189.206 128.953 182.613L134.326 169.68L134.643 169.637L129.202 182.733C126.45 189.335 123.837 194.489 121.437 198.06C119.037 201.631 116.452 204.143 113.774 205.516C111.096 206.889 107.787 207.586 103.945 207.586C103.257 207.586 102.911 208.003 102.911 208.828C102.911 209.652 103.257 210.07 103.945 210.07C106.588 210.07 110.003 209.931 114.09 209.658C118.781 209.385 122.892 209.243 126.311 209.243C130.133 209.243 134.736 209.382 139.978 209.658C141.237 209.732 142.422 209.797 143.532 209.852Z" fill="#FFCD58"/>
<path d="M140.824 166.775L140.737 166.986L140.483 166.882L140.515 166.806L140.824 166.775Z" fill="#FFCD58"/>
<path d="M140.737 166.986V167.059C138.975 167.229 137.23 167.422 135.503 167.638V167.57L135.593 167.354C137.22 167.152 138.858 166.97 140.507 166.808L140.475 166.885L140.737 166.986Z" fill="#FFCD58"/>
<path d="M139.931 168.93L139.898 169.006L139.598 169.055L139.688 168.839L139.931 168.93Z" fill="#FFCD58"/>
<path d="M139.669 168.758V168.826L139.598 169.055C138.029 169.226 136.472 169.417 134.927 169.628L134.654 169.667L134.684 169.593L134.43 169.489V169.424C134.586 169.399 134.744 169.38 134.9 169.358C136.467 169.136 138.056 168.936 139.669 168.758Z" fill="#FFCD58"/>
<path d="M138.08 205.792L137.998 205.939L137.758 205.806L137.813 205.705C137.9 205.737 137.99 205.765 138.08 205.792Z" fill="#FFCD58"/>
<path d="M135.776 209.734L135.809 209.753C134.351 212.183 132.806 214.572 131.195 216.852L129.953 218.558C129.68 218.929 129.407 219.29 129.134 219.65C128.981 219.847 128.825 220.043 128.675 220.243C128.039 221.094 127.348 221.913 126.679 222.7C126.455 222.973 126.234 223.224 126.013 223.489C125.718 223.824 125.421 224.152 125.123 224.477L124.607 225.042L123.905 225.817L123.165 226.557C122.98 226.737 122.8 226.92 122.619 227.103C122.311 227.412 122.002 227.72 121.688 228.023L120.149 229.413C119.72 229.82 119.259 230.188 118.808 230.546L117.716 231.431C117.47 231.63 117.216 231.835 116.957 232.02C115.877 232.823 114.748 233.559 113.577 234.224C112.423 234.877 111.22 235.441 109.979 235.911C108.735 236.38 107.457 236.754 106.157 237.03C104.315 237.432 102.436 237.637 100.552 237.642C99.76 237.642 98.9792 237.603 98.2038 237.527C95.5526 237.286 92.9647 236.579 90.5594 235.438C88.1405 234.272 85.9377 232.703 84.0453 230.797C82.1173 228.855 80.4639 226.657 79.1311 224.267C78.4499 223.076 77.8551 221.838 77.351 220.562C76.874 219.285 76.4907 217.974 76.2044 216.641C75.6508 213.948 75.5072 211.187 75.7785 208.451C76.0656 205.68 76.7079 202.958 77.6896 200.351C78.1763 199.037 78.7388 197.753 79.3741 196.504C80.0035 195.25 80.7092 194.035 81.4872 192.867C83.0227 190.526 84.8646 188.4 86.9638 186.547C87.3734 186.168 87.8184 185.807 88.247 185.455L88.5746 185.182C88.7521 185.043 88.9323 184.909 89.1206 184.77L89.421 184.543C89.6667 184.355 89.9397 184.156 90.2809 183.921C91.3075 183.189 92.4814 182.438 93.8656 181.63C95.015 180.956 96.249 180.265 97.6359 179.561C99.0228 178.856 100.221 178.223 101.483 177.65C104.085 176.477 106.77 175.5 109.518 174.726C112.136 173.969 114.852 173.281 117.481 172.615L117.888 172.511C123.34 171.199 128.854 170.164 134.411 169.41V169.476L134.318 169.697C128.809 170.448 123.342 171.479 117.937 172.785L117.53 172.886C114.907 173.549 112.19 174.251 109.578 174.993C106.843 175.762 104.17 176.735 101.581 177.904C100.322 178.474 99.0993 179.105 97.7452 179.815C96.391 180.524 95.1324 181.204 93.9857 181.876C92.6207 182.681 91.444 183.427 90.4202 184.156C90.0816 184.388 89.8114 184.584 89.5711 184.77C89.4701 184.849 89.3691 184.923 89.2681 184.999C89.0879 185.133 88.9077 185.272 88.722 185.406L88.3972 185.679C87.9713 186.023 87.5317 186.381 87.1249 186.755C85.0422 188.596 83.2151 190.708 81.6919 193.034C80.9233 194.189 80.225 195.39 79.6007 196.63C78.9703 197.87 78.4124 199.146 77.9298 200.452C76.9609 203.036 76.3287 205.735 76.0487 208.481C75.778 211.192 75.9198 213.929 76.4692 216.598C76.7533 217.917 77.1329 219.213 77.6049 220.477C78.0987 221.739 78.6826 222.963 79.3522 224.141C80.6731 226.512 82.3128 228.69 84.2255 230.614C86.0976 232.496 88.2753 234.047 90.6659 235.201C93.0386 236.327 95.5912 237.025 98.2065 237.265C103.496 237.74 108.804 236.598 113.43 233.989C114.591 233.331 115.711 232.601 116.782 231.805C117.036 231.622 117.287 231.42 117.53 231.223L118.636 230.339C119.081 229.984 119.54 229.618 119.96 229.216L121.5 227.83C121.809 227.532 122.117 227.223 122.426 226.915L122.972 226.369L123.706 225.635L124.405 224.865L124.921 224.299C125.219 223.975 125.516 223.65 125.806 223.317L126.469 222.528C127.135 221.739 127.834 220.922 128.456 220.07C128.609 219.868 128.765 219.672 128.918 219.475C129.191 219.129 129.464 218.768 129.737 218.402L130.976 216.693C132.552 214.457 134.081 212.112 135.514 209.726L135.776 209.734Z" fill="#FFCD58"/>
<path d="M135.775 209.734H135.503L135.568 209.625L135.775 209.734Z" fill="#FFCD58"/>
<path d="M135.593 167.354L135.503 167.57L135.252 167.466L135.282 167.392L135.593 167.354Z" fill="#FFCD58"/>
<path d="M134.684 169.579L134.654 169.653L134.337 169.697L134.43 169.476L134.684 169.579Z" fill="#FFCD58"/>
<path d="M186.275 102.838L186.218 102.713" stroke="#FFCD58" stroke-width="0.5" stroke-miterlimit="10"/>
<path d="M173.793 150.635H196.508L215.974 192.679C217.486 196.119 218.253 198.835 218.253 200.757C218.253 203.231 217 205.008 214.527 206.038C212.053 207.067 207.942 207.591 202.307 207.591C201.761 207.591 201.488 208.009 201.488 208.833C201.488 209.658 201.761 210.075 202.307 210.075C204.537 210.075 207.882 209.936 212.247 209.663C216.938 209.39 220.768 209.248 223.637 209.248C226.122 209.248 229.917 209.385 235.235 209.663C240.695 209.936 244.728 210.075 247.248 210.075C247.794 210.075 248.067 209.658 248.067 208.833C248.067 208.009 247.794 207.591 247.248 207.591C244.083 207.591 241.263 206.859 238.861 205.407C236.458 203.954 233.982 201.385 231.508 197.743C229.035 194.101 226.176 188.704 223.018 181.693L207.628 148.658L190.674 112.268L188.681 107.987L186.284 102.838" stroke="#FFCD58" stroke-width="0.5" stroke-miterlimit="10"/>
<path d="M208.796 150.526L223.266 181.584C226.422 188.581 229.272 193.968 231.729 197.596C234.187 201.224 236.625 203.755 238.994 205.178C241.364 206.6 244.13 207.313 247.242 207.313C247.654 207.313 248.334 207.509 248.334 208.828C248.334 210.146 247.646 210.343 247.242 210.343C244.719 210.343 240.673 210.204 235.23 209.928C229.914 209.655 226.124 209.516 223.646 209.516C220.782 209.516 216.957 209.655 212.272 209.928C207.904 210.201 204.554 210.343 202.315 210.343C201.905 210.343 201.223 210.146 201.223 208.828C201.223 207.509 201.914 207.313 202.315 207.313C207.914 207.313 211.991 206.797 214.429 205.781C216.79 204.795 217.978 203.105 217.978 200.752C217.978 198.868 217.219 196.19 215.723 192.785L199.342 157.408L199.227 157.16L198.597 155.795L198.482 155.546L196.333 150.905H173.793" stroke="#FFCD58" stroke-width="0.5" stroke-miterlimit="10"/>
<path d="M190.996 112.32L207.841 148.478L207.966 148.746L208.671 150.261L208.794 150.526" stroke="#FFCD58" stroke-width="0.5" stroke-miterlimit="10"/>
<path d="M188.866 107.75L189.005 108.047L190.848 112.003L190.996 112.317" stroke="#FFCD58" stroke-width="0.5" stroke-miterlimit="10"/>
<path d="M186.491 102.647L186.573 102.822L188.866 107.747" stroke="#FFCD58" stroke-width="0.5" stroke-miterlimit="10"/>
<path d="M185.53 101.236L174.975 78.5757C174.831 78.1416 174.457 77.9395 173.832 77.9395C173.567 77.9157 173.301 77.9629 173.061 78.0761C172.821 78.1894 172.616 78.3647 172.466 78.5838L160.929 106.349L135.593 167.354L135.503 167.57L135.252 167.466L135.282 167.392L160.62 106.396L160.751 106.085L161.251 104.881L161.379 104.572L172.229 78.461C172.401 78.1998 172.64 77.989 172.921 77.8504C173.201 77.7118 173.514 77.6502 173.826 77.672C174.757 77.672 175.101 78.1115 175.224 78.491L185.817 101.228L185.874 101.35" stroke="#FFCD58" stroke-width="0.5" stroke-miterlimit="10"/>
<path d="M185.59 101.361L185.533 101.236" stroke="#FFCD58" stroke-width="0.5" stroke-miterlimit="10"/>
<path d="M145.585 207.124C147.176 207.25 148.894 207.313 150.74 207.313C151.229 207.313 152.05 207.509 152.05 208.828C152.05 210.146 151.231 210.343 150.74 210.343C148.949 210.343 146.598 210.272 143.721 210.133L143.404 210.116C142.325 210.062 141.175 209.999 139.956 209.928C138.514 209.852 137.121 209.787 135.776 209.734H135.503C132.079 209.595 128.997 209.527 126.297 209.527C122.884 209.527 118.778 209.666 114.096 209.939C110.001 210.212 106.583 210.354 103.932 210.354C103.443 210.354 102.624 210.157 102.624 208.839C102.624 207.52 103.443 207.323 103.932 207.323C107.738 207.323 111.006 206.638 113.643 205.284C116.28 203.93 118.83 201.462 121.205 197.913C123.581 194.364 126.201 189.217 128.945 182.624L134.318 169.691L134.411 169.47L134.665 169.574L134.635 169.648L129.202 182.733C126.45 189.335 123.837 194.489 121.437 198.06C119.038 201.631 116.452 204.143 113.774 205.516C111.096 206.889 107.787 207.586 103.945 207.586C103.257 207.586 102.911 208.003 102.911 208.828C102.911 209.652 103.257 210.07 103.945 210.07C106.588 210.07 110.004 209.931 114.091 209.658C118.781 209.385 122.893 209.243 126.311 209.243C130.133 209.243 134.736 209.382 139.978 209.658C141.241 209.731 142.429 209.795 143.541 209.852C146.506 209.996 148.922 210.07 150.748 210.07C151.436 210.07 151.786 209.652 151.786 208.828C151.786 208.003 151.436 207.586 150.748 207.586C148.859 207.586 147.101 207.519 145.474 207.386C141.064 207.034 137.624 206.199 135.216 204.894C131.918 203.108 130.248 200.181 130.248 196.195C130.248 193.168 131.222 189.266 133.147 184.598L139.598 169.055L139.688 168.839L139.942 168.943L139.91 169.02L133.401 184.718C131.49 189.359 130.523 193.217 130.523 196.209C130.523 200.089 132.148 202.933 135.35 204.673C136.142 205.095 136.97 205.447 137.824 205.724C137.911 205.756 138.001 205.784 138.097 205.811C140.442 206.512 142.857 206.951 145.299 207.119L145.585 207.124Z" stroke="#FFCD58" stroke-width="0.5" stroke-miterlimit="10"/>
<path d="M140.737 166.986L140.483 166.882L140.515 166.806L147.221 150.635H164.811H164.967V150.908H164.674H147.404L140.824 166.775L140.737 166.986Z" stroke="#FFCD58" stroke-width="0.5" stroke-miterlimit="10"/>
<path d="M173.793 150.635H173.708V150.907H173.793V150.635Z" stroke="#FFCD58" stroke-width="0.5" stroke-miterlimit="10"/>
<path d="M184.727 125.63L194.646 146.908H175.584H175.494V146.635H175.699H194.217L184.561 125.922L184.41 125.594L181.915 120.246L181.776 119.945L174.29 103.887L174.246 103.794L174.495 103.677L174.576 103.851L182.101 119.995L184.727 125.63Z" stroke="#FFCD58" stroke-width="0.5" stroke-miterlimit="10"/>
<path d="M166.859 146.635H166.941V146.908H166.717H148.878L166.302 104.856L170.416 94.9264L173.87 102.341L173.913 102.432L173.665 102.546L173.588 102.38L170.43 95.6035L167.203 103.39L167.08 103.687L166.605 104.831L166.482 105.134L149.285 146.635H166.859Z" stroke="#FFCD58" stroke-width="0.5" stroke-miterlimit="10"/>
<path d="M143.721 210.133C143.011 211.244 142.282 212.355 141.556 213.431C139.918 215.833 138.14 218.266 136.273 220.66C134.542 222.861 132.62 225.089 130.392 227.486C130.045 227.846 129.693 228.201 129.341 228.553C129.161 228.736 128.981 228.916 128.795 229.099L127.998 229.902L127.162 230.677L126.592 231.207C126.226 231.548 125.863 231.887 125.5 232.217L123.763 233.68L123.452 233.94C123.266 234.098 123.075 234.262 122.868 234.409L120.998 235.807C120.706 236.023 120.405 236.247 120.094 236.454C118.806 237.342 117.465 238.151 116.078 238.876C111.567 241.198 106.568 242.415 101.494 242.425C100.211 242.426 98.9296 242.343 97.6578 242.176C94.4946 241.776 91.4275 240.817 88.5992 239.345C85.8008 237.873 83.2738 235.934 81.1268 233.612C79.0222 231.34 77.2383 228.791 75.8249 226.036C75.1102 224.666 74.4917 223.249 73.9738 221.793C73.4775 220.322 73.0888 218.816 72.8108 217.289C72.2886 214.246 72.2205 211.142 72.6088 208.08C73.0016 205.058 73.7805 202.099 74.9267 199.275C76.042 196.467 77.4746 193.796 79.1966 191.314C80.9201 188.82 82.9613 186.562 85.2684 184.595C85.7325 184.186 86.2267 183.798 86.7072 183.421L87.0184 183.175C87.2177 183.025 87.417 182.881 87.6191 182.736L87.9276 182.512C88.2006 182.313 88.49 182.108 88.8531 181.868C89.9451 181.111 91.1955 180.347 92.6534 179.528C93.9803 178.783 95.3126 178.097 96.5548 177.472C97.9581 176.762 99.2249 176.132 100.538 175.561C103.252 174.378 106.051 173.398 108.911 172.632C111.59 171.895 114.303 171.245 116.927 170.617L117.399 170.505C122.568 169.309 128.047 168.348 134.646 167.48L135.295 167.398L135.607 167.36C137.234 167.158 138.872 166.976 140.521 166.814L140.829 166.784C144.529 166.426 148.285 166.167 152.059 166.011L152.37 165.997C154.106 165.924 155.9 165.845 157.65 165.724L158.682 163.458C160.593 159.221 162.616 155.017 164.688 150.9C164.732 150.81 164.778 150.717 164.825 150.627C165.316 149.649 165.811 148.677 166.31 147.711C166.449 147.438 166.583 147.165 166.73 146.892L166.872 146.619C171.325 138.074 176.212 129.599 180.943 121.392L181.79 119.929L181.825 119.866L182.06 120.003L181.929 120.229L181.167 121.551C176.237 130.102 171.137 138.939 166.539 147.85C166.015 148.866 165.494 149.889 164.978 150.919C162.894 155.058 160.863 159.3 158.925 163.573L157.833 165.989H157.754C155.971 166.107 154.15 166.186 152.386 166.262L152.072 166.276C148.269 166.432 144.48 166.694 140.753 167.059C138.991 167.229 137.247 167.422 135.519 167.638L134.676 167.745C128.088 168.613 122.617 169.571 117.457 170.764L116.987 170.876C114.363 171.504 111.652 172.154 108.98 172.888C106.132 173.653 103.345 174.628 100.642 175.807C99.3368 176.38 98.0728 177.008 96.6722 177.718C95.4327 178.343 94.1031 179.026 92.7817 179.771C91.332 180.59 90.0926 181.346 89.0005 182.097C88.6401 182.335 88.348 182.537 88.0859 182.733L87.772 182.96C87.5754 183.104 87.3761 183.246 87.1822 183.394L86.8683 183.64C86.3932 184.014 85.9018 184.399 85.4404 184.805C83.1506 186.758 81.125 189.001 79.415 191.478C77.7042 193.947 76.2817 196.603 75.1751 199.395C74.0372 202.197 73.2638 205.133 72.8736 208.132C72.4879 211.167 72.556 214.243 73.0756 217.258C73.3509 218.772 73.736 220.264 74.2277 221.722C74.7409 223.164 75.3529 224.569 76.0597 225.927C77.462 228.66 79.2321 231.189 81.3206 233.443C83.4469 235.739 85.9489 237.655 88.7193 239.111C91.5196 240.568 94.5561 241.517 97.6878 241.914C100.803 242.311 103.96 242.225 107.049 241.66C108.594 241.388 110.117 240.999 111.603 240.497C113.096 239.992 114.548 239.373 115.947 238.646C117.327 237.92 118.661 237.108 119.941 236.217C120.25 236.015 120.545 235.791 120.834 235.578L122.707 234.177C122.906 234.035 123.094 233.877 123.275 233.721L123.589 233.448L125.336 231.985C125.702 231.657 126.065 231.319 126.428 230.98L126.985 230.483L127.804 229.711L128.598 228.911C128.776 228.731 128.956 228.548 129.144 228.365C129.494 228.012 129.846 227.658 130.187 227.3C132.41 224.917 134.326 222.694 136.052 220.502C137.916 218.11 139.688 215.683 141.324 213.286C142.02 212.254 142.719 211.192 143.399 210.125L143.524 209.928L143.756 210.075L143.721 210.133Z" stroke="#FFCD58" stroke-width="0.5" stroke-miterlimit="10"/>
<path d="M135.776 209.734L135.809 209.753C134.351 212.183 132.806 214.572 131.195 216.852L129.953 218.558C129.68 218.929 129.407 219.29 129.134 219.65C128.981 219.847 128.825 220.043 128.675 220.242C128.039 221.094 127.348 221.913 126.679 222.7C126.455 222.973 126.234 223.224 126.013 223.489C125.718 223.824 125.421 224.152 125.123 224.477L124.607 225.042L123.905 225.817L123.165 226.557C122.98 226.737 122.8 226.92 122.619 227.103C122.311 227.412 122.002 227.72 121.688 228.023L120.149 229.413C119.72 229.82 119.259 230.188 118.808 230.546L117.716 231.431C117.47 231.63 117.216 231.835 116.957 232.02C115.877 232.823 114.748 233.559 113.577 234.224C112.423 234.877 111.22 235.441 109.979 235.911C108.735 236.38 107.457 236.754 106.157 237.03C104.315 237.432 102.436 237.637 100.552 237.642C99.76 237.642 98.9792 237.603 98.2038 237.527C95.5526 237.286 92.9647 236.579 90.5594 235.438C88.1405 234.272 85.9377 232.703 84.0453 230.797C82.1173 228.854 80.4639 226.657 79.1311 224.267C78.4499 223.076 77.8551 221.838 77.351 220.562C76.874 219.285 76.4907 217.974 76.2044 216.641C75.6508 213.948 75.5072 211.187 75.7785 208.451C76.0656 205.68 76.7079 202.958 77.6896 200.351C78.1763 199.037 78.7388 197.753 79.3741 196.504C80.0035 195.25 80.7092 194.035 81.4872 192.867C83.0227 190.526 84.8646 188.4 86.9638 186.547C87.3733 186.168 87.8184 185.807 88.247 185.455L88.5746 185.182C88.7521 185.043 88.9323 184.909 89.1206 184.77L89.421 184.543C89.6667 184.355 89.9397 184.156 90.2809 183.921C91.3075 183.189 92.4814 182.438 93.8656 181.63C95.015 180.956 96.249 180.265 97.6359 179.561C99.0228 178.856 100.221 178.223 101.483 177.65C104.085 176.477 106.77 175.5 109.517 174.726C112.136 173.969 114.852 173.281 117.481 172.615L117.888 172.511C123.34 171.199 128.854 170.164 134.411 169.41C134.567 169.385 134.725 169.366 134.88 169.345C136.462 169.132 138.059 168.936 139.672 168.758C143.767 168.304 147.941 167.977 152.14 167.777L152.487 167.761C153.934 167.69 155.43 167.614 156.907 167.518H157.137L157.041 167.726C156.495 168.891 155.949 170.09 155.326 171.389C154.106 173.978 152.85 176.522 151.567 179.116L141.861 198.5C141.154 199.928 140.554 201.126 139.931 202.322C139.309 203.518 138.705 204.659 138.083 205.786L138.001 205.934L137.761 205.8L137.815 205.699C138.449 204.561 139.079 203.381 139.691 202.199C140.303 201.017 140.909 199.794 141.616 198.377L151.324 178.993C152.607 176.399 153.86 173.857 155.081 171.272C155.665 170.046 156.195 168.916 156.697 167.818C155.294 167.906 153.874 167.977 152.501 168.045L152.154 168.061C148.026 168.258 143.923 168.577 139.901 169.017L139.598 169.055C138.029 169.226 136.472 169.417 134.927 169.628L134.654 169.667L134.337 169.71C128.828 170.462 123.361 171.492 117.956 172.798L117.55 172.899C114.926 173.563 112.209 174.264 109.597 175.007C106.862 175.776 104.189 176.749 101.6 177.917C100.342 178.488 99.1184 179.118 97.7643 179.828C96.4101 180.538 95.1515 181.218 94.0049 181.89C92.6398 182.695 91.4631 183.44 90.4393 184.169C90.1008 184.401 89.8305 184.598 89.5902 184.783C89.4892 184.863 89.3882 184.936 89.2872 185.013C89.107 185.147 88.9268 185.286 88.7412 185.42L88.4163 185.693C87.9904 186.037 87.5508 186.394 87.144 186.768C85.0613 188.61 83.2342 190.722 81.711 193.048C80.9364 194.198 80.2317 195.394 79.6007 196.63C78.9703 197.87 78.4124 199.146 77.9298 200.452C76.9609 203.036 76.3287 205.735 76.0487 208.481C75.778 211.192 75.9198 213.929 76.4692 216.598C76.7533 217.917 77.1329 219.213 77.6049 220.477C78.0987 221.739 78.6826 222.963 79.3522 224.141C80.6731 226.511 82.3128 228.689 84.2255 230.614C86.0976 232.496 88.2753 234.047 90.6659 235.201C93.0386 236.327 95.5912 237.025 98.2065 237.265C103.496 237.74 108.804 236.598 113.43 233.989C114.591 233.331 115.711 232.601 116.782 231.805C117.036 231.622 117.287 231.42 117.53 231.223L118.636 230.339C119.081 229.984 119.54 229.618 119.96 229.216L121.5 227.83C121.809 227.532 122.117 227.223 122.426 226.915L122.972 226.369L123.706 225.635L124.405 224.865L124.921 224.299C125.219 223.975 125.516 223.65 125.805 223.317L126.469 222.528C127.135 221.739 127.834 220.922 128.456 220.07C128.609 219.868 128.765 219.672 128.918 219.475C129.191 219.129 129.464 218.768 129.737 218.402L130.976 216.693C132.552 214.457 134.081 212.112 135.514 209.726L135.579 209.617L135.776 209.734Z" stroke="#FFCD58" stroke-width="0.5" stroke-miterlimit="10"/>
<path d="M145.471 207.315L145.239 207.173L145.282 207.1C145.555 206.649 145.828 206.196 146.101 205.735C147.371 203.575 148.583 201.432 149.754 199.357L150.451 198.126C152.998 193.635 155.987 188.297 158.873 182.837C160.211 180.298 161.549 177.65 162.848 174.98C163.553 173.516 164.167 172.208 164.729 170.983C165.139 170.109 165.548 169.205 165.925 168.332C166.127 167.876 166.326 167.425 166.523 166.986L166.782 166.407H166.853C167.847 166.251 168.721 166.104 169.526 165.959C172.316 165.457 175.194 164.867 178.082 164.176L179.374 163.868C181.724 163.305 184.157 162.724 186.551 162.08C188.094 161.665 189.472 161.261 190.758 160.802C191.968 160.39 193.27 159.879 194.854 159.191C196.063 158.675 197.647 157.984 199.222 157.176L199.342 157.116L199.465 157.359L199.336 157.425C197.748 158.244 196.161 158.926 194.952 159.442C193.357 160.133 192.05 160.646 190.835 161.061C189.541 161.506 188.159 161.927 186.609 162.344C184.209 162.989 181.776 163.57 179.423 164.133L178.137 164.414C175.243 165.099 172.36 165.697 169.567 166.199C168.781 166.341 167.929 166.472 166.962 166.639L166.763 167.084L166.165 168.427C165.778 169.304 165.379 170.207 164.969 171.084C164.407 172.312 163.79 173.62 163.086 175.086C161.786 177.764 160.446 180.41 159.105 182.952C156.219 188.439 153.227 193.777 150.68 198.268L149.984 199.496C148.813 201.571 147.6 203.717 146.331 205.879C146.085 206.294 145.837 206.698 145.585 207.119L145.471 207.315Z" stroke="#FFCD58" stroke-width="0.5" stroke-miterlimit="10"/>
<path d="M198.597 155.798C197.379 156.426 196.03 157.053 194.261 157.818C193.109 158.32 191.733 158.91 190.272 159.404C189.014 159.838 187.671 160.248 186.158 160.654C183.807 161.285 181.38 161.869 179.035 162.432L177.741 162.743C174.877 163.42 172.024 164.015 169.261 164.512C168.797 164.597 168.33 164.673 167.863 164.752L167.481 164.818L167.585 164.586C169.993 159.186 171.817 155.03 173.493 151.126C173.564 150.963 173.635 150.799 173.703 150.632C174.921 147.79 176.136 144.899 177.315 142.106C179.6 136.678 181.956 131.063 184.414 125.594L184.438 125.537L184.687 125.649L184.564 125.922C182.158 131.319 179.824 136.856 177.569 142.212C176.955 143.668 176.332 145.15 175.702 146.635L175.587 146.908C175.061 148.153 174.533 149.395 174.004 150.635L173.886 150.908L173.747 151.233C172.092 155.088 170.299 159.175 167.94 164.463L169.218 164.242C171.975 163.748 174.823 163.15 177.681 162.478L178.975 162.167C181.32 161.605 183.747 161.023 186.093 160.392C187.597 159.986 188.937 159.573 190.188 159.145C191.643 158.648 193.011 158.069 194.16 157.567C195.929 156.802 197.27 156.18 198.487 155.549L198.605 155.489L198.73 155.732L198.597 155.798Z" stroke="#FFCD58" stroke-width="0.5" stroke-miterlimit="10"/>
<path d="M208.794 150.526C208.774 150.55 208.753 150.573 208.731 150.594L208.534 150.403L208.671 150.261C213.103 145.688 216.181 139.976 217.563 133.76C218.22 130.822 218.625 127.834 218.772 124.827V124.797C218.778 124.68 218.769 124.563 218.748 124.447C218.675 124.073 218.457 123.742 218.141 123.528C217.825 123.315 217.437 123.235 217.062 123.308C216.687 123.38 216.357 123.598 216.143 123.914C215.929 124.231 215.85 124.619 215.922 124.993C216.448 127.771 216.448 130.622 215.922 133.4C215.667 134.793 215.295 136.163 214.811 137.495C213.292 141.654 210.974 145.476 207.985 148.743L207.923 148.811L207.723 148.626L207.86 148.475C209.843 146.303 211.528 143.875 212.87 141.257C213.513 140.008 214.077 138.721 214.56 137.402C215.037 136.089 215.402 134.738 215.652 133.364C216.177 130.621 216.183 127.804 215.668 125.059C215.625 124.838 215.626 124.611 215.67 124.391C215.715 124.17 215.802 123.961 215.928 123.774C216.053 123.588 216.214 123.428 216.401 123.303C216.589 123.179 216.799 123.093 217.02 123.05C217.465 122.962 217.927 123.056 218.304 123.309C218.491 123.435 218.651 123.596 218.775 123.783C218.899 123.97 218.986 124.18 219.029 124.401C219.053 124.542 219.058 124.685 219.045 124.827V124.857C218.896 127.879 218.489 130.883 217.828 133.836C217.499 135.302 217.079 136.745 216.569 138.158C214.859 142.777 212.213 146.992 208.796 150.539L208.794 150.526Z" stroke="#FFCD58" stroke-width="0.5" stroke-miterlimit="10"/>
<path d="M160.62 106.396C160.112 106.518 159.606 106.643 159.102 106.773C157.508 107.196 156.189 107.57 154.955 107.955C154.33 108.146 153.661 108.364 152.913 108.624L150.86 109.333C148.141 110.242 145.475 111.302 142.874 112.509C140.332 113.721 137.979 115.295 135.888 117.183C133.793 119.089 131.901 121.206 130.242 123.5C129.427 124.638 128.697 125.834 128.058 127.079C127.429 128.305 126.927 129.591 126.559 130.918C126.197 132.218 126.019 133.562 126.029 134.912C126.05 136.239 126.299 137.552 126.766 138.794C127.745 141.276 129.491 143.38 131.749 144.801C132.173 145.074 132.471 145.503 132.58 145.996C132.688 146.488 132.598 147.004 132.328 147.43C132.054 147.854 131.624 148.153 131.131 148.262C130.638 148.37 130.122 148.279 129.696 148.009C129.555 147.919 129.426 147.81 129.314 147.686L129.284 147.654C128.212 146.487 127.248 145.226 126.403 143.886C125.562 142.54 124.903 141.089 124.443 139.57C123.993 138.064 123.764 136.5 123.763 134.928C123.775 133.374 124.003 131.828 124.443 130.336C125.221 127.655 126.575 125.032 128.576 122.31C129.461 121.111 130.415 119.966 131.432 118.878C132.431 117.802 133.472 116.787 134.61 115.771C136.869 113.805 139.394 112.166 142.11 110.903C144.782 109.692 147.521 108.634 150.314 107.734L152.38 107.04C153.142 106.786 153.827 106.57 154.477 106.377C155.739 106 157.082 105.631 158.709 105.219C159.599 104.995 160.497 104.78 161.384 104.577L161.453 104.561L161.513 104.834L161.256 104.891C160.437 105.08 159.602 105.282 158.777 105.489C157.139 105.899 155.812 106.267 154.556 106.644C153.909 106.835 153.224 107.054 152.468 107.305L150.401 107.998C147.617 108.893 144.887 109.948 142.224 111.157C139.536 112.408 137.038 114.03 134.801 115.976C133.671 116.986 132.636 117.996 131.642 119.066C130.633 120.147 129.687 121.285 128.808 122.474C126.824 125.168 125.486 127.767 124.713 130.413C124.279 131.879 124.051 133.399 124.036 134.928C124.032 136.478 124.254 138.019 124.694 139.504C125.145 140.997 125.794 142.423 126.622 143.744C127.465 145.07 128.427 146.316 129.496 147.468L129.527 147.501C129.623 147.605 129.732 147.697 129.851 147.774C130.031 147.92 130.239 148.028 130.462 148.088C130.686 148.148 130.92 148.161 131.148 148.124C131.377 148.087 131.595 148.003 131.789 147.876C131.982 147.748 132.147 147.582 132.271 147.386C132.395 147.191 132.477 146.972 132.51 146.742C132.544 146.513 132.528 146.28 132.465 146.057C132.401 145.834 132.291 145.628 132.142 145.451C131.993 145.274 131.807 145.13 131.599 145.03C129.293 143.579 127.509 141.431 126.507 138.898C126.032 137.627 125.778 136.285 125.756 134.928C125.749 133.553 125.932 132.183 126.302 130.858C126.677 129.512 127.187 128.208 127.823 126.965C128.469 125.708 129.206 124.501 130.029 123.353C131.699 121.043 133.603 118.911 135.71 116.991C137.821 115.086 140.197 113.495 142.762 112.268C145.377 111.055 148.057 109.989 150.792 109.077L152.842 108.364C153.595 108.105 154.267 107.886 154.895 107.693C156.132 107.308 157.453 106.931 159.053 106.51C159.624 106.363 160.194 106.221 160.77 106.085L160.838 106.068L160.901 106.341L160.62 106.396Z" stroke="#FFCD58" stroke-width="0.5" stroke-miterlimit="10"/>
<path d="M190.996 112.32L190.966 112.377L190.723 112.255C190.764 112.17 190.807 112.085 190.848 112.003C192.29 109.159 193.709 106.396 195.115 103.805L196.186 101.801H196.254C196.849 101.716 197.346 101.645 197.772 101.569C199.364 101.296 200.775 100.99 202.075 100.649C203.511 100.272 204.928 99.8298 206.287 99.3711C207.687 98.8972 209.055 98.3336 210.382 97.6839C211.749 97.0323 213.019 96.1964 214.158 95.1994C214.744 94.6862 215.273 94.1114 215.736 93.4849L216.222 92.7396L216.309 92.5758L216.632 91.9451C216.684 91.8277 216.733 91.6994 216.779 91.5711L216.847 91.3936C217.141 90.6497 217.32 89.8653 217.377 89.0676C217.411 88.6407 217.39 88.2113 217.314 87.7898C217.232 87.3235 217.057 86.8787 216.798 86.4821C216.52 86.0709 216.145 85.7343 215.706 85.502C215.305 85.2886 214.871 85.1429 214.423 85.0706C213.618 84.9456 212.798 84.9456 211.993 85.0706C211.232 85.1792 210.48 85.3388 209.741 85.5484C207.539 86.1668 205.45 87.1347 203.554 88.4151C202.298 89.2781 201.131 90.264 200.071 91.3581C199.003 92.4448 198.033 93.6233 197.171 94.88L196.56 95.8137L193.284 100.963H193.218C191.192 101.168 189.123 101.293 187.102 101.416L184.645 101.572C183.114 101.664 181.585 101.798 180.294 101.913C179.42 101.987 178.751 102.049 178.123 102.12L177.348 102.205C176.881 102.254 176.417 102.301 175.953 102.358C173.252 102.677 170.427 103.098 167.317 103.649L167.08 103.693L167.006 103.707L166.957 103.434L167.202 103.39H167.243C169.496 102.991 171.587 102.661 173.588 102.388L173.861 102.35C174.555 102.254 175.226 102.169 175.912 102.09C176.376 102.033 176.843 101.984 177.309 101.935L178.085 101.853C178.713 101.782 179.384 101.716 180.269 101.645C181.56 101.528 183.089 101.397 184.623 101.301L185.527 101.244L185.817 101.225L187.089 101.146C189.074 101.026 191.127 100.9 193.125 100.701L193.382 100.256L196.945 94.7026C197.815 93.4358 198.795 92.2481 199.874 91.1534C200.949 90.0474 202.13 89.0506 203.401 88.1775C204.68 87.3009 206.054 86.5727 207.497 86.0071C208.206 85.7226 208.931 85.4774 209.667 85.2727C210.418 85.0595 211.182 84.8962 211.955 84.784C212.788 84.6585 213.636 84.6585 214.469 84.784C214.946 84.8636 215.407 85.0194 215.834 85.2454C216.311 85.5012 216.718 85.8695 217.019 86.3183C217.295 86.7452 217.48 87.2235 217.565 87.7243C217.643 88.1694 217.665 88.6225 217.631 89.073C217.571 89.8968 217.387 90.7068 217.085 91.4755L217.019 91.653C216.97 91.784 216.918 91.926 216.864 92.0461L216.536 92.6823C216.506 92.7451 216.473 92.8051 216.441 92.8652L215.944 93.6269C215.467 94.2699 214.924 94.8603 214.322 95.3878C213.169 96.3989 211.883 97.2476 210.5 97.9105C209.16 98.5663 207.779 99.1353 206.366 99.6141C205.001 100.086 203.579 100.518 202.137 100.897C200.824 101.241 199.407 101.544 197.81 101.823C197.384 101.894 196.92 101.965 196.349 102.044L195.35 103.925C193.914 106.587 192.445 109.413 190.982 112.323L190.996 112.32Z" stroke="#FFCD58" stroke-width="0.5" stroke-miterlimit="10"/>
<path d="M189.014 108.048L188.978 108.11L188.743 107.971L188.874 107.75L189.966 105.872C190.455 105.053 190.952 104.234 191.449 103.431C191.64 103.122 191.831 102.811 192.02 102.5C190.406 102.625 188.776 102.71 187.195 102.792L186.567 102.825L186.273 102.841L184.725 102.923C181.287 103.117 177.899 103.428 174.574 103.854C174.478 103.854 174.383 103.876 174.301 103.89C172.017 104.184 169.771 104.533 167.563 104.935L166.493 105.137L166.419 105.151L166.367 104.878L166.616 104.831L167.514 104.665C173.2 103.639 178.944 102.966 184.714 102.65C185.538 102.601 186.364 102.556 187.19 102.516C188.855 102.429 190.575 102.342 192.273 102.205L192.546 102.183L192.407 102.412L191.7 103.573C191.201 104.392 190.704 105.192 190.218 106.008L189.014 108.048Z" stroke="#FFCD58" stroke-width="0.5" stroke-miterlimit="10"/>
<path d="M196.931 100.471L199.32 96.2451C200.746 93.8758 202.604 91.795 204.797 90.1105C205.892 89.2785 207.084 88.581 208.346 88.0329C208.979 87.7479 209.628 87.4991 210.29 87.2875C210.938 87.0714 211.601 86.9044 212.275 86.7879C212.904 86.6659 213.548 86.6401 214.186 86.7115C214.455 86.7437 214.717 86.8203 214.961 86.9381C215.173 87.038 215.356 87.1902 215.493 87.3804C215.783 87.8538 215.907 88.4095 215.848 88.9611C215.813 89.6144 215.679 90.2586 215.452 90.8722C215.431 90.9295 215.409 90.9896 215.39 91.0497C215.37 91.1097 215.324 91.2353 215.289 91.3227L215.032 91.8441C215.01 91.8933 214.988 91.9397 214.964 91.9861L214.573 92.614C214.182 93.1663 213.732 93.6752 213.233 94.132C212.199 95.0615 211.044 95.8459 209.798 96.4635C207.644 97.572 205.171 98.4866 201.783 99.4257C200.513 99.7697 199.143 100.076 197.589 100.362L197.36 100.4L196.931 100.471Z" stroke="#FFCD58" stroke-width="0.5" stroke-miterlimit="10"/>
<path d="M198.487 98.2381L197.436 100.111L197.518 100.095C199.063 99.8216 200.426 99.5076 201.687 99.1636C205.059 98.2327 207.516 97.3235 209.651 96.2233C210.879 95.6179 212.019 94.8472 213.039 93.9327C213.521 93.4891 213.957 92.9969 214.338 92.4639L214.718 91.8523L214.775 91.7295L215.026 91.2135C215.059 91.1343 215.089 91.0469 215.119 90.9569L215.185 90.7739C215.403 90.1879 215.531 89.572 215.564 88.9475C215.619 88.4571 215.512 87.9621 215.258 87.5387C215.148 87.384 214.999 87.2607 214.827 87.1811C214.609 87.0792 214.375 87.0119 214.136 86.9818C213.529 86.9169 212.915 86.9427 212.315 87.0582C211.656 87.1723 211.006 87.3356 210.371 87.5469C209.721 87.7557 209.083 88.0009 208.46 88.2813C207.218 88.8219 206.045 89.5083 204.966 90.3262C202.803 91.9916 200.969 94.0462 199.56 96.3844L199.033 97.2962L198.487 98.2381Z" stroke="#FFCD58" stroke-width="0.5" stroke-miterlimit="10"/>
</svg>
