<svg width="650" height="357" viewBox="0 0 650 357" fill="none" xmlns="http://www.w3.org/2000/svg">
<rect width="650" height="357" fill="white"/>
<path d="M395.001 196.009C390.889 192.247 386.156 189.235 381.014 187.108C374.64 184.598 369.329 184.099 362.619 183.548C357.219 183.049 356.493 183.441 348.65 182.8C344.449 182.595 340.266 182.102 336.132 181.322C329.758 179.802 323.742 177.038 318.427 173.186C303.325 163.199 292.578 147.586 288.984 142.103C295.523 151.25 303.528 159.239 312.673 165.745C318.503 170.14 324.954 173.633 331.812 176.106C341.243 179.447 351.279 180.71 361.238 179.809C361.238 179.809 361.627 169.341 361.238 164.267C360.158 150.114 350.048 139.486 346.631 136.21L345.693 135.48C339.972 130.3 333.226 126.393 325.899 124.016C308.849 118.159 305.627 119.636 293.446 114.758C285.178 111.447 274.98 107.228 266.889 96.9556C263.764 92.9194 261.29 88.4136 259.559 83.6036C259.42 90.0218 259.668 96.4425 260.302 102.83C261.524 115.132 263.843 136.655 277.228 158.339C282.246 167.261 289.017 175.062 297.129 181.269C304.162 186.99 312.516 190.836 321.42 192.449C328.279 193.434 335.257 193.18 342.028 191.701C347.729 190.384 349.429 188.96 355.997 187.998C360.859 187.023 365.865 187.023 370.728 187.998C372.091 188.336 377.332 189.778 385.44 196.9C397.267 207.35 400.844 217.426 403.145 216.482C404.774 215.842 404.367 210.341 403.145 206.495C401.587 201.938 398.684 199.41 395.001 196.009Z" fill="#80B359"/>
<path d="M364.017 177.476V178.206C368.165 175.523 371.739 172.037 374.534 167.952C376.96 164.391 378.96 158.481 382.183 146.588C384.431 138.275 385.546 134.127 386.06 130.744C386.471 127.893 387.122 125.082 388.007 122.341C389.442 117.339 390.274 116.36 390.858 115.826C394.098 112.781 400.188 113.102 401.091 114.989C401.499 115.843 400.507 116.306 400.118 118.727C399.871 120.95 400.169 123.199 400.985 125.279C401.127 125.742 402.154 129.142 402.756 129.035C403.074 129.035 403.057 128.109 403.729 125.297C403.875 124.267 404.218 123.275 404.739 122.377C405.237 121.661 405.876 121.055 406.615 120.597C408.115 119.586 409.676 118.671 411.289 117.855C413.471 116.628 415.137 114.649 415.981 112.283C416.654 109.737 415.556 107.53 414.211 104.788C413.145 102.005 411.198 99.6523 408.669 98.0941C407.093 97.2752 406.226 97.382 404.969 96.1893C403.712 94.9965 402.437 92.6287 403.198 91.5072C403.676 90.7416 404.597 91.1511 406.916 90.5992C408.958 90.0937 410.871 89.1593 412.529 87.8576C413.538 87.0565 415.733 85.2762 415.344 84.1369C414.954 82.9975 410.847 82.9797 407.925 83.1399C400.259 83.5494 398.471 85.4009 395.833 83.9588C394.275 83.1043 394.877 82.4456 391.247 77.3541C387.388 72.0133 385.546 71.0697 384.803 70.7493C381.758 69.4853 378.411 70.055 378.287 70.7493C378.164 71.4436 380.501 71.5504 382.908 73.5977C385.617 75.8943 387.282 79.4548 386.573 80.1669C385.865 80.879 383.794 79.4904 380.093 77.3007C375.933 74.8617 375.649 74.1318 373.613 73.5087C369.594 72.2625 365.328 73.4197 365.239 74.3632C365.15 75.3068 367.966 75.3068 371.719 78.1552C373.489 79.4904 375.136 80.8078 375.384 82.8729C375.481 84.1876 375.138 85.4973 374.41 86.5936C373.679 87.7105 372.719 88.6574 371.595 89.3708C369.205 91.1511 368.249 91.0443 367.859 92.1481C367.655 93.4627 367.973 94.8053 368.745 95.8866C369.524 97.4532 370.108 97.6669 370.515 98.7172C371.063 100.223 371.063 101.876 370.515 103.382C368.529 108.463 364.882 112.713 360.175 115.434C353.394 119.279 344.33 119.778 318.321 115.897C315.718 115.505 307.698 114.312 298.633 113.511C308.955 117.446 312.797 116.538 328.732 122.163C336.029 124.635 342.725 128.627 348.384 133.877C348.809 134.251 349.11 134.554 349.234 134.679C352.615 137.99 362.619 148.707 363.557 162.878C363.964 168.931 364.035 172.616 363.964 174.877C364.017 175.731 364.017 176.604 364.017 177.476Z" fill="#182022"/>
<path d="M252.334 217.768C251.146 217.118 249.931 216.581 248.687 216.157C247.472 215.733 246.327 215.521 245.253 215.521C243.925 215.521 242.879 215.789 242.116 216.326C241.352 216.863 240.971 217.669 240.971 218.743C240.971 219.478 241.254 220.142 241.819 220.736C242.412 221.301 243.161 221.81 244.066 222.262C244.999 222.714 245.96 223.124 246.949 223.492C247.853 223.831 248.744 224.241 249.62 224.721C250.525 225.173 251.33 225.753 252.037 226.459C252.743 227.138 253.309 228 253.733 229.046C254.157 230.063 254.369 231.321 254.369 232.819C254.369 234.402 253.959 235.872 253.139 237.229C252.319 238.585 251.118 239.688 249.535 240.536C247.952 241.355 246.002 241.765 243.684 241.765C242.497 241.765 241.282 241.652 240.038 241.426C238.823 241.172 237.621 240.804 236.434 240.324C235.247 239.815 234.102 239.179 233 238.416L235.713 233.625C236.448 234.162 237.24 234.642 238.088 235.066C238.964 235.462 239.84 235.773 240.716 235.999C241.593 236.225 242.398 236.338 243.133 236.338C243.868 236.338 244.603 236.239 245.338 236.041C246.101 235.815 246.723 235.448 247.203 234.939C247.712 234.43 247.967 233.724 247.967 232.819C247.967 232.197 247.755 231.632 247.331 231.123C246.935 230.614 246.384 230.148 245.677 229.724C244.999 229.3 244.25 228.933 243.43 228.622C242.469 228.254 241.48 227.83 240.462 227.35C239.445 226.869 238.483 226.29 237.579 225.611C236.703 224.905 235.982 224.043 235.417 223.025C234.88 221.979 234.611 220.707 234.611 219.209C234.611 217.4 235.007 215.832 235.798 214.503C236.618 213.175 237.763 212.129 239.233 211.366C240.702 210.574 242.398 210.136 244.32 210.051C246.836 210.051 248.871 210.348 250.426 210.942C252.009 211.535 253.422 212.242 254.665 213.062L252.334 217.768Z" fill="#182022"/>
<path d="M271.964 210.221C274.536 210.221 276.713 210.659 278.494 211.535C280.274 212.383 281.631 213.599 282.564 215.181C283.497 216.736 283.963 218.587 283.963 220.736C283.963 222.008 283.765 223.294 283.369 224.594C283.002 225.866 282.394 227.025 281.546 228.071C280.727 229.116 279.61 229.964 278.197 230.614C276.812 231.236 275.102 231.547 273.067 231.547H268.657V241.426H262.509V210.221H271.964ZM273.024 225.569C273.957 225.569 274.734 225.414 275.356 225.103C275.978 224.763 276.458 224.354 276.798 223.873C277.165 223.364 277.419 222.841 277.561 222.304C277.73 221.767 277.815 221.301 277.815 220.905C277.815 220.594 277.759 220.184 277.646 219.676C277.561 219.139 277.363 218.602 277.052 218.065C276.741 217.528 276.261 217.075 275.611 216.708C274.989 216.34 274.141 216.157 273.067 216.157H268.657V225.569H273.024Z" fill="#182022"/>
<path d="M289.676 225.866C289.676 223.718 290.086 221.683 290.905 219.76C291.725 217.838 292.856 216.143 294.297 214.673C295.767 213.175 297.463 212.002 299.385 211.154C301.307 210.306 303.37 209.882 305.575 209.882C307.752 209.882 309.801 210.306 311.723 211.154C313.645 212.002 315.341 213.175 316.811 214.673C318.309 216.143 319.468 217.838 320.287 219.76C321.135 221.683 321.559 223.718 321.559 225.866C321.559 228.071 321.135 230.134 320.287 232.056C319.468 233.978 318.309 235.674 316.811 237.144C315.341 238.585 313.645 239.716 311.723 240.536C309.801 241.355 307.752 241.765 305.575 241.765C303.37 241.765 301.307 241.355 299.385 240.536C297.463 239.716 295.767 238.585 294.297 237.144C292.856 235.674 291.725 233.978 290.905 232.056C290.086 230.134 289.676 228.071 289.676 225.866ZM296.035 225.866C296.035 227.251 296.276 228.551 296.756 229.766C297.265 230.954 297.958 232.014 298.834 232.946C299.738 233.851 300.77 234.557 301.929 235.066C303.116 235.575 304.402 235.829 305.787 235.829C307.116 235.829 308.345 235.575 309.476 235.066C310.635 234.557 311.638 233.851 312.486 232.946C313.334 232.014 313.998 230.954 314.479 229.766C314.959 228.551 315.199 227.251 315.199 225.866C315.199 224.453 314.945 223.138 314.436 221.923C313.956 220.707 313.277 219.647 312.401 218.743C311.553 217.81 310.55 217.089 309.391 216.581C308.232 216.072 306.974 215.817 305.617 215.817C304.261 215.817 303.003 216.072 301.844 216.581C300.685 217.089 299.668 217.81 298.791 218.743C297.915 219.647 297.237 220.707 296.756 221.923C296.276 223.138 296.035 224.453 296.035 225.866Z" fill="#182022"/>
<path d="M339.263 210.221C341.213 210.221 342.952 210.475 344.478 210.984C346.004 211.465 347.276 212.171 348.294 213.104C349.34 214.008 350.131 215.111 350.668 216.411C351.205 217.683 351.474 219.125 351.474 220.736C351.474 222.008 351.276 223.28 350.88 224.551C350.513 225.823 349.891 226.982 349.015 228.028C348.167 229.074 347.036 229.922 345.623 230.572C344.21 231.194 342.457 231.505 340.365 231.505H335.956V241.426H329.808V210.221H339.263ZM340.323 225.569C341.256 225.569 342.033 225.414 342.655 225.103C343.277 224.792 343.757 224.396 344.096 223.916C344.464 223.435 344.718 222.94 344.86 222.432C345.029 221.895 345.114 221.4 345.114 220.948C345.114 220.608 345.057 220.184 344.944 219.676C344.86 219.139 344.662 218.602 344.351 218.065C344.04 217.528 343.559 217.075 342.909 216.708C342.287 216.34 341.44 216.157 340.365 216.157H335.956V225.569H340.323ZM346.089 229.385L353.806 241.426H346.64L338.754 229.554L346.089 229.385Z" fill="#182022"/>
<path d="M358.253 210.221H379.283V216.157H371.693V241.426H365.546V216.157H358.253V210.221Z" fill="#182022"/>
<path d="M263.611 288L239.953 266.631L241.776 267.649L241.904 286.728H235.671V254.294H235.925L259.075 275.577L257.718 274.984L257.591 255.523H263.781V288H263.611Z" fill="#182022"/>
<path d="M270.418 286.728L284.494 254.294H284.833L298.91 286.728H291.787L282.798 263.918L287.25 260.865L276.481 286.728H270.418ZM280.042 275.45H289.412L291.575 280.623H278.135L280.042 275.45Z" fill="#182022"/>
<path d="M300.933 255.523H321.962V261.459H314.373V286.728H308.225V261.459H300.933V255.523Z" fill="#182022"/>
<path d="M335.527 275.196C335.527 276.185 335.824 277.132 336.417 278.036C337.011 278.941 337.788 279.676 338.749 280.241C339.739 280.806 340.813 281.089 341.972 281.089C343.244 281.089 344.374 280.806 345.363 280.241C346.353 279.676 347.13 278.941 347.695 278.036C348.289 277.132 348.586 276.185 348.586 275.196V255.523H354.649V275.323C354.649 277.612 354.083 279.648 352.953 281.428C351.822 283.181 350.296 284.566 348.374 285.583C346.452 286.573 344.318 287.067 341.972 287.067C339.654 287.067 337.534 286.573 335.612 285.583C333.718 284.566 332.206 283.181 331.075 281.428C329.945 279.648 329.379 277.612 329.379 275.323V255.523H335.527V275.196Z" fill="#182022"/>
<path d="M373.637 255.523C375.587 255.523 377.326 255.777 378.852 256.286C380.378 256.767 381.65 257.473 382.668 258.406C383.714 259.311 384.505 260.413 385.042 261.713C385.579 262.985 385.848 264.427 385.848 266.038C385.848 267.31 385.65 268.582 385.254 269.854C384.887 271.126 384.265 272.284 383.389 273.33C382.541 274.376 381.41 275.224 379.997 275.874C378.584 276.496 376.831 276.807 374.739 276.807H370.33V286.728H364.182V255.523H373.637ZM374.697 270.871C375.63 270.871 376.407 270.716 377.029 270.405C377.651 270.094 378.131 269.698 378.47 269.218C378.838 268.737 379.092 268.243 379.234 267.734C379.403 267.197 379.488 266.702 379.488 266.25C379.488 265.911 379.431 265.487 379.318 264.978C379.234 264.441 379.036 263.904 378.725 263.367C378.414 262.83 377.933 262.377 377.283 262.01C376.661 261.643 375.814 261.459 374.739 261.459H370.33V270.871H374.697ZM380.463 274.687L388.18 286.728H381.014L373.128 274.857L380.463 274.687Z" fill="#182022"/>
<path d="M395.368 255.523H416.652V261.459H401.516V268.115H414.914V274.051H401.516V280.792H417.246V286.728H395.368V255.523Z" fill="#182022"/>
</svg>
