<svg width="650" height="357" viewBox="0 0 650 357" fill="none" xmlns="http://www.w3.org/2000/svg">
<rect width="650" height="357" fill="white"/>
<path d="M213.956 243.401C211.559 243.4 209.257 242.459 207.546 240.779C205.836 239.1 204.852 236.816 204.806 234.419C204.806 234.361 204.806 234.301 204.806 234.246V229.584H193.541V234.246C193.541 234.301 193.541 234.361 193.541 234.42C193.491 236.814 192.504 239.092 190.794 240.768C189.083 242.443 186.784 243.381 184.39 243.381C181.996 243.381 179.697 242.443 177.987 240.768C176.276 239.092 175.29 236.814 175.24 234.42C175.24 234.363 175.24 234.302 175.24 234.247V226.488C175.24 226.428 175.24 226.369 175.24 226.312C172.476 224.509 170.207 222.043 168.64 219.138C167.073 216.233 166.258 212.982 166.27 209.682V155.307C166.279 153.487 166.527 151.677 167.008 149.923C167.611 147.692 168.595 145.583 169.916 143.688C171.308 141.798 173.015 140.163 174.963 138.855C175.888 138.23 176.861 137.68 177.874 137.213C177.728 134.465 177.068 131.769 175.929 129.264C174.861 126.932 173.793 124.883 171.538 123.412C169.01 121.759 166.607 122.275 164.854 122.652C160.067 123.693 156.626 127.397 154.58 130.322C154.438 130.535 154.222 130.687 153.974 130.749C153.726 130.812 153.463 130.78 153.237 130.661C153.011 130.541 152.837 130.342 152.749 130.103C152.661 129.863 152.665 129.598 152.76 129.361C154 126.238 157.657 118.63 164.862 115.319C169.902 113.012 174.563 113.027 178.729 115.356C183.111 117.809 185.291 121.64 187.312 125.681C188.848 128.745 189.917 132.022 190.484 135.403H198.565C198.833 135.412 199.087 135.526 199.273 135.719C199.46 135.912 199.564 136.17 199.564 136.439C199.564 136.707 199.46 136.965 199.273 137.158C199.087 137.351 198.833 137.465 198.565 137.474H189.596C189.347 137.475 189.106 137.385 188.917 137.222C188.729 137.058 188.606 136.832 188.57 136.586C188.082 133.113 187.031 129.743 185.461 126.607C183.517 122.722 181.592 119.331 177.717 117.161C172.357 114.163 167.379 116.445 165.736 117.194C162.624 118.624 160.231 120.97 158.451 123.345C160.223 122.043 162.245 121.12 164.39 120.634C166.279 120.231 169.41 119.56 172.662 121.68C175.375 123.452 176.643 125.872 177.803 128.404C179.152 131.373 179.888 134.584 179.966 137.845C179.972 138.054 179.915 138.26 179.802 138.436C179.689 138.612 179.525 138.749 179.332 138.83C178.204 139.306 177.125 139.891 176.11 140.576C174.365 141.745 172.836 143.207 171.588 144.896C170.411 146.594 169.533 148.481 168.993 150.475C168.56 152.052 168.336 153.679 168.328 155.315V209.682C168.318 212.734 169.096 215.738 170.588 218.401C172.079 221.065 174.233 223.298 176.842 224.884C177.011 224.988 177.146 225.138 177.233 225.317C177.319 225.495 177.352 225.695 177.328 225.892C177.305 226.09 177.295 226.289 177.297 226.488V234.246C177.299 234.281 177.299 234.316 177.297 234.352C177.297 236.23 178.043 238.031 179.371 239.359C180.699 240.687 182.5 241.433 184.378 241.433C186.256 241.433 188.057 240.687 189.384 239.359C190.712 238.031 191.458 236.23 191.458 234.352C191.458 234.313 191.458 234.275 191.466 234.238V228.549C191.466 228.275 191.576 228.011 191.77 227.817C191.964 227.623 192.227 227.514 192.502 227.514H205.834C206.108 227.514 206.371 227.623 206.565 227.817C206.76 228.011 206.869 228.275 206.869 228.549V234.246C206.871 234.281 206.871 234.317 206.869 234.353C206.895 236.213 207.653 237.988 208.978 239.295C210.302 240.601 212.088 241.334 213.948 241.335C215.807 241.328 217.589 240.593 218.912 239.288C220.235 237.983 220.995 236.211 221.028 234.353C221.028 234.316 221.03 234.279 221.036 234.243V226.49C221.036 226.063 220.999 225.638 220.923 225.218C220.911 225.157 220.905 225.094 220.905 225.032C220.905 224.866 220.945 224.703 221.02 224.556C221.095 224.409 221.204 224.281 221.338 224.184C223.641 222.531 225.518 220.354 226.814 217.833C228.11 215.312 228.789 212.519 228.793 209.684V195.721C228.793 195.447 228.902 195.184 229.096 194.989C229.291 194.795 229.554 194.686 229.828 194.686C230.103 194.686 230.366 194.795 230.56 194.989C230.754 195.184 230.863 195.447 230.863 195.721V209.684C230.86 212.741 230.154 215.756 228.8 218.496C227.447 221.237 225.482 223.63 223.058 225.491C223.094 225.822 223.112 226.156 223.111 226.49V234.247C223.111 234.302 223.111 234.361 223.111 234.42C223.057 236.815 222.07 239.095 220.36 240.772C218.65 242.45 216.352 243.393 213.956 243.401V243.401Z" fill="#182022"/>
<path d="M198.872 139.291C200.54 139.291 201.892 137.939 201.892 136.271C201.892 134.604 200.54 133.252 198.872 133.252C197.204 133.252 195.853 134.604 195.853 136.271C195.853 137.939 197.204 139.291 198.872 139.291Z" fill="#182022"/>
<path d="M198.872 140.326C198.07 140.326 197.286 140.089 196.618 139.643C195.951 139.197 195.431 138.564 195.124 137.823C194.817 137.082 194.736 136.266 194.893 135.479C195.049 134.692 195.436 133.969 196.003 133.402C196.57 132.835 197.293 132.448 198.08 132.292C198.867 132.135 199.683 132.216 200.424 132.523C201.165 132.83 201.798 133.35 202.244 134.017C202.689 134.685 202.927 135.469 202.927 136.271C202.925 137.346 202.498 138.377 201.738 139.137C200.978 139.897 199.947 140.325 198.872 140.326V140.326ZM198.872 134.284C198.48 134.284 198.096 134.401 197.77 134.619C197.444 134.836 197.189 135.146 197.039 135.509C196.889 135.871 196.849 136.27 196.926 136.655C197.002 137.04 197.191 137.393 197.468 137.671C197.745 137.949 198.099 138.138 198.483 138.215C198.868 138.291 199.267 138.253 199.63 138.103C199.992 137.953 200.303 137.699 200.521 137.373C200.739 137.047 200.856 136.664 200.857 136.271C200.856 135.745 200.647 135.241 200.275 134.869C199.903 134.497 199.398 134.288 198.872 134.287V134.284Z" fill="#182022"/>
<path d="M230.1 194.672C231.624 194.672 232.86 193.436 232.86 191.911C232.86 190.387 231.624 189.151 230.1 189.151C228.575 189.151 227.339 190.387 227.339 191.911C227.339 193.436 228.575 194.672 230.1 194.672Z" fill="#182022"/>
<path d="M230.1 195.708C229.349 195.708 228.615 195.485 227.99 195.068C227.366 194.651 226.879 194.058 226.592 193.364C226.304 192.67 226.229 191.907 226.376 191.17C226.522 190.434 226.884 189.757 227.415 189.226C227.946 188.695 228.622 188.334 229.359 188.187C230.095 188.041 230.859 188.116 231.553 188.403C232.246 188.691 232.839 189.177 233.257 189.802C233.674 190.426 233.896 191.16 233.896 191.911C233.896 192.918 233.495 193.883 232.784 194.595C232.072 195.307 231.106 195.707 230.1 195.708V195.708ZM230.1 190.187C229.758 190.187 229.425 190.288 229.141 190.478C228.857 190.668 228.636 190.937 228.506 191.253C228.375 191.568 228.341 191.915 228.408 192.25C228.474 192.584 228.639 192.892 228.88 193.133C229.122 193.374 229.429 193.538 229.764 193.605C230.099 193.671 230.446 193.637 230.761 193.506C231.076 193.375 231.345 193.154 231.535 192.87C231.724 192.586 231.825 192.252 231.825 191.911C231.824 191.454 231.642 191.016 231.319 190.692C230.995 190.369 230.557 190.188 230.1 190.187V190.187Z" fill="#182022"/>
<path d="M242.106 164.537C240.919 159.007 235.691 154.139 229.325 154.302C222.195 154.486 217.346 160.881 216.915 166.712C216.781 168.518 217.064 170.408 219.277 175.036C221.277 179.218 224.591 185.116 230.062 191.567C235.793 184.576 238.846 178.141 240.534 173.724C242.491 168.59 242.506 166.399 242.106 164.537ZM229.672 171.116C228.608 171.116 227.567 170.8 226.682 170.208C225.797 169.616 225.107 168.775 224.7 167.791C224.293 166.807 224.187 165.725 224.395 164.681C224.604 163.637 225.118 162.678 225.871 161.926C226.625 161.174 227.585 160.662 228.629 160.456C229.674 160.249 230.756 160.357 231.739 160.766C232.722 161.175 233.562 161.866 234.152 162.753C234.742 163.639 235.056 164.681 235.054 165.745C235.052 167.172 234.485 168.539 233.476 169.548C232.467 170.556 231.099 171.122 229.672 171.122V171.116Z" fill="#182022"/>
<path d="M311.613 137.814C311.462 136.294 310.815 135.113 309.672 134.272C308.528 133.43 306.977 133.009 305.017 133.009C303.685 133.009 302.561 133.198 301.644 133.574C300.727 133.939 300.023 134.448 299.533 135.101C299.056 135.754 298.817 136.495 298.817 137.325C298.792 138.015 298.936 138.618 299.251 139.134C299.577 139.649 300.023 140.095 300.589 140.472C301.154 140.836 301.807 141.156 302.548 141.433C303.29 141.696 304.081 141.923 304.923 142.111L308.39 142.94C310.074 143.317 311.619 143.82 313.026 144.448C314.433 145.076 315.652 145.848 316.682 146.766C317.712 147.683 318.51 148.763 319.075 150.007C319.653 151.251 319.948 152.676 319.961 154.285C319.948 156.646 319.345 158.694 318.152 160.428C316.971 162.149 315.262 163.487 313.026 164.442C310.802 165.384 308.12 165.855 304.979 165.855C301.864 165.855 299.15 165.378 296.838 164.423C294.539 163.468 292.743 162.055 291.449 160.183C290.168 158.298 289.495 155.968 289.433 153.192H297.328C297.416 154.486 297.787 155.566 298.44 156.433C299.106 157.287 299.992 157.934 301.097 158.374C302.215 158.801 303.478 159.014 304.885 159.014C306.267 159.014 307.467 158.813 308.484 158.411C309.515 158.009 310.312 157.45 310.878 156.734C311.443 156.018 311.726 155.195 311.726 154.266C311.726 153.399 311.468 152.67 310.953 152.08C310.45 151.489 309.709 150.987 308.729 150.572C307.762 150.158 306.575 149.781 305.168 149.441L300.965 148.386C297.712 147.595 295.142 146.357 293.258 144.674C291.374 142.99 290.438 140.723 290.45 137.871C290.438 135.534 291.06 133.493 292.316 131.747C293.585 130 295.325 128.637 297.536 127.657C299.747 126.677 302.259 126.187 305.074 126.187C307.938 126.187 310.438 126.677 312.574 127.657C314.722 128.637 316.393 130 317.586 131.747C318.78 133.493 319.395 135.515 319.433 137.814H311.613Z" fill="#182022"/>
<path d="M325.449 165.309V126.715H340.675C343.603 126.715 346.096 127.274 348.157 128.392C350.217 129.498 351.787 131.037 352.868 133.009C353.961 134.969 354.507 137.23 354.507 139.793C354.507 142.356 353.954 144.617 352.849 146.577C351.743 148.537 350.142 150.063 348.044 151.156C345.958 152.249 343.433 152.796 340.468 152.796H330.763V146.257H339.149C340.719 146.257 342.013 145.987 343.031 145.446C344.061 144.894 344.827 144.134 345.33 143.166C345.845 142.186 346.103 141.062 346.103 139.793C346.103 138.512 345.845 137.394 345.33 136.439C344.827 135.471 344.061 134.724 343.031 134.196C342.001 133.656 340.694 133.386 339.111 133.386H333.609V165.309H325.449Z" fill="#182022"/>
<path d="M395.272 146.012C395.272 150.22 394.475 153.801 392.879 156.753C391.296 159.705 389.135 161.96 386.397 163.518C383.671 165.064 380.605 165.836 377.201 165.836C373.771 165.836 370.693 165.057 367.967 163.499C365.241 161.942 363.086 159.687 361.503 156.734C359.92 153.782 359.129 150.208 359.129 146.012C359.129 141.803 359.92 138.223 361.503 135.27C363.086 132.318 365.241 130.069 367.967 128.524C370.693 126.966 373.771 126.187 377.201 126.187C380.605 126.187 383.671 126.966 386.397 128.524C389.135 130.069 391.296 132.318 392.879 135.27C394.475 138.223 395.272 141.803 395.272 146.012ZM387 146.012C387 143.286 386.591 140.987 385.775 139.115C384.971 137.243 383.834 135.823 382.364 134.856C380.894 133.889 379.173 133.405 377.201 133.405C375.228 133.405 373.507 133.889 372.037 134.856C370.567 135.823 369.424 137.243 368.608 139.115C367.804 140.987 367.401 143.286 367.401 146.012C367.401 148.738 367.804 151.037 368.608 152.909C369.424 154.781 370.567 156.2 372.037 157.168C373.507 158.135 375.228 158.619 377.201 158.619C379.173 158.619 380.894 158.135 382.364 157.168C383.834 156.2 384.971 154.781 385.775 152.909C386.591 151.037 387 148.738 387 146.012Z" fill="#182022"/>
<path d="M401.317 165.309V126.715H416.543C419.458 126.715 421.945 127.236 424.005 128.279C426.078 129.309 427.655 130.773 428.735 132.67C429.828 134.554 430.375 136.772 430.375 139.322C430.375 141.885 429.822 144.09 428.717 145.936C427.611 147.771 426.009 149.178 423.911 150.158C421.826 151.137 419.301 151.627 416.336 151.627H406.141V145.07H415.017C416.574 145.07 417.868 144.856 418.899 144.429C419.929 144.002 420.695 143.361 421.198 142.507C421.713 141.652 421.97 140.591 421.97 139.322C421.97 138.041 421.713 136.96 421.198 136.081C420.695 135.201 419.923 134.536 418.88 134.083C417.85 133.618 416.549 133.386 414.979 133.386H409.476V165.309H401.317ZM422.159 147.745L431.751 165.309H422.743L413.358 147.745H422.159Z" fill="#182022"/>
<path d="M434.671 133.443V126.715H466.368V133.443H454.552V165.309H446.487V133.443H434.671Z" fill="#182022"/>
<path d="M322.957 189.146V227.739H315.909L299.119 203.449H298.836V227.739H290.676V189.146H297.837L314.496 213.417H314.835V189.146H322.957Z" fill="#182022"/>
<path d="M336.351 227.739H327.607L340.93 189.146H351.445L364.749 227.739H356.005L346.338 197.965H346.037L336.351 227.739ZM335.804 212.569H356.458V218.939H335.804V212.569Z" fill="#182022"/>
<path d="M363.209 195.873V189.146H394.905V195.873H383.089V227.739H375.024V195.873H363.209Z" fill="#182022"/>
<path d="M423.963 189.146H432.123V214.209C432.123 217.023 431.451 219.485 430.106 221.596C428.775 223.706 426.909 225.352 424.51 226.533C422.11 227.701 419.315 228.286 416.124 228.286C412.92 228.286 410.119 227.701 407.719 226.533C405.32 225.352 403.454 223.706 402.122 221.596C400.791 219.485 400.125 217.023 400.125 214.209V189.146H408.284V213.512C408.284 214.981 408.605 216.288 409.246 217.431C409.899 218.574 410.816 219.473 411.997 220.126C413.178 220.779 414.553 221.106 416.124 221.106C417.707 221.106 419.082 220.779 420.251 220.126C421.432 219.473 422.342 218.574 422.983 217.431C423.636 216.288 423.963 214.981 423.963 213.512V189.146Z" fill="#182022"/>
<path d="M438.836 227.739V189.146H454.062C456.977 189.146 459.464 189.667 461.525 190.71C463.598 191.74 465.174 193.203 466.255 195.1C467.348 196.985 467.894 199.202 467.894 201.753C467.894 204.315 467.341 206.52 466.236 208.367C465.13 210.201 463.529 211.608 461.431 212.588C459.345 213.568 456.82 214.058 453.855 214.058H443.66V207.5H452.536C454.094 207.5 455.388 207.287 456.418 206.859C457.448 206.432 458.214 205.792 458.717 204.937C459.232 204.083 459.49 203.021 459.49 201.753C459.49 200.471 459.232 199.391 458.717 198.511C458.214 197.632 457.442 196.966 456.399 196.514C455.369 196.049 454.069 195.817 452.498 195.817H446.996V227.739H438.836ZM459.678 210.176L469.27 227.739H460.262L450.878 210.176H459.678Z" fill="#182022"/>
<path d="M473.661 227.739V189.146H499.666V195.873H481.82V205.069H498.328V211.797H481.82V221.012H499.741V227.739H473.661Z" fill="#182022"/>
</svg>
